<?xml version="1.0" standalone="no"?>
<!DOCTYPE svg PUBLIC "-//W3C//DTD SVG 1.1//EN" "http://www.w3.org/Graphics/SVG/1.1/DTD/svg11.dtd" >
<svg>
<metadata>
Created by FontForge 20090914 at Sat Apr  2 17:43:49 2016
 By www-data
Alejandra
</metadata>
<defs>
<font id="AleFont" horiz-adv-x="401" >
  <font-face 
    font-family="AleFont"
    font-weight="500"
    font-stretch="normal"
    units-per-em="1000"
    panose-1="2 0 6 3 0 0 0 0 0 0"
    ascent="800"
    descent="-200"
    x-height="461.002"
    cap-height="682.001"
    bbox="-57.1982 -302.22 616.905 899.898"
    underline-thickness="50"
    underline-position="-100"
    unicode-range="U+0020-U+3000"
  />
<missing-glyph horiz-adv-x="364" 
d="M66 33h199v600h-199v-600zM33 0v666h265v-666h-265z" />
    <glyph glyph-name=".notdef" horiz-adv-x="364" 
d="M66 33h199v600h-199v-600zM33 0v666h265v-666h-265z" />
    <glyph glyph-name="space" unicode=" " horiz-adv-x="300" 
 />
    <glyph glyph-name="exclam" unicode="!" horiz-adv-x="266" 
d="M137 194l-1.00098 -5.99805c-0.666992 -4 -2.66699 -7.33301 -6 -10s-7 -3.66699 -11 -3s-7.33301 2.66699 -10 6s-3.66699 7 -3 11l2 14c-0.666992 17.333 -4.66699 40 -12 68c-11.333 42.667 -17.666 69 -18.999 79c-11.333 80 -18 146.333 -20 199
c-2 47.333 -1 85.333 3 114c5.33301 39.333 17 64.666 35 75.999c21.333 12.667 40 15.334 56 8.00098c14 -6.66699 24.667 -19.334 32 -38.001c10 -24.667 14.667 -55 14 -91c-0.666992 -27.333 -3.5 -55.833 -8.5 -85.5s-11.667 -62.834 -20 -99.501
s-13.833 -63.667 -16.5 -81c-4 -18.667 -7 -46 -9 -82c-2 -33.333 -3.66699 -56 -5 -68v-5c0 -2 -0.333008 -4 -1 -6zM115.999 314.002c2 17.333 4 32.998 6 46.998c3.33301 19.333 9.16602 46.833 17.499 82.5s14.833 67.667 19.5 96s7.33398 55.5 8.00098 81.5
c0.666992 32.667 -3.33301 59.334 -12 80.001c-4.66699 11.333 -10 18.333 -16 21c-6.66699 3.33301 -16 1.33301 -28 -6c-10 -6 -17 -24 -21 -54c-4 -26.667 -5 -63 -3 -109c2 -51.333 8.66699 -116.666 20 -195.999c1.33301 -12 4.33301 -26.333 9 -43zM136.999 20
c15.333 -11.333 24.3359 -18.3311 27.0029 -20.998c7.33301 -6.66699 7.66602 -13.667 0.999023 -21s-13.667 -7.66602 -21 -0.999023c-2 2 -12.333 10 -31 24c-19.333 15.333 -35 28.333 -47 39c-18.667 17.333 -31 32.666 -37 45.999c-10 21.333 -7 38.666 9 51.999
c9.33301 8 20.333 8 33 0c7.33301 -4 15.333 -10.667 24 -20c6 -6.66699 11.333 -14 16 -22c15.333 16 31.333 28.333 48 37c11.333 6 21.666 10 30.999 12c11.333 2.66699 20.666 2 27.999 -2c10.667 -6 15 -15.333 13 -28c-1.33301 -8.66699 -6.33301 -18.334 -15 -29.001
c-16 -19.333 -42.333 -41.333 -79 -66zM111.002 51.002c-2 -2 -4.33301 -3.33301 -7 -4l8 -7c38.667 24.667 65.334 46 80.001 64c4 4.66699 6.66699 8.66699 8 12h-4c-6.66699 -1.33301 -14.334 -4.33301 -23.001 -9c-16.667 -9.33301 -33 -23 -49 -41
c0 -8.66699 -4.33301 -13.667 -13 -15zM55.002 113.002c-2 -3.33301 -1.66797 -8 0.999023 -14c4.66699 -10 14.334 -22 29.001 -36c0.666992 2.66699 1.66699 5 3 7l2 3l-2 4c-4.66699 7.33301 -10 14.333 -16 21s-11.333 11.667 -16 15h-1z" />
    <glyph glyph-name="quotedbl" unicode="&#x22;" horiz-adv-x="315" 
d="M77 444c-2.66699 16 -4.5 34.168 -5.5 54.501s-1.66699 36.666 -2 48.999s-0.333008 31.333 0 57s0.5 42.167 0.5 49.5c0 10 5 15 15 15s15 -5 15 -15c0 -8 -0.166992 -24.667 -0.5 -50s-0.333008 -44 0 -56s1 -27.667 2 -47s2.83301 -37 5.5 -53
c0.666992 -4 -0.333008 -7.66699 -3 -11s-6 -5.33301 -10 -6s-7.66699 0.333008 -11 3s-5.33301 6 -6 10zM250 429.001c0 28 -3.49805 66.168 -10.498 114.501s-14.5 89.833 -22.5 124.5c-0.666992 4 0.166016 7.66699 2.49902 11s5.5 5.5 9.5 6.5s7.66699 0.333008 11 -2
s5.66602 -5.5 6.99902 -9.5c8 -34.667 15.5 -76.834 22.5 -126.501s10.5 -89.167 10.5 -118.5c0 -10 -5 -15 -15 -15s-15 5 -15 15z" />
    <glyph glyph-name="numbersign" unicode="#" horiz-adv-x="479" 
d="M234 334c-5.33301 64.667 -9.33301 134.667 -12 210c-34 -0.666992 -64 -1 -90 -1c2 -46 5.33301 -101.333 10 -166l5 -59l39 7zM277 -43c0 29.333 -1.66504 59.165 -4.99805 89.498s-8 66.166 -14 107.499l-14 91c-2.66699 19.333 -5 39 -7 59l-45 -8l-43 -8
c9.33301 -128 15 -226 17 -294c0 -4 -1.33301 -7.5 -4 -10.5s-6.16699 -4.5 -10.5 -4.5s-8 1.33301 -11 4s-4.5 6.33398 -4.5 11.001c-2 67.333 -7.66699 163.666 -17 288.999c-64.667 -12 -117.667 -20.667 -159 -26c-4 -0.666992 -7.66699 0.333008 -11 3
s-5.33301 6 -6 10s0.333008 7.66699 3 11s6 5.33301 10 6c41.333 5.33301 95 14 161 26l-5 62c-4.66699 66 -8 122 -10 168c-44.667 0.666992 -86 1.66699 -124 3c-4 0 -7.33301 1.5 -10 4.5s-4 6.66699 -4 11s1.5 7.83301 4.5 10.5s6.83301 4 11.5 4
c36.667 -1.33301 77 -2.33301 121 -3c-2.66699 67.333 -3 129 -1 185c0 4.66699 1.5 8.33398 4.5 11.001s6.66699 4 11 4s7.83301 -1.5 10.5 -4.5s4 -6.5 4 -10.5c-2 -56.667 -1.66699 -118.334 1 -185.001c26 0 56 0.333008 90 1c-0.666992 39.333 -1 82 -1 128
c0 10 5 15 15 15s15 -5 15 -15c0 -45.333 0.333008 -88 1 -128c94 0.666992 153.333 1 178 1c10 0 15 -5 15 -15s-5 -15 -15 -15c-25.333 0 -84.333 -0.333008 -177 -1c2 -73.333 6 -141.666 12 -204.999c58.667 10 110.667 16.667 156 20c4 0 7.5 -1.33301 10.5 -4
s4.66699 -6 5 -10s-0.833984 -7.5 -3.50098 -10.5s-6 -4.83301 -10 -5.5c-44.667 -3.33301 -96.334 -10 -155.001 -20c2 -20 4.33301 -40 7 -60c2 -17.333 6.33301 -47.166 13 -89.499s11.667 -79.166 15 -110.499s5 -62 5 -92c0 -10 -5 -15 -15 -15s-15 5 -15 15z" />
    <glyph glyph-name="dollar" unicode="$" horiz-adv-x="492" 
d="M288 393c-1.33301 34 -2.33398 67.332 -3.00098 99.999c0 10 -4 56.667 -12 140c-7.33301 -0.666992 -14.666 -1.66699 -21.999 -3c-38.667 -7.33301 -71 -19.666 -97 -36.999c-26.667 -17.333 -41 -37 -43 -59c-2 -16 12.333 -35 43 -57c12 -9.33301 29.667 -21 53 -35
l64 -38zM318.999 334.999c1.33301 -88 2.33398 -185.332 3.00098 -291.999c33.333 12.667 60.666 31 81.999 55c11.333 13.333 18 23.666 20 30.999c2.66699 6 3.66699 18.333 3 37c-1.33301 60 -37.333 116.333 -108 169zM304 795c-6 -36 -7 -79.332 -3 -129.999
c74 2.66699 125 -14.666 153 -51.999c6 -8 5 -15 -3 -21s-15 -5 -21 3c-10.667 14 -27.334 24.5 -50.001 31.5s-48.334 10.167 -77.001 9.5c7.33301 -78.667 11.333 -126.334 12 -143.001c1.33301 -38.667 2.33301 -78.667 3 -120c90.667 -63.333 137 -132.333 139 -207
c0.666992 -21.333 -0.666016 -37 -3.99902 -47c-4 -10.667 -13 -24.334 -27 -41.001c-26 -30.667 -60.667 -53 -104 -67v-93c0 -10 -5 -15 -15 -15s-15 5 -15 15v86c-67.333 -14 -131 -8.66699 -191 16c-25.333 10 -46.166 23.167 -62.499 39.5s-25.166 34.5 -26.499 54.5
c-3.33301 45.333 30.667 88 102 128c8.66699 4.66699 15.334 2.66699 20.001 -6s2.66699 -15.334 -6 -20.001c-60 -34 -88.667 -67 -86 -99c0.666992 -13.333 7.16699 -26 19.5 -38s29.166 -22.333 50.499 -31c57.333 -23.333 117.333 -28 180 -14
c-0.666992 118.667 -2 226.334 -4 323.001l-33 21l-63 38c-24 14.667 -42.667 26.667 -56 36c-39.333 29.333 -57.666 58 -54.999 86c3.33301 30.667 22 57.334 56 80.001c29.333 20 65.333 34 108 42c8.66699 1.33301 17.334 2.33301 26.001 3c-4 54 -3 99.333 3 136
c0.666992 4.66699 2.66699 8.16699 6 10.5s7.16602 3.16602 11.499 2.49902s7.66602 -2.66699 9.99902 -6s3.16602 -7 2.49902 -11z" />
    <glyph glyph-name="percent" unicode="%" horiz-adv-x="536" 
d="M84 609c-9.33301 -9.33301 -16.333 -24.332 -21 -44.999c-5.33301 -22.667 -5.66602 -43.334 -0.999023 -62.001c4.66699 -17.333 13 -27 25 -29c21.333 -4 38.333 9.33301 51 40c6 14.667 9 29.5 9 44.5s-2.33301 26.167 -7 33.5c-2 4 -7.66699 7 -17 9
c-4.66699 1.33301 -14 2.33301 -28 3c-4.66699 0 -8.33398 2 -11.001 6zM128 630.001l2 -0.999023c17.333 -3.33301 29.333 -10.666 36 -21.999c8 -14.667 11.833 -31.334 11.5 -50.001s-4.16602 -37 -11.499 -55c-8 -19.333 -19.167 -34.833 -33.5 -46.5
s-31.5 -15.834 -51.5 -12.501c-24 4.66699 -40 22 -48 52c-6 22.667 -5.66699 48 1 76c6.66699 28.667 17.667 49.334 33 62.001c9.33301 8 19.666 11.667 30.999 11c10.667 -0.666992 20.667 -5.33398 30 -14.001zM451 244.002c-4 6 -8.33398 11.332 -13.001 15.999
c-7.33301 7.33301 -7.5 14.5 -0.5 21.5s13.833 7.16699 20.5 0.5c16.667 -15.333 28.667 -35.166 36 -59.499s9 -47.166 5 -68.499c-4 -25.333 -15.333 -43 -34 -53c-20 -11.333 -45.333 -11 -76 1c-11.333 4.66699 -20.166 12.667 -26.499 24
s-10.166 23.666 -11.499 36.999c-2.66699 31.333 6.66602 54 27.999 68c16 10 40 14.333 72 13zM68.999 -37.999c2.66699 25.333 8.16602 53.166 16.499 83.499s16.5 56.5 24.5 78.5l32 82l28 74c52 146 108.333 283.333 169 412c4.66699 9.33301 11.5 11.833 20.5 7.5
s11.5 -10.833 7.5 -19.5c-65.333 -141.333 -121.666 -278 -168.999 -410c-6 -17.333 -15.333 -42.666 -28 -75.999l-32 -80c-7.33301 -21.333 -15 -46.5 -23 -75.5s-13.333 -55.833 -16 -80.5c-0.666992 -4 -2.66699 -7.33301 -6 -10s-7 -3.66699 -11 -3
s-7.33301 2.66699 -10 6s-3.66699 7 -3 11zM461.998 214.001c-4 0 -9.33105 0.166992 -15.998 0.5s-11.667 0.333008 -15 0s-7.33301 -0.666016 -12 -0.999023s-8.83398 -1.16602 -12.501 -2.49902s-7.5 -3.33301 -11.5 -6c-11.333 -6.66699 -16 -20 -14 -40
c1.33301 -18.667 8 -30.334 20 -35.001c21.333 -8.66699 38 -9.66699 50 -3c10 5.33301 16.333 16 19 32c3.33301 17.333 1.66602 35.666 -5.00098 54.999h-3z" />
    <glyph glyph-name="ampersand" unicode="&#x26;" horiz-adv-x="425" 
d="M136 322c-32 -92 -51.668 -163.334 -59.001 -214.001c-5.33301 -37.333 -5 -63.333 1 -78c2 -4.66699 4.33301 -7.66699 7 -9c2 -0.666992 5 -0.666992 9 0c12 2.66699 26.333 11.667 43 27s33 34.333 49 57c8.66699 12 21.334 32 38.001 60l-16 29
c-37.333 64.667 -61.333 107.334 -72 128.001zM258.999 163.999c36 -64.667 66.6641 -109.669 91.9971 -135.002c6.66699 -7.33301 6.5 -14.5 -0.5 -21.5s-14.167 -7.16699 -21.5 -0.5c-26.667 27.333 -56 70 -88 128c-12 -20 -22.333 -36 -31 -48
c-16.667 -24 -34.334 -44.667 -53.001 -62c-20.667 -18.667 -39.334 -29.667 -56.001 -33c-11.333 -2.66699 -21.333 -1.66699 -30 3c-9.33301 4.66699 -16.333 12.334 -21 23.001c-8 20 -9 51.333 -3 94c7.33301 52.667 28.333 128.334 63 227.001l7 21
c-31.333 64.667 -51.666 126 -60.999 184c-7.33301 47.333 -10.666 83 -9.99902 107c2.66699 51.333 21.334 83.333 56.001 96c8 2.66699 17.667 4.33398 29 5.00098c14 0.666992 24.667 -1.33301 32 -6c12 -6.66699 21.333 -19.667 28 -39
c5.33301 -14 9.33301 -31.667 12 -53c3.33301 -36.667 3 -69.334 -1 -98.001c-7.33301 -50 -24.666 -114.667 -51.999 -194c13.333 -28 41.333 -78.667 84 -152l9 -16l12 18c13.333 20.667 31.833 51 55.5 91s40.834 68.333 51.501 85c6 8.66699 13.167 10.167 21.5 4.5
s9.83301 -12.5 4.5 -20.5c-11.333 -17.333 -28.833 -46 -52.5 -86s-42.5 -70 -56.5 -90zM130.996 400.997c20.667 62.667 34.333 115.667 41 159c4 26.667 4.33301 57 1 91c-2 18.667 -5.33301 34 -10 46c-4 12 -8.66699 19.667 -14 23
c-3.33301 1.33301 -9.16602 2 -17.499 2s-14.833 -1 -19.5 -3c-22 -8 -34 -31.333 -36 -70c-0.666992 -21.333 2.66602 -55 9.99902 -101c7.33301 -46.667 22.333 -95.667 45 -147z" />
    <glyph glyph-name="quotesingle" unicode="'" horiz-adv-x="129" 
d="M83 702c2.66699 -14.667 4.83398 -31.1729 6.50098 -49.5059s2.66699 -32.666 3 -42.999s0.666016 -27.666 0.999023 -51.999s0.5 -39.166 0.5 -44.499c0 -4 -1.33301 -7.5 -4 -10.5s-6.16699 -4.5 -10.5 -4.5s-8 1.33301 -11 4s-4.5 6.33398 -4.5 11.001
c0 5.33301 -0.166992 20 -0.5 44s-0.666016 41 -0.999023 51s-1.33301 23.667 -3 41s-3.83398 33 -6.50098 47c-0.666992 4 0.166016 7.83301 2.49902 11.5s5.5 5.83398 9.5 6.50098s7.83301 -0.166016 11.5 -2.49902s5.83398 -5.5 6.50098 -9.5z" />
    <glyph glyph-name="parenleft" unicode="(" horiz-adv-x="315" 
d="M277 673c-7.33301 -8.66699 -15.001 -20.998 -23.001 -36.998c-11.333 -21.333 -19 -35.333 -23 -42c-44.667 -68.667 -78.834 -136.834 -102.501 -204.501s-37 -135.834 -40 -204.501s7.83301 -137 32.5 -205c24.667 -67.333 63 -132.333 115 -195
c6.66699 -8 6.16699 -15.167 -1.5 -21.5s-14.5 -5.83301 -20.5 1.5c-55.333 65.333 -96 133.833 -122 205.5s-37.333 143.5 -34 215.5s17.333 143.167 42 213.5s59.667 140.5 105 210.5c4 6 11.333 19.333 22 40c8.66699 18 17.334 32.333 26.001 43
c6.66699 7.33301 13.834 7.83301 21.501 1.5s8.5 -13.5 2.5 -21.5z" />
    <glyph glyph-name="parenright" unicode=")" horiz-adv-x="295" 
d="M75 -211c16 12 29.668 26.832 41.001 44.499s24.333 40.834 39 69.501c49.333 98.667 74.5 196.5 75.5 293.5s-21.167 196.167 -66.5 297.5c-22 50.667 -48 95.667 -78 135c-2.66699 3.33301 -12.334 14 -29.001 32c-12.667 14.667 -22 27.667 -28 39
c-4.66699 8.66699 -2.66699 15.334 6 20.001s15.334 2.66699 20.001 -6s12.667 -19.334 24 -32.001c17.333 -18.667 27.666 -30.334 30.999 -35.001c31.333 -41.333 58.666 -88.333 81.999 -141c46.667 -104.667 69.334 -208 68.001 -310
c-0.666992 -101.333 -27 -203.666 -79 -306.999c-9.33301 -19.333 -17 -34.5 -23 -45.5s-15 -24.333 -27 -40s-24.667 -28.5 -38 -38.5c-8 -6 -15 -5 -21 3s-5 15 3 21z" />
    <glyph glyph-name="asterisk" unicode="*" horiz-adv-x="442" 
d="M317 387c-3.33301 8.66699 -13.3301 20.666 -29.9971 35.999c-14.667 14 -34 30.333 -58 49l-2 2c-2.66699 -68.667 -1 -127 5 -175c0.666992 -4 -0.333008 -7.66699 -3 -11s-6 -5.33301 -10 -6s-7.66699 0.333008 -11 3s-5.33301 6 -6 10
c-6.66699 51.333 -8.33398 116 -5.00098 194c-60 -39.333 -106 -76.333 -138 -111c-6.66699 -7.33301 -13.667 -7.66602 -21 -0.999023s-7.66602 13.667 -0.999023 21c32.667 36 79 73.667 139 113l-60 42c-6 4 -23 13.667 -51 29c-22.667 12 -40.334 24.333 -53.001 37
c-6.66699 7.33301 -6.5 14.5 0.5 21.5s14.167 7.16699 21.5 0.5c10.667 -10.667 26 -21.667 46 -33c28.667 -15.333 46.667 -25.666 54 -30.999l65 -45c4.66699 92 7 151.333 7 178c0 10 5 15 15 15s15 -5 15 -15c0 -32.667 -2 -87.334 -6 -164.001
c42 25.333 93.667 54 155 86c8.66699 4.66699 15.334 2.66699 20.001 -6s2.66699 -15.334 -6 -20.001c-68 -35.333 -124.667 -67.333 -170 -96l18 -14c27.333 -21.333 47.666 -38.333 60.999 -51c20 -18.667 32.333 -34 37 -46c1.33301 -4 1.16602 -8 -0.500977 -12
s-4.33398 -6.66699 -8.00098 -8s-7.5 -1.16602 -11.5 0.500977s-6.66699 4.16699 -8 7.5z" />
    <glyph glyph-name="plus" unicode="+" horiz-adv-x="532" 
d="M305 565c-4 -15.333 -4.99805 -35.335 -2.99805 -60.002c4 -43.333 6 -65.666 6 -66.999c0.666992 -22 0.666992 -46 0 -72c66 2.66699 124 4 174 4c4 0 7.5 -1.5 10.5 -4.5s4.5 -6.5 4.5 -10.5s-1.5 -7.5 -4.5 -10.5s-6.5 -4.5 -10.5 -4.5c-50 0 -108 -1.33301 -174 -4
c0 -11.333 -0.5 -42 -1.5 -92s-1.5 -88.333 -1.5 -115c0 -10 -5 -15 -15 -15s-15 5 -15 15c0 26.667 0.5 64.834 1.5 114.501s1.5 80.167 1.5 91.5c-22 -1.33301 -56.667 -3 -104 -5s-83.333 -3.66699 -108 -5c-4.66699 0 -8.5 1.33301 -11.5 4s-4.5 6.16699 -4.5 10.5
s1.33301 8 4 11s6 4.5 10 4.5c25.333 1.33301 61.833 3 109.5 5s82.5 3.66699 104.5 5c0.666992 26 0.666992 50.333 0 73c0 0.666992 -1.66699 22 -5 64c-2.66699 28.667 -2 51.667 2 69c1.33301 4.66699 3.66602 8 6.99902 10s7.16602 2.5 11.499 1.5
s7.5 -3.16699 9.5 -6.5s2.66699 -7 2 -11z" />
    <glyph glyph-name="comma" unicode="," horiz-adv-x="189" 
d="M105 80c0.666992 0 1.66406 -0.338867 2.99707 -1.00586c3.33301 -1.33301 7.33301 -4.33301 12 -9c4 -3.33301 9.33301 -8.66602 16 -15.999c14 -14.667 20.333 -30.667 19 -48c-1.33301 -14.667 -8 -28.667 -20 -42c-17.333 -20 -40.666 -36.333 -69.999 -49
c-9.33301 -4 -16 -1.33301 -20 8s-1.33301 16 8 20c25.333 10.667 45 24 59 40c8 9.33301 12.333 17.666 13 24.999c0.666992 8.66699 -3 17.334 -11 26.001c-2.66699 -3.33301 -5.66699 -5.66602 -9 -6.99902c-6.66699 -3.33301 -13.667 -3.66602 -21 -0.999023
c-6.66699 2.66699 -12.667 8 -18 16l-5 -1c-4 -1.33301 -7.83301 -1.16602 -11.5 0.500977s-6.16699 4.5 -7.5 8.5s-1.16602 7.83301 0.500977 11.5s4.5 6.16699 8.5 7.5c0.666992 0.666992 2.33398 1.33398 5.00098 2.00098c0 2.66699 0.333008 5.33398 1 8.00098
c2 8 6.66699 13.333 14 16c6 2 13 1.66699 21 -1c6.66699 -2 11 -6.66699 13 -14z" />
    <glyph glyph-name="hyphen" unicode="-" horiz-adv-x="332" 
d="M28 209c76.667 17.333 162.335 17.335 257.002 0.00195312c4 -0.666992 7.16699 -2.83398 9.5 -6.50098s3.16602 -7.5 2.49902 -11.5s-2.83398 -7.16699 -6.50098 -9.5s-7.5 -3.16602 -11.5 -2.49902c-90 17.333 -171.667 17.333 -245 0
c-4 -0.666992 -7.66699 0.166016 -11 2.49902s-5.5 5.5 -6.5 9.5s-0.333008 7.66699 2 11s5.5 5.66602 9.5 6.99902z" />
    <glyph glyph-name="period" unicode="." horiz-adv-x="216" 
d="M101 -12c-7.33301 -2.66699 -13.333 -0.665039 -18 6.00195c-2 4 -4.66699 7.66699 -8 11l-13 12l-11 11c-16.667 16 -25.667 34 -27 54c-0.666992 8 0 14.667 2 20c2.66699 8 7.66699 13 15 15c6 2 12.333 1 19 -3c4 -2.66699 8 -6 12 -10
c10 -11.333 17.667 -24.333 23 -39c10.667 10.667 21.667 19 33 25c18.667 9.33301 33.334 9.66602 44.001 0.999023c6.66699 -5.33301 9.66699 -13 9 -23c-0.666992 -6.66699 -3.33398 -14.334 -8.00098 -23.001c-10 -16.667 -28 -35.667 -54 -57
c-6 -4.66699 -12 -4.66699 -18 0zM96 26.002l9 -11c20.667 17.333 34.667 32.333 42 45c1.33301 2 2.33301 4 3 6c-2.66699 -0.666992 -5.66699 -1.66699 -9 -3c-12.667 -6.66699 -25 -17.667 -37 -33c-2 -2 -4.66699 -3.33301 -8 -4zM55 77.002
c1.33301 -8 5.33301 -15.333 12 -22c-2.66699 8 -6.66699 15.333 -12 22z" />
    <glyph glyph-name="slash" unicode="/" horiz-adv-x="317" 
d="M20 16c7.33301 34 22.3291 81.001 44.9961 141.001s35.334 94.333 38.001 103c4.66699 14 15.667 48.833 33 104.5s31.333 98.5 42 128.5l21 57c11.333 31.333 19 53.333 23 66s9.33301 30.667 16 54s11.334 44.666 14.001 63.999c0.666992 4 2.66699 7.33301 6 10
s7 3.66699 11 3s7.33301 -2.66699 10 -6s3.66699 -7 3 -11c-3.33301 -21.333 -8.33301 -44 -15 -68s-12.167 -42.5 -16.5 -55.5s-12.333 -35.333 -24 -67s-18.5 -50.5 -20.5 -56.5c-10.667 -30 -24.667 -72.667 -42 -128l-33 -105l-39 -104
c-21.333 -58 -35.333 -103.333 -42 -136c-1.33301 -4 -3.66602 -7.16699 -6.99902 -9.5s-7 -3 -11 -2s-7.16699 3.16699 -9.5 6.5s-3.16602 7 -2.49902 11z" />
    <glyph glyph-name="zero" unicode="0" horiz-adv-x="395" 
d="M292 605c-10 12.667 -20.3311 23.6631 -30.998 32.9961c-14 12.667 -26 20.667 -36 24c-9.33301 2.66699 -16.333 1.33398 -21 -3.99902c-11.333 -12.667 -22.833 -29 -34.5 -49s-20.834 -38.667 -27.501 -56c-23.333 -62 -38.333 -134.667 -45 -218
c-7.33301 -94 0.666992 -165.333 24 -214c13.333 -28.667 28.666 -51.167 45.999 -67.5s34.333 -25.166 51 -26.499c16 -2 31.333 3.83301 46 17.5s27 37.167 37 70.5c12.667 44.667 21.5 95.834 26.5 153.501s4.66699 116.334 -1 176.001s-17.167 109.5 -34.5 149.5
c-1.33301 4 -1.33301 7.66699 0 11zM335.002 562.996c18.667 -71.333 26.9971 -149.167 24.9971 -233.5s-12.333 -158.5 -31 -222.5c-10.667 -38 -26 -66.5 -46 -85.5s-42.667 -27.167 -68 -24.5c-23.333 2.66699 -45.666 14 -66.999 34s-39.666 46 -54.999 78
c-24.667 53.333 -33.334 129.333 -26.001 228c6.66699 86 22.334 161.333 47.001 226c7.33301 19.333 17.333 39.833 30 61.5s25.334 39.5 38.001 53.5c13.333 14.667 30.666 18.667 51.999 12c14.667 -4.66699 30.334 -14.667 47.001 -30c13.333 -12 26 -25.5 38 -40.5
s20 -27.167 24 -36.5s1.33301 -16 -8 -20z" />
    <glyph glyph-name="one" unicode="1" horiz-adv-x="493" 
d="M25 9c54 4.66699 124 5.00391 210 1.00391c10 -0.666992 22.667 -1.33398 38 -2.00098c-0.666992 14.667 -2.33398 36.667 -5.00098 66l-7 65c-3.33301 40 -5.33301 103.667 -6 191c-0.666992 95.333 -1.66699 158.666 -3 189.999c0 3.33301 -0.166992 9.83301 -0.5 19.5
s-0.666016 21.667 -0.999023 36s-0.5 27.166 -0.5 38.499c-0.666992 10 -1 18.667 -1 26c-4 -6.66699 -12.667 -19.334 -26 -38.001c-12.667 -18.667 -21.667 -33.667 -27 -45c-28 -61.333 -57.333 -111 -88 -149c-6.66699 -7.33301 -13.834 -7.83301 -21.501 -1.5
s-8.5 13.5 -2.5 21.5c29.333 34 57.333 81 84 141c6 13.333 16.333 30.333 31 51c16 22.667 26 37.667 30 45c2.66699 5.33301 6 13 10 23c2 4.66699 3.33301 7.66699 4 9c1.33301 2 2.33301 3.66699 3 5s1.66699 2.66602 3 3.99902c5.33301 4 10.666 4.66699 15.999 2
c3.33301 -2 6 -4.66699 8 -8l2 -4c0 -2 0.333008 -4.33301 1 -7c0.666992 -4.66699 1.33398 -11 2.00098 -19c0.666992 -13.333 1.33398 -31.666 2.00098 -54.999c0 -11.333 0.166992 -24.166 0.5 -38.499s0.666016 -26.333 0.999023 -36s0.5 -15.834 0.5 -18.501
c1.33301 -32 2.33301 -96 3 -192c0.666992 -86 2.66699 -149 6 -189l7 -65l6 -70c58.667 -3.33301 105 -5 139 -5c10 0 15 -5 15 -15s-5 -15 -15 -15c-34 0 -80.667 1.66699 -140 5c-2.66699 -5.33301 -6.66699 -8 -12 -8c-7.33301 -0.666992 -12.333 2.33301 -15 9
c-18 1.33301 -32 2.33301 -42 3c-85.333 4 -154.333 3.66699 -207 -1c-4 -0.666992 -7.5 0.333008 -10.5 3s-4.83301 6.16699 -5.5 10.5s0.333008 8 3 11s6.33398 4.83301 11.001 5.5z" />
    <glyph glyph-name="two" unicode="2" horiz-adv-x="500" 
d="M63 536c0 22 10.666 46.6641 31.999 73.9971c18.667 24.667 41.334 46.334 68.001 65.001c29.333 20.667 55.666 32.334 78.999 35.001c31.333 3.33301 52 -8.66699 62 -36c28 -74 22.667 -156.333 -16 -247c-12.667 -28.667 -32 -65.667 -58 -111l-60 -104l-42 -84
c-10 -21.333 -17.333 -38.666 -22 -51.999c-3.33301 -6.66699 -5.33301 -12.334 -6 -17.001h4c12.667 -3.33301 30.334 -2.66602 53.001 2.00098c3.33301 0.666992 7 1.66699 11 3l11 2l9 3c12.667 2.66699 23 4.66699 31 6c84.667 10 161.334 16.667 230.001 20
c4.66699 0 8.5 -1.33301 11.5 -4s4.5 -6.16699 4.5 -10.5s-1.33301 -8 -4 -11s-6 -4.5 -10 -4.5c-68 -3.33301 -144 -10 -228 -20c-6.66699 -0.666992 -16 -2.33398 -28 -5.00098l-31 -8c-28 -6 -50.667 -7 -68 -3c-6 2 -9.66699 3 -11 3
c-7.33301 3.33301 -12.333 8.33301 -15 15c-2 4.66699 -1.66699 11.334 1 20.001c1.33301 5.33301 3.66602 12 6.99902 20c5.33301 14 13 32 23 54l43 85l60 105c26 44.667 44.667 80.667 56 108c36 82.667 41.333 157.667 16 225c-4.66699 12.667 -15 18 -31 16
c-18 -2 -39.333 -11.667 -64 -29s-45.5 -37 -62.5 -59s-25.5 -40.667 -25.5 -56c0 -10 -5 -15 -15 -15s-15 5 -15 15z" />
    <glyph glyph-name="three" unicode="3" horiz-adv-x="455" 
d="M19 623c17.333 14 46 24.9961 86 32.9961c38 8 77.333 11.667 118 11c45.333 -0.666992 82.333 -7.33398 111 -20.001c37.333 -16 58 -39.333 62 -70c4.66699 -34.667 -11.666 -66.334 -48.999 -95.001c-20 -15.333 -50 -32 -90 -50l-17 -7
c13.333 -2.66699 27 -7.33398 41 -14.001c28.667 -13.333 53.667 -33.333 75 -60s37.5 -55.5 48.5 -86.5s16.167 -63.667 15.5 -98s-7.66699 -65.833 -21 -94.5c-10.667 -21.333 -25.167 -39.166 -43.5 -53.499s-38.333 -24.166 -60 -29.499
s-43.834 -7.66602 -66.501 -6.99902s-45 4.33398 -67 11.001c-46 13.333 -81.667 35 -107 65c-29.333 34.667 -36.333 71.334 -21 110.001c1.33301 4 4 6.83301 8 8.5s7.83301 1.83398 11.5 0.500977s6.33398 -4 8.00098 -8s1.83398 -7.66699 0.500977 -11
c-10.667 -28 -5.33398 -54.667 15.999 -80s52.333 -44 93 -56c27.333 -7.33301 53.666 -10.666 78.999 -9.99902s49.166 7.33398 71.499 20.001s38.833 30.667 49.5 54c12 24.667 18.167 52.167 18.5 82.5s-4.16699 59.166 -13.5 86.499s-23.5 52.666 -42.5 75.999
s-40.5 40.666 -64.5 51.999c-15.333 7.33301 -28.666 11.666 -39.999 12.999c-11.333 2 -28 3.33301 -50 4h-2c-0.666992 0 -1.66699 -0.166992 -3 -0.5s-3 -0.833008 -5 -1.5c-12.667 -1.33301 -21 2.33398 -25 11.001c-2.66699 4.66699 -3.33398 9.16699 -2.00098 13.5
s4.33301 7.5 9 9.5c2.66699 2 6.33398 3 11.001 3h7c2 0.666992 3.33301 1 4 1c23.333 4.66699 47.333 12.667 72 24c38 16.667 66 31.667 84 45c28 22 40.333 44.667 37 68c-2.66699 20 -17 35.333 -43 46c-26 11.333 -59.667 17.333 -101 18
c-38 0.666992 -75 -2.66602 -111 -9.99902c-35.333 -7.33301 -60 -16.666 -74 -27.999c-8 -6 -15 -5 -21 3s-5 15 3 21z" />
    <glyph glyph-name="four" unicode="4" horiz-adv-x="412" 
d="M55 259c2 -0.666992 4.33398 -1.33203 7.00098 -1.99902c8.66699 -2 19.667 -3.33301 33 -4c24.667 -1.33301 56.667 -1.33301 96 0c7.33301 0 14.666 0.333008 21.999 1v62c0.666992 27.333 2.66699 70.666 6 129.999s5 102 5 128v98l-20 -48
c-2.66699 -7.33301 -8.66699 -21.666 -18 -42.999l-34 -79l-36 -82c-21.333 -50 -37.333 -89 -48 -117c-6 -16.667 -10 -29.334 -12 -38.001c-0.666992 -2.66699 -1 -4.66699 -1 -6zM243.001 225.002c0 -16 0.500977 -50.3301 1.50098 -102.997s1.5 -93.334 1.5 -122.001
c0 -10 -5 -15 -15 -15s-15 5 -15 15c0 28.667 -0.5 69.334 -1.5 122.001s-1.5 86.667 -1.5 102c-7.33301 -0.666992 -14.333 -1 -21 -1c-40.667 -1.33301 -73.667 -1.33301 -99 0c-14.667 1.33301 -27 3 -37 5c-12.667 2.66699 -21.667 6.33398 -27 11.001
c-4 4.66699 -5.66699 10.667 -5 18c0.666992 4 1.66699 9 3 15c2.66699 10 7 23.667 13 41c8.66699 23.333 24.667 62.666 48 117.999l36 83l34 78c9.33301 20.667 15.333 34.667 18 42l29 70c5.33301 13.333 9.66602 23.666 12.999 30.999c2 4.66699 3.66699 8 5 10l3 5
c0.666992 0.666992 1.66699 1.33398 3 2.00098c3.33301 3.33301 7 4.66602 11 3.99902c4.66699 -0.666992 8.33398 -3 11.001 -7c1.33301 -0.666992 2 -1.66699 2 -3c0.666992 -0.666992 1 -1.33398 1 -2.00098v-2v-1v-2v-8v-32v-125c0 -28 -1.66699 -71.333 -5 -130
s-5.33301 -101.334 -6 -128.001v-61c20 0.666992 43.833 2 71.5 4s43.167 3 46.5 3c4 0 7.66699 -1.33301 11 -4s5 -6 5 -10s-1.33301 -7.66699 -4 -11s-6 -5 -10 -5s-19.833 -1 -47.5 -3s-51.834 -3.33301 -72.501 -4z" />
    <glyph glyph-name="five" unicode="5" horiz-adv-x="442" 
d="M112 684c96 12.667 181.331 19.002 255.998 19.002c10 0 15 -5 15 -15s-5 -15 -15 -15c-66.667 0 -145.334 -5.66699 -236.001 -17c-6.66699 -39.333 -11.334 -82 -14.001 -128c-2 -31.333 -2.33301 -56.666 -1 -75.999c2 -20.667 5 -33.334 9 -38.001
c6 -6 13.333 -11.333 22 -16s16.5 -8.33398 23.5 -11.001s16.833 -5.66699 29.5 -9l30 -10c60 -22 106.333 -53.333 139 -94c32.667 -42 44 -93.667 34 -155c-4.66699 -26.667 -17.334 -49.5 -38.001 -68.5s-44.167 -32.5 -70.5 -40.5s-53.166 -11.333 -80.499 -10
c-45.333 1.33301 -80.333 13.666 -105 36.999c-30 28 -37.667 65 -23 111c1.33301 3.33301 3.83301 6 7.5 8s7.33398 2.33301 11.001 1s6.5 -3.83301 8.5 -7.5s2.33301 -7.5 1 -11.5c-10.667 -33.333 -5.66699 -59.666 15 -78.999c19.333 -18.667 48 -28.334 86 -29.001
c38.667 -1.33301 73.5 6.66699 104.5 24s48.833 40.333 53.5 69c8.66699 53.333 -1 98 -29 134s-69.333 63.667 -124 83l-27 8c-13.333 4 -24.166 7.5 -32.499 10.5s-18.166 7.66699 -29.499 14s-20.666 13.5 -27.999 21.5c-8.66699 9.33301 -14.334 28 -17.001 56
c-1.33301 20.667 -1 47.334 1 80.001c2.66699 45.333 7.33398 88.666 14.001 129.999c-1.33301 2 -2.33301 4.33301 -3 7c-0.666992 4 0.333008 7.66699 3 11s6 5.33301 10 6z" />
    <glyph glyph-name="six" unicode="6" horiz-adv-x="397" 
d="M283 538c4.66699 39.333 0 77.667 -14 115c-16 42 -39.667 68.333 -71 79c-8.66699 2.66699 -14.667 4.33398 -18 5.00098c-5.33301 1.33301 -8.66602 1.33301 -9.99902 0c-7.33301 -4 -13.666 -13.333 -18.999 -28l-7 -21c-2.66699 -10 -5 -17.333 -7 -22
c-13.333 -32.667 -25.833 -78.667 -37.5 -138s-18.5 -118 -20.5 -176c-1.33301 -68 5 -124 19 -168c16 -49.333 41.333 -81 76 -95c14.667 -6 33 -9.33301 55 -10c23.333 -0.666992 39.666 2.66602 48.999 9.99902c24 19.333 40.333 55.333 49 108
c8.66699 50.667 7.66699 96 -3 136c-4.66699 18.667 -11 32.334 -19 41.001c-6.66699 8 -14 11 -22 9c-27.333 -4.66699 -60.666 -44.334 -99.999 -119.001c-19.333 -37.333 -29 -72 -29 -104c0 -10 -5 -15 -15 -15s-15 5 -15 15c0 36.667 11 76 33 118
c44 83.333 84.333 128.333 121 135c18.667 3.33301 35 -3 49 -19c11.333 -12 20 -29.667 26 -53c12 -44.667 13.333 -94.334 4 -149.001c-10.667 -60 -31 -102.333 -61 -127c-14.667 -12 -37.334 -17.333 -68.001 -16c-25.333 0.666992 -47.333 4.66699 -66 12
c-42.667 17.333 -73.334 55.333 -92.001 114c-15.333 48 -22.333 107.333 -21 178c2 60 9 120.333 21 181s25 108.667 39 144c1.33301 2.66699 3.33301 8.66699 6 18c3.33301 10.667 6 18.667 8 24c7.33301 20.667 17.666 35 30.999 43c8.66699 4.66699 19.334 6 32.001 4
l22 -7c40.667 -13.333 70.334 -45.666 89.001 -96.999c15.333 -41.333 20.666 -84.333 15.999 -129c-0.666992 -4 -2.5 -7.33301 -5.5 -10s-6.66699 -3.66699 -11 -3s-7.83301 2.5 -10.5 5.5s-3.66699 6.83301 -3 11.5z" />
    <glyph glyph-name="seven" unicode="7" horiz-adv-x="390" 
d="M41 684c41.333 4 79.666 7.33398 114.999 10.001c28 2 51 3 69 3h26c8.66699 -0.666992 15.334 -2 20.001 -4c6.66699 -3.33301 11.667 -9.33301 15 -18c1.33301 -5.33301 2 -12 2 -20c0.666992 -12 -1 -28 -5 -48c-2 -11.333 -5.33301 -27.333 -10 -48
c-4.66699 -19.333 -7 -29.333 -7 -30c-13.333 -67.333 -21.666 -147 -24.999 -239c30 2 62.667 3.66699 98 5c4.66699 0 8.5 -1.33301 11.5 -4s4.5 -6.16699 4.5 -10.5s-1.33301 -8 -4 -11s-6 -4.5 -10 -4.5c-36.667 -1.33301 -70 -3 -100 -5
c-0.666992 -22 -1 -88.667 -1 -200c0 -10 -5 -15 -15 -15s-15 5 -15 15c0 110.667 0.333008 176.334 1 197.001c-53.333 -4.66699 -101 -11.334 -143 -20.001c-4 -0.666992 -7.66699 0.166016 -11 2.49902s-5.5 5.5 -6.5 9.5s-0.333008 7.66699 2 11
s5.5 5.66602 9.5 6.99902c44 8.66699 93.667 15.334 149 20.001c3.33301 95.333 11.666 178 24.999 248c0.666992 1.33301 3.33398 11.666 8.00098 30.999l10 46c3.33301 18 4.66602 32.333 3.99902 43c0 4.66699 -0.333008 8.33398 -1 11.001c-2 0 -4.66699 0.333008 -8 1
h-24c-17.333 0 -39.666 -1 -66.999 -3c-34.667 -2 -72.334 -5.33301 -113.001 -10c-4.66699 -0.666992 -8.5 0.333008 -11.5 3s-4.83301 6.16699 -5.5 10.5s0.333008 8 3 11s6 4.83301 10 5.5z" />
    <glyph glyph-name="eight" unicode="8" horiz-adv-x="325" 
d="M191 412c10 21.333 16.667 37.001 20 47.001c14.667 41.333 26 83.666 34 126.999c5.33301 27.333 7.66602 50 6.99902 68v8c-46 3.33301 -82.667 2.33301 -110 -3c-24.667 -4 -42.667 -11 -54 -21c-12 -10.667 -16.667 -25.667 -14 -45
c2.66699 -21.333 16.334 -48 41.001 -80l33 -42c13.333 -16 23.333 -29 30 -39zM282 662.001v-7c0.666992 -20 -2 -45 -8 -75c-8 -44.667 -19.667 -88.334 -35 -131.001c-4.66699 -12.667 -14.667 -35 -30 -67c32 -52.667 54.333 -102.334 67 -149.001
c15.333 -57.333 18 -98.666 8 -123.999c-6 -14 -15.5 -26.167 -28.5 -36.5s-27.5 -17.5 -43.5 -21.5c-38 -9.33301 -68.333 -2 -91 22c-20 20.667 -28 51 -24 91c3.33301 30 13.333 66.333 30 109c10 26.667 26 62.334 48 107.001l-23 36
c-5.33301 8.66699 -14.333 21 -27 37c-18 21.333 -29.333 35 -34 41c-28 36.667 -43.667 68.334 -47 95.001c-4 30 4 53.667 24 71c16 14 39 23.667 69 29c27.333 4.66699 62 6 104 4c-3.33301 6 -2.66602 11.667 2.00098 17c6.66699 7.33301 13.667 7.66602 21 0.999023
c6 -5.33301 10.333 -12.333 13 -21c4 -0.666992 7.16699 -2.5 9.5 -5.5s3.5 -6.5 3.5 -10.5c-0.666992 -5.33301 -3.33398 -9.33301 -8.00098 -12zM194 350.001c-16 -33.333 -29 -62.667 -39 -88c-16 -40.667 -25.333 -74.334 -28 -101.001
c-3.33301 -30.667 2 -53.334 16 -68.001c14.667 -15.333 35 -19.666 61 -12.999c26.667 6.66699 44 20.334 52 41.001c8 19.333 5.33301 54 -8 104c-10.667 39.333 -28.667 81 -54 125z" />
    <glyph glyph-name="nine" unicode="9" horiz-adv-x="376" 
d="M291 617c-14.667 24 -33.334 43.332 -56.001 57.999c-26 17.333 -49.667 23.333 -71 18c-25.333 -6.66699 -44.666 -28.334 -57.999 -65.001c-17.333 -47.333 -24 -86.666 -20 -117.999c3.33301 -31.333 23.333 -54.666 60 -69.999c36 -14.667 68.333 -14.667 97 0
c18.667 10 31.667 34 39 72c2 11.333 5 44.333 9 99v6zM279 430.999c-6.66699 -7.33301 -13.9951 -12.9951 -21.9951 -16.9951c-18.667 -9.33301 -38.834 -14 -60.501 -14s-42.5 4 -62.5 12c-20.667 9.33301 -38.167 22 -52.5 38s-22.833 34.667 -25.5 56
c-4 36.667 3.33301 80.667 22 132c17.333 47.333 43.666 75.333 78.999 84c30 7.33301 61.667 0 95 -22c29.333 -19.333 52.666 -45 69.999 -77c18.667 -34 23.667 -65 15 -93c-1.33301 -3.33301 -3.83301 -6 -7.5 -8s-7.5 -2.33301 -11.5 -1
c-0.666992 0 -1.33398 0.333008 -2.00098 1c-0.666992 -4 -1.66699 -15.667 -3 -35l-3 -44c-0.666992 -6.66699 -2.16699 -31.5 -4.5 -74.5s-4.33301 -71.833 -6 -86.5s-4.83398 -38.334 -9.50098 -71.001s-11 -61.167 -19 -85.5s-18 -48.166 -30 -71.499
c-4 -8.66699 -10.5 -10.834 -19.5 -6.50098s-11.167 11.166 -6.5 20.499c7.33301 15.333 14 31 20 47s11.167 33.5 15.5 52.5s7.83301 35.167 10.5 48.5s5 31.666 7 54.999s3.5 40.166 4.5 50.499s2.16699 29.166 3.5 56.499s2.33301 45 3 53z" />
    <glyph glyph-name="colon" unicode=":" horiz-adv-x="196" 
d="M110 380c-1.33301 -0.666992 -2.66699 -0.998047 -4 -0.998047c0 -1.33301 0.333008 -2.33301 1 -3c2.66699 -10 6 -16.333 10 -19c2.66699 1.33301 6.66699 6.66602 12 15.999c0 2.66699 0.333008 4.66699 1 6h-1c-6.66699 -4.66699 -13 -4.33398 -19 0.999023z
M122.999 410.002c2 0 4.33008 -0.333008 6.99707 -1c12.667 -1.33301 21.334 -6 26.001 -14c6.66699 -10 6.33398 -22 -0.999023 -36c-14 -28 -30.333 -38 -49 -30c-13.333 5.33301 -22.666 18.333 -27.999 39c-1.33301 3.33301 -2.33301 7 -3 11
c-2 1.33301 -3.33301 3.33301 -4 6c-2 6.66699 -0.666992 12.334 4 17.001c1.33301 4 3 7.66699 5 11c6.66699 9.33301 16 11.666 28 6.99902c4.66699 -2 9.66699 -5.33301 15 -10zM116.996 18.002c-6.66699 -6 -14.001 -8.99805 -22.001 -8.99805
c-9.33301 0 -18.666 4.33301 -27.999 13c-10 10.667 -12 21.334 -6 32.001c4.66699 7.33301 12.667 11.666 24 12.999c6 0 12.333 -0.666992 19 -2c2 8 7 11.667 15 11c4 0 7.33301 -1.66699 10 -5s4 -7 4 -11s-0.666992 -8.33301 -2 -13
c2 -2.66699 3.66699 -5.33398 5 -8.00098c4.66699 -8.66699 2.66699 -15.334 -6 -20.001c-4.66699 -2.66699 -9 -3 -13 -1z" />
    <glyph glyph-name="semicolon" unicode=";" horiz-adv-x="191" 
d="M126 382c-0.666992 2.66699 -3.99902 6.66699 -9.99902 12c-2 0 -3.66699 -0.333008 -5 -1c-2 -1.33301 -4.33301 -3.33301 -7 -6c-2 -2 -3 -3.66699 -3 -5c3.33301 -2 8.66602 -3 15.999 -3c4 0.666992 7 1.66699 9 3zM135.001 417l0.999023 -1
c19.333 -16.667 25.333 -32.334 18 -47.001c-5.33301 -12 -17 -18.667 -35 -20c-16 -0.666992 -28.667 3 -38 11c-7.33301 6 -10.666 13.333 -9.99902 22c0 8 3 15.667 9 23s12.333 12.333 19 15c1.33301 0.666992 7.33301 2.33398 18 5.00098c8 2.66699 14 0 18 -8zM51 71
c4 11.333 10.1689 20.8359 18.502 28.5029s16.833 12.5 25.5 14.5c5.33301 0.666992 10 0.5 14 -0.5s7.33301 -3.5 10 -7.5c8.66699 -6.66699 16.334 -18.334 23.001 -35.001c11.333 -31.333 11.833 -59.333 1.5 -84s-29.5 -44.334 -57.5 -59.001
c-8.66699 -4.66699 -15.334 -2.66699 -20.001 6s-2.66699 15.334 6 20.001c21.333 11.333 36 26 44 44c7.33301 18 6.66602 38.333 -2.00098 61c-1.33301 4 -3 7.66699 -5 11v-1c-6 -6 -11.667 -9.66699 -17 -11c-4.66699 -0.666992 -9 -0.333984 -13 0.999023v1
c-4 -8.66699 -10.333 -11.334 -19 -8.00098c-4 1.33301 -6.83301 3.83301 -8.5 7.5s-1.83398 7.5 -0.500977 11.5z" />
    <glyph glyph-name="less" unicode="&#x3c;" horiz-adv-x="576" 
d="M86 376c6.66699 1.33301 14.666 1.33789 23.999 0.00488281c-4.66699 8.66699 -2.66699 15.334 6 20.001l45 26l51 29l47 26c24.667 13.333 42.334 22.666 53.001 27.999l50 23c22 10 40.667 17.333 56 22l50 17c19.333 6 37.666 10.667 54.999 14
c4 0.666992 7.83301 -0.166016 11.5 -2.49902s5.83398 -5.5 6.50098 -9.5s-0.166016 -7.83301 -2.49902 -11.5s-5.5 -5.83398 -9.5 -6.50098c-14.667 -2.66699 -29.5 -6 -44.5 -10s-30.833 -9 -47.5 -15l-43 -17c-12 -4.66699 -27.333 -11.667 -46 -21l-43 -20
c-9.33301 -4.66699 -24.666 -13 -45.999 -25l-41 -23l-44 -25c-23.333 -13.333 -37 -21.333 -41 -24c12 -2.66699 26 -7 42 -13c31.333 -12 70 -30 116 -54c30.667 -16 69.334 -37.5 116.001 -64.5s74 -42.5 82 -46.5c8.66699 -4.66699 10.667 -11.334 6 -20.001
s-11.334 -10.667 -20.001 -6c-8 4 -35.333 19.333 -82 46s-85.334 48 -116.001 64c-45.333 23.333 -83 41 -113 53c-34.667 13.333 -58.667 18.666 -72 15.999c-4.66699 -0.666992 -8.66699 0.166016 -12 2.49902s-5.33301 5.66602 -6 9.99902
s0.166016 8.16602 2.49902 11.499s5.5 5.33301 9.5 6z" />
    <glyph glyph-name="equal" unicode="=" horiz-adv-x="567" 
d="M92 478l58.002 -0.000976562h66c9.33301 0 28.833 -0.333008 58.5 -1s52.167 -2 67.5 -4l58 -7c24 -3.33301 45.667 -7.66602 65 -12.999s38.333 -11.333 57 -18c4 -1.33301 6.83301 -3.83301 8.5 -7.5s1.83398 -7.5 0.500977 -11.5s-3.83301 -6.83301 -7.5 -8.5
s-7.5 -1.83398 -11.5 -0.500977c-18 6.66699 -36.167 12.334 -54.5 17.001s-39.333 8.5 -63 11.5s-42.334 5.5 -56.001 7.5s-35.334 3.33301 -65.001 4s-48.834 1 -57.501 1h-65h-59c-10 0 -15 5 -15 15s5 15 15 15zM98.002 257.999c42 0 105 1 189 3s147 3 189 3
c10 0 15 -5 15 -15s-5 -15 -15 -15c-42 0 -105 -1 -189 -3s-147 -3 -189 -3c-10 0 -15 5 -15 15s5 15 15 15z" />
    <glyph glyph-name="greater" unicode="&#x3e;" horiz-adv-x="507" 
d="M57 135c38 19.333 100 54.666 186 105.999c81.333 48.667 143 82.667 185 102c-24 21.333 -52.167 42.166 -84.5 62.499s-60.833 36.5 -85.5 48.5l-101 48c-42 19.333 -73.333 34.333 -94 45c-8.66699 4 -10.834 10.5 -6.50098 19.5s11.166 11.167 20.499 6.5
c18.667 -9.33301 51 -24.666 97 -45.999l109 -52c26.667 -13.333 57.834 -31.833 93.501 -55.5s66.167 -47.834 91.5 -72.501c6.66699 -7.33301 6.66699 -14.666 0 -21.999c-4.66699 -4.66699 -10.334 -5.66699 -17.001 -3c-1.33301 -1.33301 -3 -2.66602 -5 -3.99902
c-46.667 -21.333 -109 -55.333 -187 -102c-90 -54 -152.667 -89.667 -188 -107c-9.33301 -4.66699 -16.166 -2.5 -20.499 6.5s-2.16602 15.5 6.50098 19.5z" />
    <glyph glyph-name="question" unicode="?" horiz-adv-x="417" 
d="M176 29l-17 19.002l-31 37c-12.667 15.333 -21.667 29 -27 41c-8.66699 16.667 -11.667 31 -9 43c2.66699 8.66699 6.66699 15.334 12 20.001c5.33301 5.33301 12.333 8 21 8c10.667 -0.666992 22.667 -6.33398 36 -17.001s25 -23.334 35 -38.001
c8 9.33301 16.667 18 26 26c14 12 27 19.667 39 23c18 6 31.667 2 41 -12c10.667 -14.667 12 -32 4 -52c-6 -14.667 -16.333 -30 -31 -46c-19.333 -20 -41 -37.333 -65 -52c-0.666992 -4.66699 -2.66699 -8.33398 -6 -11.001c-7.33301 -6 -14.333 -5 -21 3l-1 1
c-2.66699 2 -4.66699 4.33301 -6 7zM124 167.002c-1.33301 -1.33301 -2.00391 -3.33203 -2.00391 -5.99902c-1.33301 -4.66699 0.5 -12 5.5 -22s12.833 -21.667 23.5 -35c8 -10 18.333 -22 31 -36l12 -14c21.333 13.333 41 29.333 59 48c12.667 13.333 21 25.333 25 36
c4 10 4 18.333 0 25c-1.33301 1.33301 -4 1.33301 -8 0c-8 -2.66699 -17.333 -8.66699 -28 -18c-10.667 -8.66699 -20 -18.334 -28 -29.001c-7.33301 -9.33301 -11.333 -16 -12 -20s-2.66699 -7.16699 -6 -9.5s-7.16602 -3.16602 -11.499 -2.49902
s-7.66602 2.66699 -9.99902 6s-3.16602 7.16602 -2.49902 11.499s2.33398 8.83301 5.00098 13.5c-6 14 -17.667 28 -35 42c-8 6.66699 -14 10 -18 10zM29.9961 637.003c32 24 66.9951 43 104.995 57c27.333 10 55.333 17 84 21c20 2.66699 36.333 4.16699 49 4.5
s27.834 -2.5 45.501 -8.5s32.5 -16.333 44.5 -31c22.667 -28 29.667 -58 21 -90c-6.66699 -24 -23 -50.333 -49 -79c-8.66699 -9.33301 -32 -32 -70 -68c-26.667 -24.667 -43.667 -43.667 -51 -57c-11.333 -20 -11 -54.333 1 -103c0.666992 -4.66699 0 -8.66699 -2 -12
s-5.16699 -5.5 -9.5 -6.5s-8.16602 -0.5 -11.499 1.5s-5.66602 5 -6.99902 9c-13.333 56.667 -12.333 98.334 3 125.001c9.33301 16 28 37.667 56 65c38 35.333 61 57.333 69 66c22.667 25.333 36.667 47.666 42 66.999c6 22 0.666992 43.333 -16 64
c-11.333 14 -27.166 22.5 -47.499 25.5s-41.5 2.16699 -63.5 -2.5c-27.333 -3.33301 -53.333 -9.66602 -78 -18.999c-35.333 -12.667 -67.666 -30.334 -96.999 -53.001c-8 -6 -15 -5 -21 3s-5 15 3 21z" />
    <glyph glyph-name="at" unicode="@" horiz-adv-x="615" 
d="M354 386c-9.33301 8.66699 -15.999 17.667 -19.999 27c-6.66699 15.333 -6.33398 29 0.999023 41c0.666992 0.666992 1.33398 1.66699 2.00098 3c-16 5.33301 -33.333 3.66602 -52 -5.00098c-20.667 -9.33301 -34.667 -23 -42 -41c-7.33301 -18.667 -4.33301 -37 9 -55
c6.66699 -9.33301 17.334 -15 32.001 -17c19.333 -3.33301 34.666 -3 45.999 1c11.333 4.66699 18.666 14.334 21.999 29.001c1.33301 5.33301 2 11 2 17zM382.001 363c-6 -25.333 -19.9951 -42.3223 -41.9951 -50.9893c-16 -6 -36 -7 -60 -3c-22.667 4 -40 13.667 -52 29
c-20.667 27.333 -25 55.666 -13 84.999c10.667 25.333 30 44 58 56c28.667 13.333 55.667 14.333 81 3c30 -12.667 49.667 -39.334 59 -80.001c2 -8.66699 -1.33301 -14.334 -10 -17.001c19.333 -12.667 39.666 -21.667 60.999 -27c32 -8.66699 55.667 -6.66699 71 6
c18 15.333 21 46.333 9 93c-6 26.667 -22.333 53.5 -49 80.5s-58 49.167 -94 66.5c-37.333 18.667 -73 29 -107 31s-63.667 -5.33301 -89 -22c-32 -23.333 -58.833 -56.833 -80.5 -100.5s-35.5 -87.834 -41.5 -132.501c-6.66699 -54.667 -6.66699 -103.667 0 -147
s19 -81.166 37 -113.499s39 -58.666 63 -78.999s50.333 -34.5 79 -42.5c22 -5.33301 44 -7.83301 66 -7.5s43.833 6.16602 65.5 17.499s41.5 26 59.5 44s34.167 42 48.5 72s24.833 64.333 31.5 103c0.666992 4 2.83398 7.16699 6.50098 9.5s7.5 3.16602 11.5 2.49902
s7.16699 -2.83398 9.5 -6.50098s3.16602 -7.5 2.49902 -11.5c-7.33301 -40.667 -18.833 -77.334 -34.5 -110.001s-33.667 -59.334 -54 -80.001s-42.833 -37.334 -67.5 -50.001s-49.834 -19.5 -75.501 -20.5s-51.834 1.83301 -78.501 8.5
c-32.667 9.33301 -62.5 25.666 -89.5 48.999s-50.167 52.166 -69.5 86.499s-32.833 75.666 -40.5 123.999s-7.83398 100.166 -0.500977 155.499c6.66699 48 21.667 95.5 45 142.5s53 83.833 89 110.5c20 14.667 43.333 23.667 70 27s53 2 79 -4s52 -15.667 78 -29
c39.333 -19.333 73.833 -44 103.5 -74s48.5 -60.667 56.5 -92c14 -59.333 7.33301 -100.666 -20 -123.999c-22.667 -19.333 -55.334 -23.333 -98.001 -12c-26 6.66699 -50.667 18 -74 34z" />
    <glyph glyph-name="A" unicode="A" horiz-adv-x="320" 
d="M77 42c3.33301 64 4.99512 154.669 4.99512 272.002c0.666992 116 1.66699 194.667 3 236s4 73.333 8 96c4 22 9.66699 39 17 51c11.333 18 25.666 25.667 42.999 23c12.667 -2 23.334 -12 32.001 -30c6 -11.333 11.667 -27 17 -47c6.66699 -26 12 -54.667 16 -86
l18 -159c8.66699 -72 16.834 -135.667 24.501 -191s15.834 -108 24.501 -158c0.666992 -4.66699 -0.166016 -8.66699 -2.49902 -12s-5.66602 -5.33301 -9.99902 -6s-8.16602 0.166016 -11.499 2.49902s-5.33301 5.5 -6 9.5c-10.667 64.667 -21.667 140 -33 226
c-2.66699 0 -11 -1.33301 -25 -4s-23.833 -4.33398 -29.5 -5.00098s-14 -1.5 -25 -2.5s-21.167 -1.16699 -30.5 -0.5c0 -86 -1.66699 -158.333 -5 -217c0 -4 -1.66699 -7.33301 -5 -10s-7 -4 -11 -4s-7.33301 1.66699 -10 5s-4 7 -4 11zM112.995 287.002
c8 -0.666992 17 -0.499023 27 0.500977s17.833 1.83301 23.5 2.5s15.167 2.16699 28.5 4.5s22.333 3.83301 27 4.5c-2.66699 16.667 -7.66699 55 -15 115l-16 139c-4 30.667 -9 58 -15 82c-4.66699 18 -9.66699 32 -15 42c-1.33301 3.33301 -2.83301 6.16602 -4.5 8.49902
s-2.83398 3.83301 -3.50098 4.5h-1c-4.66699 0.666992 -9 -2.33301 -13 -9c-5.33301 -8.66699 -9.66602 -22 -12.999 -40c-4 -21.333 -6.66699 -51.666 -8 -90.999c-1.33301 -38.667 -2 -126.334 -2 -263.001z" />
    <glyph glyph-name="B" unicode="B" horiz-adv-x="491" 
d="M105 332c1.33301 -15.333 4.33398 -54.998 9.00098 -118.998s8 -113.333 10 -148c5.33301 6 11.333 7 18 3c17.333 -9.33301 40.666 -16 69.999 -20c30 -3.33301 60.667 -3 92 1c32.667 4 59.667 12.333 81 25c21.333 13.333 34.333 30.333 39 51
c2 9.33301 2 29.333 0 60c-3.33301 45.333 -12 77.666 -26 96.999c-32.667 45.333 -86.667 65.666 -162 60.999c-8.66699 -0.666992 -35.667 -4 -81 -10c-14 -2 -24.667 -3 -32 -3s-13.333 0.666992 -18 2zM91.001 668.002c0.666992 -82.667 4.66699 -182.333 12 -299
c1.33301 0.666992 2.33301 1.33398 3 2.00098l2 1c30 26.667 51.667 47.334 65 62.001c4 4 13.667 14.333 29 31l33 37l28 34c11.333 13.333 20.5 25.666 27.5 36.999s12.5 22 16.5 32c10 24 8.33301 41.333 -5 52c-20 15.333 -61.667 21.666 -125 18.999
c-30 -1.33301 -58.667 -4 -86 -8zM141.001 361.003c2.66699 0.666992 6.00098 0.999023 10.001 0.999023c46 6.66699 73.667 10.334 83 11.001c86.667 5.33301 149.334 -19 188.001 -73c17.333 -24.667 28 -62.334 32 -113.001c2.66699 -33.333 2.66699 -56 0 -68
c-6.66699 -29.333 -23.5 -52.166 -50.5 -68.499s-58.833 -26.833 -95.5 -31.5c-33.333 -4 -66.5 -4 -99.5 0s-59.833 11.667 -80.5 23c-1.33301 0.666992 -2.33301 1.33398 -3 2.00098c0 -4 -1.33301 -7.66699 -4 -11s-6 -5 -10 -5s-7.66699 1.33301 -11 4s-5 6 -5 10
c-2.66699 40.667 -7.16699 105.334 -13.5 194.001s-11.166 166.834 -14.499 234.501s-5.33301 132.5 -6 194.5c-4.66699 2 -7.66699 5.66699 -9 11c-0.666992 4 0.166016 7.83301 2.49902 11.5s5.5 5.83398 9.5 6.50098h2c2.66699 2.66699 6 4 10 4c2 0 4 -0.333008 6 -1
c29.333 4.66699 60.333 7.66699 93 9c71.333 3.33301 119.666 -5.33398 144.999 -26.001c25.333 -19.333 30.333 -48 15 -86c-4.66699 -11.333 -10.834 -23.333 -18.501 -36s-17.5 -26.334 -29.5 -41.001s-22 -26.334 -30 -35.001l-35 -38
c-14.667 -16.667 -23.667 -26.667 -27 -30c-13.333 -14.667 -31.333 -32.334 -54 -53.001z" />
    <glyph glyph-name="C" unicode="C" horiz-adv-x="389" 
d="M316 521c2 14.667 -0.166016 34.3311 -6.49902 58.998s-15.166 46.334 -26.499 65.001c-12.667 19.333 -25.667 31 -39 35c-14.667 4.66699 -30.334 -1 -47.001 -17c-26 -24.667 -48 -72 -66 -142c-14.667 -57.333 -23.334 -112.333 -26.001 -165
c-4.66699 -88.667 7.33301 -159 36 -211c10 -17.333 22.167 -32.333 36.5 -45s28.833 -20.667 43.5 -24c33.333 -8 60.333 6 81 42l6 12c2 4.66699 3.66699 9.66699 5 15s2.5 9.66602 3.5 12.999s1.83301 8.5 2.5 15.5s1.16699 11.667 1.5 14s1 7.83301 2 16.5
s1.5 14 1.5 16c0.666992 4 2.5 7.33301 5.5 10s6.66699 3.66699 11 3s7.83301 -2.5 10.5 -5.5s3.66699 -6.83301 3 -11.5c0 -2 -0.5 -6.83301 -1.5 -14.5s-1.66699 -13.167 -2 -16.5s-1 -8.66602 -2 -15.999s-2 -13.166 -3 -17.499s-2.33301 -9.5 -4 -15.5
s-3.66699 -11.667 -6 -17s-4.83301 -10.333 -7.5 -15c-14 -24.667 -31 -41.667 -51 -51s-41 -11.333 -63 -6c-19.333 4.66699 -37.833 14.5 -55.5 29.5s-32.167 33.167 -43.5 54.5c-31.333 56.667 -44.666 132.334 -39.999 227.001c2.66699 54 11.667 110.667 27 170
c19.333 75.333 44.333 127.666 75 156.999c24.667 24 49.667 32 75 24c20.667 -6 39.334 -22 56.001 -48c13.333 -21.333 23.666 -46 30.999 -74s9.66602 -51.333 6.99902 -70c-0.666992 -4 -2.66699 -7.33301 -6 -10s-7 -3.66699 -11 -3s-7.33301 2.66699 -10 6
s-3.66699 7 -3 11z" />
    <glyph glyph-name="D" unicode="D" horiz-adv-x="472" 
d="M132 647c0 -48.667 1.66797 -97.668 5.00098 -147.001s9 -113.333 17 -192l15 -146c1.33301 -12 4.66602 -29.667 9.99902 -53c2.66699 -12.667 4.66699 -21.334 6 -26.001c60.667 22.667 109.667 50.834 147 84.501s60.666 78.834 69.999 135.501
c8 44 6.83301 84.667 -3.5 122s-28.333 69.833 -54 97.5s-55.167 51.5 -88.5 71.5s-71.666 37.333 -114.999 52l-9 3v-2zM-45.999 690.999c44 18.667 109.665 13.001 196.998 -16.999c44.667 -15.333 84.667 -33.5 120 -54.5s67.333 -46.667 96 -77
s48.834 -66.333 60.501 -108s13.167 -87.5 4.5 -137.5c-6 -33.333 -16.5 -63.5 -31.5 -90.5s-34.167 -50 -57.5 -69s-47 -35 -71 -48s-51.333 -25.5 -82 -37.5c0.666992 -4.66699 -0.333008 -8.5 -3 -11.5s-6 -4.83301 -10 -5.5
c-6.66699 -0.666992 -11.667 1.66602 -15 6.99902l-32 -10c-4 -1.33301 -7.83301 -1.16602 -11.5 0.500977s-6.16699 4.5 -7.5 8.5s-1.16602 7.83301 0.500977 11.5s4.5 6.16699 8.5 7.5l36 12c-1.33301 6 -3.33301 16 -6 30c-6 24 -9.66699 43.333 -11 58l-12 118
c-5.33301 52 -9.5 94.5 -12.5 127.5s-5.83301 72.167 -8.5 117.5s-4 86.666 -4 123.999c0 4 1.33301 7.33301 4 10c-62 17.333 -108.667 19.333 -140 6c-9.33301 -4 -16 -1.33301 -20 8s-1.33301 16 8 20z" />
    <glyph glyph-name="E" unicode="E" 
d="M81 671c-0.666992 8.66699 3.33398 14.001 12.001 16.001c4 0.666992 7.66699 -0.166016 11 -2.49902s5.66602 -5.5 6.99902 -9.5c19.333 2.66699 48.333 8 87 16c57.333 12 99.333 19.667 126 23c4 0.666992 7.66699 -0.333008 11 -3s5.33301 -6 6 -10
s-0.333008 -7.66699 -3 -11s-6 -5.33301 -10 -6c-26 -3.33301 -67.333 -10.666 -124 -21.999c-37.333 -8 -66.666 -13.667 -87.999 -17c2 -14 3.5 -29.333 4.5 -46s1.83301 -35 2.5 -55s1.33398 -34.667 2.00098 -44c1.33301 -18.667 3.33301 -45.167 6 -79.5
s4.33398 -54.5 5.00098 -60.5c29.333 3.33301 76 15.333 140 36c4 1.33301 7.83301 1 11.5 -1s6.16699 -4.83301 7.5 -8.5s1 -7.33398 -1 -11.001s-4.66699 -6.16699 -8 -7.5c-66.667 -21.333 -116 -34 -148 -38c1.33301 -22 2.33301 -42.333 3 -61
c0 -9.33301 0.166992 -26 0.5 -50s0.666016 -42.333 0.999023 -55s1.83301 -28.334 4.5 -47.001s6.66699 -35 12 -49c8 -21.333 19.667 -33.333 35 -36c14 -2.66699 31.333 2 52 14c19.333 11.333 37.833 26.5 55.5 45.5s29.5 35.5 35.5 49.5c4 9.33301 10.667 12 20 8
s12 -10.667 8 -20c-7.33301 -17.333 -21 -36.666 -41 -57.999s-41 -38.333 -63 -51c-26.667 -15.333 -51 -21 -73 -17c-26.667 4.66699 -45.667 23 -57 55c-6 15.333 -10.5 33.166 -13.5 53.499s-4.66699 37.333 -5 51s-0.666016 32.834 -0.999023 57.501s-0.5 41 -0.5 49
c-0.666992 18.667 -1.66699 39.667 -3 63c-3.33301 2.66699 -5 6 -5 10s1 7.66699 3 11c-0.666992 9.33301 -2.33398 31.166 -5.00098 65.499s-4.66699 60.833 -6 79.5c-0.666992 11.333 -1.33398 26.666 -2.00098 45.999s-1.5 37 -2.5 53s-2.5 30.667 -4.5 44
c-2.66699 0 -5.33398 -0.333008 -8.00098 -1c-4.66699 -0.666992 -8.5 0.333008 -11.5 3s-4.83301 6.16699 -5.5 10.5s0.333008 8 3 11s6 4.83301 10 5.5z" />
    <glyph glyph-name="F" unicode="F" horiz-adv-x="450" 
d="M108 396c0 89.333 -3.99707 165.667 -11.9971 229c-18 -2.66699 -35.333 -4.33398 -52 -5.00098c-4 0 -7.66699 1.33301 -11 4s-5 6 -5 10s1.33301 7.66699 4 11s6 5 10 5c16 0.666992 32.667 2.33398 50 5.00098v1c-0.666992 4 0.333008 7.66699 3 11s6 5.33301 10 6
s7.66699 -0.333008 11 -3s5.33301 -6 6 -10v-1c13.333 2 45.666 7.33301 96.999 16c76.667 13.333 137 20 181 20c10 0 15 -5 15 -15s-5 -15 -15 -15c-40.667 0 -99.334 -6.66699 -176.001 -20c-50 -8.66699 -82.667 -14 -98 -16c8 -62.667 12 -137.667 12 -225
c44 11.333 102 17.666 174 18.999c4 0 7.5 -1.33301 10.5 -4s4.5 -6.16699 4.5 -10.5s-1.33301 -8 -4 -11s-6.33398 -4.5 -11.001 -4.5c-72.667 -1.33301 -130.667 -8 -174 -20c0 -20 -0.333008 -52.667 -1 -98s-1 -80 -1 -104c0 -11.333 -0.333008 -29.166 -1 -53.499
s-0.833984 -45.333 -0.500977 -63s1.5 -34.5 3.5 -50.5c0.666992 -4 -0.333008 -7.66699 -3 -11s-6 -5.33301 -10 -6s-7.66699 0.333008 -11 3s-5.33301 6 -6 10c-2 16.667 -3.16699 34.5 -3.5 53.5s-0.166016 41 0.500977 66s1 42.167 1 51.5c0 24 0.333008 58 1 102
s1 74.333 1 91c-6 -2 -12 -4.33301 -18 -7c-9.33301 -4 -16 -1.33301 -20 8s-1.33301 16 8 20c10 4 20 7.66699 30 11z" />
    <glyph glyph-name="G" unicode="G" horiz-adv-x="446" 
d="M241 523c14 26 18.666 54.1689 13.999 84.502s-16 55.5 -34 75.5c-16.667 18.667 -34 26.334 -52 23.001c-22.667 -4.66699 -43.667 -26 -63 -64c-16 -33.333 -29.167 -76.5 -39.5 -129.5s-16.166 -108.5 -17.499 -166.5c-2 -60 1.66699 -115.833 11 -167.5
s23.666 -93.167 42.999 -124.5c16 -26.667 36.667 -39.667 62 -39c32.667 0.666992 57 27 73 79c9.33301 28 15 61 17 99c-4.66699 4 -6.66699 9 -6 15c0.666992 1.33301 1 2.66602 1 3.99902c-45.333 2.66699 -77.666 9.66699 -96.999 21c-7.33301 4 -11.333 6.33301 -12 7
c-10.667 8 -13.334 17 -8.00098 27c2 4 5 7 9 9l8 2c5.33301 0.666992 11.333 1 18 1c15.333 0 31 -2 47 -6c19.333 -4.66699 34.666 -11.667 45.999 -21c3.33301 -3.33301 6.33301 -7 9 -11h4c7.33301 0 21 -0.166992 41 -0.5s36.333 -0.833008 49 -1.5s24 -1.66699 34 -3
c4 -0.666992 7.33301 -2.66699 10 -6s3.66699 -7 3 -11s-2.66699 -7.33301 -6 -10s-7 -3.66699 -11 -3c-12 2 -48 3.66699 -108 5c-1.33301 -48 -7.66602 -90 -18.999 -126c-20.667 -65.333 -54.667 -98.666 -102 -99.999c-18 -0.666992 -34.667 4.16602 -50 14.499
s-28 23.166 -38 38.499c-42 68.667 -61.333 171.667 -58 309c1.33301 59.333 7.33301 116.666 18 171.999c10.667 54.667 25 100.334 43 137.001c22.667 46 50.334 72.333 83.001 79c29.333 6 56.333 -4.66699 81 -32c21.333 -24.667 34.833 -55 40.5 -91
s-0.166016 -71 -17.499 -105c-5.33301 -8.66699 -12.333 -10.334 -21 -5.00098s-10.334 12.333 -5.00098 21z" />
    <glyph glyph-name="H" unicode="H" horiz-adv-x="346" 
d="M44 290c12 -0.666992 24.999 0.00195312 38.999 2.00195v71c2 49.333 2.16699 104.5 0.5 165.5s-6.16699 115.5 -13.5 163.5c-0.666992 4 0.333008 7.66699 3 11s6 5.33301 10 6s7.66699 -0.333008 11 -3s5.33301 -6 6 -10c7.33301 -48.667 11.833 -104.167 13.5 -166.5
s1.5 -117.833 -0.5 -166.5v-65c10.667 2.66699 22.667 6.16699 36 10.5s24.666 8.16602 33.999 11.499l38 15l34 13c-1.33301 23.333 -3.33301 45.333 -6 66c-2 20 -6.16699 48 -12.5 84s-11.5 69.667 -15.5 101s-5.33301 60.666 -4 87.999c0 4 1.5 7.33301 4.5 10
s6.66699 4 11 4s7.83301 -1.5 10.5 -4.5s4 -6.83301 4 -11.5c-1.33301 -26 -0.166016 -53.667 3.50098 -83s8.66699 -61.833 15 -97.5s10.833 -64.5 13.5 -86.5c2 -18.667 4 -38.667 6 -60c7.33301 0 12 -3.33301 14 -10c1.33301 -4 1.16602 -7.83301 -0.500977 -11.5
s-4.5 -6.16699 -8.5 -7.5l-3 -1c2 -24 4.33301 -63.667 7 -119c5.33301 -90.667 11 -159.667 17 -207c0.666992 -4 -0.333008 -7.66699 -3 -11s-6 -5.33301 -10 -6s-7.66699 0.333008 -11 3s-5.33301 6 -6 10c-6 48.667 -11.667 118.334 -17 209.001
c-2.66699 52 -4.66699 88.667 -6 110c-70 -27.333 -118.333 -44 -145 -50c0 -90.667 5.33301 -168 16 -232c0.666992 -4 -0.166016 -7.66699 -2.49902 -11s-5.66602 -5.33301 -9.99902 -6s-8.16602 0.166016 -11.499 2.49902s-5.33301 5.83301 -6 10.5
c-10.667 63.333 -16 140.333 -16 231c-14.667 -2 -28.334 -2.66699 -41.001 -2c-4 0 -7.33301 1.5 -10 4.5s-4 6.66699 -4 11s1.5 7.83301 4.5 10.5s6.83301 4 11.5 4z" />
    <glyph glyph-name="I" unicode="I" horiz-adv-x="307" 
d="M139 26c-12 86 -16 229.002 -12 429.002c0 10 1 27.667 3 53s3.33301 44 4 56c1.33301 30 0 54.333 -4 73c-22 -2 -45 -5 -69 -9c-4 -0.666992 -7.66699 0.333008 -11 3s-5.33301 6 -6 10s0.333008 7.66699 3 11s6 5.33301 10 6c22 3.33301 43 6 63 8
c-0.666992 7.33301 2.33301 12.666 9 15.999c8.66699 4 15.334 1.33301 20.001 -8l2 -4c37.333 3.33301 72.666 5 105.999 5c10 0 15 -5 15 -15s-5 -15 -15 -15c-30.667 0 -63 -1.66699 -97 -5c4 -20.667 5.33301 -46.334 4 -77.001c-0.666992 -12.667 -2 -32 -4 -58
s-3 -42.667 -3 -50c-4 -201.333 0.333008 -344.333 13 -429h67c10 0 15 -5 15 -15s-5 -15 -15 -15c-96 0 -165 -1.33301 -207 -4c-4 0 -7.66699 1.33301 -11 4s-5 6 -5 10s1.33301 7.66699 4 11s6 5 10 5c32 2 69 3.33301 111 4z" />
    <glyph glyph-name="J" unicode="J" horiz-adv-x="296" 
d="M4 703l235.996 0.00195312c10 0 15 -5 15 -15c0 -4 -1.33301 -7.33301 -4 -10c2 -19.333 3.16699 -39.833 3.5 -61.5s0.333008 -45.5 0 -71.5s-0.5 -45.667 -0.5 -59c0 -8 1.33301 -42.333 4 -103s3.66699 -108.334 3 -143.001c-2.66699 -110 -21.667 -190.333 -57 -241
c-16.667 -23.333 -37.167 -38.5 -61.5 -45.5s-47.166 -5.83301 -68.499 3.5c-22 8.66699 -40.833 23 -56.5 43s-25.167 42.333 -28.5 67c-4.66699 37.333 0.333008 83 15 137c0.666992 4 2.83398 7 6.50098 9s7.5 2.5 11.5 1.5s7 -3.33301 9 -7s2.33301 -7.5 1 -11.5
c-13.333 -50 -17.666 -91.667 -12.999 -125c2.66699 -19.333 10.167 -36.833 22.5 -52.5s26.833 -26.834 43.5 -33.501c15.333 -6.66699 31.833 -7.5 49.5 -2.5s32.834 16.5 45.501 34.5c31.333 45.333 48.333 120 51 224c0.666992 34.667 -0.333008 82 -3 142
s-4 94.333 -4 103c0 14.667 0.166992 34.667 0.5 60s0.333008 48.333 0 69s-1.5 40 -3.5 58h-217c-10 0 -15 5 -15 15s5 15 15 15z" />
    <glyph glyph-name="K" unicode="K" horiz-adv-x="651" 
d="M471 701c-14.667 -20.667 -30.999 -41.3311 -48.999 -61.998s-39.667 -44.334 -65 -71.001s-43 -45.667 -53 -57c-36 -40.667 -86.667 -109.334 -152 -206.001c-1.33301 -2.66699 -3.66602 -4.66699 -6.99902 -6l163 -91c42.667 -24.667 92.834 -55.834 150.501 -93.501
s108.5 -74.167 152.5 -109.5c7.33301 -6.66699 7.83301 -13.834 1.5 -21.501s-13.5 -8.5 -21.5 -2.5c-60.667 50 -126.5 96.833 -197.5 140.5s-156.167 92.834 -255.5 147.501c8.66699 -94 22 -170.333 40 -229c1.33301 -3.33301 1 -6.83301 -1 -10.5
s-4.83301 -6.16699 -8.5 -7.5s-7.33398 -1 -11.001 1s-6.16699 5 -7.5 9c-12.667 40 -22.334 81.833 -29.001 125.5s-12.667 96.5 -18 158.5c-5.33301 59.333 -9.33301 101 -12 125c-2 17.333 -8.66699 62 -20 134c-8.66699 55.333 -14 100.333 -16 135
c0 4 1.33301 7.66699 4 11s6 5 10 5s7.66699 -1.33301 11 -4s5 -6 5 -10c2 -33.333 7.33301 -77.666 16 -132.999c11.333 -72 18 -116.667 20 -134c3.33301 -26 7 -65 11 -117c62 92.667 112 160.334 150 203.001l54 57l63 70c17.333 20 33.333 40.333 48 61
c5.33301 8 12.166 9.16699 20.499 3.5s9.5 -12.834 3.5 -21.501z" />
    <glyph glyph-name="L" unicode="L" horiz-adv-x="485" 
d="M117 732c9.33301 -24 14.332 -62.3311 14.999 -114.998c0 -40 -2.33301 -92.333 -7 -157c-2 -29.333 -5 -64 -9 -104l-8.5 -108c-2.33301 -30 -3.5 -53.667 -3.5 -71c-0.666992 -46 0.333008 -77.333 3 -94c6 -36 19.333 -57.333 40 -64c30.667 -10 77 -12.333 139 -7
c10 1.33301 24.667 3 44 5s30.333 3 33 3c30 3.33301 54 5 72 5c10 0 15 -5 15 -15s-5 -15 -15 -15c-16.667 0 -39.667 -1.33301 -69 -4c-2.66699 -0.666992 -13.667 -2 -33 -4s-34.333 -3.33301 -45 -4c-66 -6 -116.333 -3.33301 -151 8c-32 10 -52 39 -60 87
c-2.66699 18.667 -3.66699 51.667 -3 99c0 18 1.16699 42 3.5 72s5.5 66.167 9.5 108.5s6.66699 77.166 8 104.499c4.66699 63.333 7 115 7 155c-0.666992 49.333 -5 84.333 -13 105c-1.33301 4 -1.16602 7.83301 0.500977 11.5s4.5 6.16699 8.5 7.5
s7.83301 1.16602 11.5 -0.500977s6.16699 -4.5 7.5 -8.5z" />
    <glyph glyph-name="M" unicode="M" horiz-adv-x="431" 
d="M82 22c-7.33301 20 -10.666 46.668 -9.99902 80.001c0 8.66699 0.5 21.667 1.5 39s1.5 30 1.5 38c0 184 3.66699 324.667 11 422c0 4 0.5 12.5 1.5 25.5s1.83301 22.167 2.5 27.5l3 27c1.33301 12 2.66602 21.833 3.99902 29.5s3.16602 16.334 5.49902 26.001
s5.16602 18.5 8.49902 26.5v3c0.666992 2.66699 1.33398 4.33398 2.00098 5.00098c1.33301 4 3 7.33301 5 10c4.66699 5.33301 10.334 7.33301 17.001 6c12.667 -2.66699 20 -12.334 22 -29.001c0.666992 -3.33301 1.16699 -7.33301 1.5 -12s0.5 -8 0.5 -10
c4.66699 -16 11.834 -43.333 21.501 -82s17.5 -68.667 23.5 -90c3.33301 -10.667 10.333 -29.667 21 -57c10 -24.667 17 -44.667 21 -60c0.666992 -3.33301 1.66699 -8 3 -14l8 42c16.667 86.667 33 152 49 196c0.666992 2 1.66699 5.33301 3 10l5 17l6 18
c3.33301 11.333 6.33301 19.666 9 24.999c1.33301 4 2.66602 7 3.99902 9c0.666992 2 1.33398 3.66699 2.00098 5c1.33301 1.33301 3 2.66602 5 3.99902c3.33301 2 7.33301 2.66699 12 2c6.66699 -2 11.667 -7.33301 15 -16c2 -5.33301 4 -11.666 6 -18.999
c2 -12.667 3.66699 -29.334 5 -50.001c2 -22.667 3.33301 -50.334 4 -83.001c0.666992 -34 1 -87.5 1 -160.5s0.833008 -137.5 2.5 -193.5s5.16699 -109.667 10.5 -161c0.666992 -4 -0.333008 -7.5 -3 -10.5s-6.16699 -4.83301 -10.5 -5.5s-8 0.333008 -11 3
s-4.83301 6.33398 -5.5 11.001c-5.33301 50.667 -8.83301 104.167 -10.5 160.5s-2.5 121.333 -2.5 195s-0.333008 127.5 -1 161.5c-0.666992 32 -1.66699 58.667 -3 80c-1.33301 10 -2.33301 18.667 -3 26c-7.33301 -24.667 -11.333 -37.334 -12 -38.001
c-15.333 -42.667 -31.333 -106.667 -48 -192l-15 -81l-4 -25c-0.666992 -2.66699 -1.33398 -5 -2.00098 -7c0 -0.666992 -0.166992 -1.33398 -0.5 -2.00098s-0.5 -1.33398 -0.5 -2.00098c0 -1.33301 -0.333008 -2.33301 -1 -3c-2 -3.33301 -5 -5.33301 -9 -6
c-4.66699 -1.33301 -9 -0.666016 -13 2.00098l-4 4c-0.666992 0.666992 -1 1.66699 -1 3l-2 4c0 2 -0.666992 4.66699 -2 8c-1.33301 6 -3 14.667 -5 26c-6 28.667 -9.66699 45 -11 49c-3.33301 14.667 -9.66602 33.667 -18.999 57c-10.667 28 -17.667 48 -21 60
c-6.66699 20.667 -14.667 50.334 -24 89.001l-21 82c-5.33301 -19.333 -10.333 -62 -15 -128c-7.33301 -99.333 -11 -239.333 -11 -420c0 -8 -0.5 -20.833 -1.5 -38.5s-1.5 -30.5 -1.5 -38.5c-0.666992 -30 2 -53.333 8 -70c1.33301 -4 1.16602 -7.83301 -0.500977 -11.5
s-4.5 -6.16699 -8.5 -7.5s-7.83301 -1.16602 -11.5 0.500977s-6.16699 4.5 -7.5 8.5z" />
    <glyph glyph-name="N" unicode="N" horiz-adv-x="426" 
d="M88 13c-2.66699 28 -4.33203 56.9932 -4.99902 86.9932s-0.5 65.333 0.5 106s1.5 69 1.5 85c0 98.667 1 167.334 3 206.001l4 77l6 73.5c2.66699 32.333 6 57.5 10 75.5s9 29.667 15 35v2c0 0.666992 -0.166992 1.83398 -0.5 3.50098s-0.166016 3.16699 0.500977 4.5
c0 4 0.666992 7.66699 2 11c3.33301 7.33301 9 11 17 11s14.333 -4 19 -12c2.66699 -4.66699 5.33398 -10.334 8.00098 -17.001c3.33301 -11.333 6.66602 -26.666 9.99902 -45.999c2.66699 -13.333 6.33398 -38.333 11.001 -75
c1.33301 -8.66699 4.66602 -32.667 9.99902 -72l10 -80c1.33301 -13.333 4.33301 -36.666 9 -69.999s8.66699 -59.666 12 -78.999l12 -69c4.66699 -27.333 9.66699 -53 15 -77c4 -22 12.333 -56.333 25 -103l9 -32c2.66699 25.333 4.83398 61.833 6.50098 109.5
s2.83398 78.167 3.50098 91.5c10 166.667 29.667 338.334 59 515.001c0.666992 4.66699 2.66699 8.16699 6 10.5s7.16602 3.16602 11.499 2.49902s7.66602 -2.66699 9.99902 -6s3.16602 -7 2.49902 -11c-29.333 -175.333 -49 -346.333 -59 -513
c-0.666992 -11.333 -2 -42.333 -4 -93c-2 -52 -4.33301 -91.667 -7 -119c-1.33301 -12 -2.33301 -19 -3 -21c-2 -6.66699 -5 -12 -9 -16c-6.66699 -6.66699 -14.334 -9 -23.001 -7c-2 0.666992 -3.83301 1.5 -5.5 2.5s-2.5 1.83301 -2.5 2.5l-1 1
c-0.666992 1.33301 -1.33398 2.33301 -2.00098 3c0 0.666992 -0.333008 1.33398 -1 2.00098c0 1.33301 -0.333008 3 -1 5c-1.33301 4 -3 9.33301 -5 16l-14 49c-12.667 47.333 -21.334 82.333 -26.001 105l-14 77c-5.33301 27.333 -9.5 50.333 -12.5 69
s-7 45.334 -12 80.001s-8.16699 58 -9.5 70s-4.83301 38.833 -10.5 80.5s-8.83398 65.834 -9.50098 72.501c-4.66699 36 -8 60.667 -10 74c-1.33301 6.66699 -2.66602 12.667 -3.99902 18c-13.333 -57.333 -22.666 -135 -27.999 -233c-2 -38 -3 -106 -3 -204
c0 -17.333 -0.5 -46 -1.5 -86s-1.16699 -74.667 -0.5 -104s2.33398 -57.333 5.00098 -84c0.666992 -4.66699 -0.333008 -8.5 -3 -11.5s-6.16699 -4.83301 -10.5 -5.5s-8 0.333008 -11 3s-4.83301 6 -5.5 10z" />
    <glyph glyph-name="O" unicode="O" horiz-adv-x="371" 
d="M182 702c0.666992 -5.33301 -0.667969 -10 -4.00098 -14c-7.33301 -6.66699 -14.666 -6.66699 -21.999 0c0 0.666992 -0.333008 1.33398 -1 2.00098c-1.33301 -0.666992 -3 -1 -5 -1c-0.666992 -0.666992 -1.66699 -1.33398 -3 -2.00098
c-7.33301 -6.66699 -15.333 -19.667 -24 -39c-5.33301 -12 -16.333 -42.667 -33 -92c-14 -42.667 -25.333 -89.334 -34 -140.001c-8.66699 -52 -13.667 -104.667 -15 -158s3.66699 -100.333 15 -141c10 -34.667 23.667 -64 41 -88c21.333 -30 44 -42.333 68 -37
c32.667 6.66699 60.667 33.667 84 81c20.667 43.333 36.334 99.333 47.001 168c8.66699 64.667 12.167 126.5 10.5 185.5s-7.16699 103.833 -16.5 134.5c-14.667 46 -31.667 82 -51 108c-12.667 16.667 -25.334 27.334 -38.001 32.001c-6.66699 2 -13 2.33301 -19 1z
M147.998 720c21.333 13.333 42.333 16.333 63 9c18 -6 35.333 -20 52 -42c21.333 -29.333 39.666 -68.666 54.999 -117.999c10.667 -32.667 16.834 -79.834 18.501 -141.501s-2.16602 -125.167 -11.499 -190.5c-10.667 -72 -27 -131 -49 -177
c-27.333 -56 -62.333 -88.667 -105 -98c-36.667 -8 -69.667 8.66699 -99 50c-19.333 26.667 -34 59 -44 97c-12.667 43.333 -18.334 93 -17.001 149s6.33301 110.333 15 163c9.33301 51.333 21.333 99.666 36 144.999c16.667 50.667 28 82.334 34 95.001
c10.667 22 21 38 31 48c6.66699 6 13.667 9.66699 21 11z" />
    <glyph glyph-name="P" unicode="P" horiz-adv-x="506" 
d="M132 708c20.667 3.33301 51.001 -2.33105 91.001 -16.998c38 -13.333 76 -31.333 114 -54c40.667 -24.667 73 -49.667 97 -75c28.667 -31.333 41 -60.333 37 -87c-6.66699 -42 -45 -78 -115 -108c-50.667 -21.333 -101 -35 -151 -41
c-4 -0.666992 -7.66699 0.333008 -11 3s-5.33301 6 -6 10s0.333008 7.66699 3 11s6 5.33301 10 6c48 5.33301 95.667 18.333 143 39c60 25.333 92.333 53.333 97 84c2.66699 17.333 -7 38.333 -29 63c-22 23.333 -52.333 46.666 -91 69.999
c-35.333 21.333 -71.333 38.333 -108 51c-35.333 12.667 -61 17.667 -77 15h-4c2 -18.667 3.16699 -37.834 3.5 -57.501s0.333008 -44.334 0 -74.001s-0.5 -48.5 -0.5 -56.5c0 -29.333 -0.666992 -82.833 -2 -160.5s-1.5 -144.167 -0.5 -199.5s3.5 -109 7.5 -161
c0 -4 -1.33301 -7.5 -4 -10.5s-6 -4.66699 -10 -5s-7.5 0.833984 -10.5 3.50098s-4.83301 6 -5.5 10c-4 52 -6.5 105.667 -7.5 161s-0.833008 122.166 0.5 200.499s2 132.166 2 161.499c0 10.667 0.166992 27.834 0.5 51.501s0.5 42.334 0.5 56.001s-0.5 30.167 -1.5 49.5
s-2.83301 37 -5.5 53c-0.666992 4 0.333008 7.66699 3 11s6 5.33301 10 6c8 1.33301 13.333 -2 16 -10c1.33301 0.666992 2.66602 1 3.99902 1z" />
    <glyph glyph-name="Q" unicode="Q" horiz-adv-x="539" 
d="M394 184c-70 111.333 -132.332 231.003 -186.999 359.003l-15 35l-20 45c-22.667 -49.333 -40.5 -99.833 -53.5 -151.5s-20.167 -105.334 -21.5 -161.001s5.66699 -108.167 21 -157.5c10 -32 25.667 -58.333 47 -79s44.666 -33.334 69.999 -38.001
c26 -4.66699 51 -0.333984 75 12.999s44.333 36.333 61 69c9.33301 19.333 17 41.333 23 66zM350.001 604.003c-4.66699 18 -14.668 32.832 -30.001 44.499s-33.333 18.834 -54 21.501c-28.667 3.33301 -52.667 -3 -72 -19c0.666992 -1.33301 14.334 -33.333 41.001 -96
c50 -117.333 106 -226.666 168 -327.999c6.66699 55.333 8.16699 109.166 4.5 161.499s-11.167 102.833 -22.5 151.5c-0.666992 4 0.166016 7.66699 2.49902 11s5.5 5.5 9.5 6.5s7.66699 0.333008 11 -2s5.66602 -5.5 6.99902 -9.5c8 -34.667 14.167 -71.334 18.5 -110.001
s6.16602 -80.334 5.49902 -125.001s-5 -85.334 -13 -122.001c24 -37.333 49 -74.333 75 -111c6 -8.66699 4.83301 -15.834 -3.5 -21.501s-15.166 -4.5 -20.499 3.5l-61 90c-5.33301 -16.667 -11.666 -32 -18.999 -46c-18.667 -38 -43 -65.333 -73 -82s-61.333 -22 -94 -16
c-31.333 6 -59.666 21.333 -84.999 46s-43.666 55.667 -54.999 93c-16.667 52 -24.167 107.333 -22.5 166s9.16699 114.834 22.5 168.501s31.666 105.834 54.999 156.501c4 8.66699 9 16.334 15 23.001c-6.66699 22 -10.334 42.333 -11.001 61c0 4.66699 1.33301 8.5 4 11.5
s6.16699 4.5 10.5 4.5s8 -1.33301 11 -4s4.5 -6 4.5 -10c0.666992 -12.667 2.66699 -26 6 -40c24.667 15.333 53 21.333 85 18c25.333 -3.33301 48.333 -12.666 69 -27.999s34.334 -35.333 41.001 -60c0.666992 -4 0 -7.83301 -2 -11.5s-5 -6 -9 -7s-7.83301 -0.5 -11.5 1.5
s-6.16699 5 -7.5 9z" />
    <glyph glyph-name="R" unicode="R" horiz-adv-x="534" 
d="M81 674c1.33301 6.66699 2.99707 12.334 4.99707 17.001c4 9.33301 10.667 12 20 8s12 -10.667 8 -20c-0.666992 -0.666992 -1 -1.66699 -1 -3c8 -1.33301 22.667 -3.33301 44 -6c27.333 -4 48.666 -8.33301 63.999 -13c28.667 -8 54.334 -17.333 77.001 -28
c68.667 -33.333 101.334 -69 98.001 -107c-2 -27.333 -26 -58.333 -72 -93l-56 -40c-23.333 -16.667 -40 -29.334 -50 -38.001c-28 -25.333 -38 -46.666 -30 -63.999c4.66699 -9.33301 19.667 -20 45 -32c22.667 -10.667 52.334 -22 89.001 -34
c26.667 -8 60.334 -17.5 101.001 -28.5s62.334 -16.833 65.001 -17.5c4 -0.666992 7 -2.83398 9 -6.50098s2.5 -7.5 1.5 -11.5s-3.33301 -7 -7 -9s-7.5 -2.33301 -11.5 -1l-66 17c-40.667 10.667 -74.334 20 -101.001 28c-38.667 12.667 -69.667 24.667 -93 36
c-31.333 14.667 -50.666 29.667 -57.999 45c-15.333 31.333 -3.33301 64.666 36 99.999c12 10.667 29.667 24.334 53 41.001c31.333 22 49.666 35 54.999 39c38.667 29.333 58.667 53.333 60 72c2 24 -24.667 49.333 -80 76c-22 10.667 -46.333 20 -73 28
c-14 4 -34 7.66699 -60 11c-22 2.66699 -37.333 5 -46 7c-0.666992 -13.333 -1 -29.333 -1 -48c0.666992 -34.667 3.33398 -79 8.00098 -133c3.33301 -36 8.33301 -81.667 15 -137s10.334 -88.333 11.001 -99c0 -3.33301 1.66699 -33 5 -89c2 -36.667 4.33301 -65.667 7 -87
c0.666992 -4 -0.333008 -7.66699 -3 -11s-6 -5.33301 -10 -6s-7.66699 0.333008 -11 3s-5.33301 6 -6 10c-2.66699 22 -5 52 -7 90c-2.66699 50.667 -4.33398 80 -5.00098 88c-0.666992 10 -4.33398 42.667 -11.001 98s-11.667 101 -15 137
c-4.66699 54.667 -7.33398 99.667 -8.00098 135c0 25.333 1 46 3 62c-1.33301 2.66699 -1.66602 5.66699 -0.999023 9c0.666992 2 1.66699 3.66699 3 5z" />
    <glyph glyph-name="S" unicode="S" horiz-adv-x="520" 
d="M376 528c14.667 34 12.3311 62.3281 -7.00195 84.9951c-18 20.667 -46.333 34 -85 40c-37.333 6 -72 3.33301 -104 -8c-30.667 -10.667 -47.667 -26.334 -51 -47.001c-4.66699 -26.667 6.66602 -52.334 33.999 -77.001c10.667 -9.33301 26.667 -21 48 -35
s33.666 -22.333 36.999 -25l65 -49c16.667 -12.667 36.834 -30.334 60.501 -53.001s42.5 -44 56.5 -64s26.333 -43.667 37 -71s16.667 -55 18 -83c1.33301 -25.333 -2.33398 -49.666 -11.001 -72.999c-9.33301 -23.333 -24 -42 -44 -56
c-13.333 -9.33301 -28.833 -16.333 -46.5 -21s-32.167 -7.33398 -43.5 -8.00098s-27 -1 -47 -1c-42 0 -80.667 11.167 -116 33.5s-61.666 50.5 -78.999 84.5c-11.333 22.667 -17.666 45.834 -18.999 69.501s4 47.167 16 70.5s30.667 43.333 56 60
c8 6 14.833 4.83301 20.5 -3.5s4.16699 -15.166 -4.5 -20.499c-20.667 -14 -35.834 -30.333 -45.501 -49s-14 -37.5 -13 -56.5s6.5 -37.833 16.5 -56.5c14.667 -29.333 37.334 -53.666 68.001 -72.999s64 -29 100 -29c18.667 0 33.5 0.333008 44.5 1
s23.5 2.83398 37.5 6.50098s26.333 9.16699 37 16.5c15.333 10.667 26.5 25.334 33.5 44.001s10.167 38.334 9.5 59.001c-1.33301 25.333 -6.66602 50.166 -15.999 74.499s-20.5 45.833 -33.5 64.5s-30.5 38.334 -52.5 59.001s-41.5 37.834 -58.5 51.501
s-38.5 29.834 -64.5 48.501l-36 23c-23.333 16 -40.333 29 -51 39c-35.333 32 -50 66.333 -44 103c5.33301 33.333 29 57.333 71 72c36.667 12.667 76.334 15.667 119.001 9c46 -7.33301 80.333 -24.333 103 -51c27.333 -31.333 31.333 -70 12 -116
c-4 -9.33301 -10.667 -12 -20 -8s-12 10.667 -8 20z" />
    <glyph glyph-name="T" unicode="T" horiz-adv-x="604" 
d="M216 599c-2.66699 0 -10.6709 -0.836914 -24.0039 -2.50391s-21.833 -2.83398 -25.5 -3.50098s-11.167 -1.66699 -22.5 -3l-26 -4c-4.66699 -0.666992 -12 -2 -22 -4s-18 -4 -24 -6l-22 -6c-8.66699 -2 -16.667 -4.33301 -24 -7
c-4 -1.33301 -7.83301 -1.16602 -11.5 0.500977s-6.16699 4.5 -7.5 8.5s-1.16602 7.83301 0.500977 11.5s4.5 6.16699 8.5 7.5c8.66699 3.33301 17.667 6.33301 27 9s19.5 5.16699 30.5 7.5s20 4.33301 27 6s17.167 3.33398 30.5 5.00098s22.333 2.83398 27 3.50098
s14.834 2 30.501 4s24.834 3.33301 27.501 4c2.66699 4 6.66699 6.33301 12 7c4.66699 0.666992 8.33398 -0.666016 11.001 -3.99902h1c134 18.667 238.667 28 314 28c10 0 15 -5 15 -15s-5 -15 -15 -15c-73.333 0 -176 -9.33301 -308 -28c5.33301 -68 8 -171 8 -309
c0 -160.667 1.33301 -270 4 -328c0 -4 -1.33301 -7.66699 -4 -11s-6 -5 -10 -5s-7.66699 1.33301 -11 4s-5 6 -5 10c-2.66699 58.667 -4 168.667 -4 330c0 136.667 -2.66699 238.334 -8 305.001z" />
    <glyph glyph-name="U" unicode="U" horiz-adv-x="449" 
d="M103 711c-19.333 -72.667 -30.501 -171.333 -33.501 -296s4.83301 -222 23.5 -292c14 -45.333 39.333 -80.5 76 -105.5s75.667 -28.167 117 -9.5c24 10.667 44.333 45.667 61 105c14.667 52 25 120.333 31 205c4.66699 80.667 6.5 153.667 5.5 219s-3.83301 116 -8.5 152
c-0.666992 4 0.333008 7.66699 3 11s6 5.33301 10 6s7.66699 -0.333008 11 -3s5.33301 -6 6 -10c4.66699 -37.333 7.5 -89.166 8.5 -155.499s-0.833008 -140.166 -5.5 -221.499c-6 -86.667 -16.667 -157 -32 -211c-18.667 -68.667 -44.667 -110.334 -78 -125.001
c-37.333 -16 -72 -18.333 -104 -7s-59.167 29.666 -81.5 54.999s-38.166 54.333 -47.499 87c-20.667 74 -29.334 174.333 -26.001 301s15.333 227.667 36 303c0.666992 4 2.83398 7 6.50098 9s7.5 2.5 11.5 1.5s7 -3.33301 9 -7s2.33301 -7.5 1 -11.5z" />
    <glyph glyph-name="V" unicode="V" horiz-adv-x="332" 
d="M58 706c2 -15.333 6.66895 -35.665 14.002 -60.998c9.33301 -30.667 15.333 -51.667 18 -63c9.33301 -44 24.666 -110.333 45.999 -199l47 -200c6 -29.333 13.667 -61 23 -95l6 -18c3.33301 10.667 7 24.667 11 42c8.66699 36 14.667 66 18 90
c8 53.333 14 111.166 18 173.499s6.33301 115.166 7 158.499s1 102 1 176c0 10 5 15 15 15s15 -5 15 -15c0 -74 -0.333008 -132.667 -1 -176s-3 -96.833 -7 -160.5s-10 -122.167 -18 -175.5c-4 -25.333 -10.333 -56.333 -19 -93c-5.33301 -22.667 -10.333 -40.667 -15 -54
c-2.66699 -8 -5.33398 -14.333 -8.00098 -19c-2 -3.33301 -4 -6 -6 -8c-4 -4 -8.66699 -6 -14 -6c-4.66699 0 -8.33398 1.66699 -11.001 5c-1.33301 1.33301 -2.33301 2.5 -3 3.5s-1.33398 2.5 -2.00098 4.5c-1.33301 2.66699 -2.66602 6.66699 -3.99902 12
c-3.33301 9.33301 -7.33301 21.666 -12 36.999c-9.33301 34.667 -17.333 67 -24 97c-9.33301 44.667 -24.666 111.334 -45.999 200.001l-47 199c-2 10.667 -7.33301 31 -16 61c-8 26 -13.333 47.667 -16 65c-0.666992 4 0.333008 7.66699 3 11s6 5.33301 10 6
s7.66699 -0.333008 11 -3s5.33301 -6 6 -10z" />
    <glyph glyph-name="W" unicode="W" horiz-adv-x="384" 
d="M50 707c2.66699 -21.333 7.33496 -49.3311 14.002 -83.998c8.66699 -42.667 14 -71 16 -85c6.66699 -43.333 13.334 -101.333 20.001 -174c7.33301 -87.333 12.666 -144.666 15.999 -171.999c2 -16.667 8 -45.667 18 -87c4.66699 -19.333 9 -34.666 13 -45.999l1 -4l2 2
c6 8 12.667 19.333 20 34c8 14.667 18.333 37 31 67c0.666992 1.33301 1.33398 3.66602 2.00098 6.99902c1.33301 6.66699 2.33301 10.667 3 12c1.33301 6 3.33301 10.667 6 14c3.33301 3.33301 7 5.66602 11 6.99902c5.33301 0.666992 10 -0.333008 14 -3
c2 -1.33301 4 -3.33301 6 -6c0 -1.33301 0.333008 -2.33301 1 -3c0.666992 -2 1.66699 -4.33301 3 -7l8 -21l21 -58c9.33301 -22 17.666 -37.667 24.999 -47c0.666992 -1.33301 1.66699 -2.33301 3 -3c3.33301 6 6.33301 16.333 9 31c2.66699 17.333 4.66699 40 6 68
c1.33301 46.667 0.333008 109.667 -3 189c-1.33301 31.333 -5.33301 97 -12 197c-4.66699 70.667 -7 114 -7 130c0 10 5 15 15 15s15 -5 15 -15c0 -15.333 2.33301 -58 7 -128c6.66699 -96 10.667 -161.667 12 -197c3.33301 -80.667 4.33301 -145 3 -193
c-1.33301 -28.667 -3.66602 -52.334 -6.99902 -71.001c-3.33301 -22.667 -8.66602 -38.334 -15.999 -47.001c-8 -10 -17.333 -13.333 -28 -10c-7.33301 2 -14.333 7.33301 -21 16c-8.66699 11.333 -18 29.333 -28 54c-6 13.333 -13 31.666 -21 54.999
c-12 -28 -22.333 -50.333 -31 -67s-16.334 -29.334 -23.001 -38.001c-4.66699 -6 -9.33398 -10.667 -14.001 -14c-6.66699 -5.33301 -13.334 -7.66602 -20.001 -6.99902c-4.66699 0.666992 -8.66699 3.33398 -12 8.00098c-1.33301 2 -2.66602 4.33301 -3.99902 7
c-1.33301 4 -3.33301 9.66699 -6 17c-4 12 -8.33301 28 -13 48c-10.667 43.333 -17 73.333 -19 90c-2.66699 25.333 -8 83.333 -16 174c-6.66699 74.667 -13.334 132 -20.001 172c-2 13.333 -7.33301 41 -16 83c-6.66699 35.333 -11.334 64 -14.001 86
c-0.666992 4 0.333008 7.66699 3 11s6 5.33301 10 6s7.66699 -0.333008 11 -3s5.33301 -6 6 -10z" />
    <glyph glyph-name="X" unicode="X" horiz-adv-x="350" 
d="M307 710c-17.333 -41.333 -39.3291 -100.831 -65.9961 -178.498s-43.667 -126.167 -51 -145.5l-2 -7c51.333 -139.333 93.333 -248.333 126 -327c1.33301 -4 1.16602 -8 -0.500977 -12s-4.33398 -6.66699 -8.00098 -8s-7.5 -1.16602 -11.5 0.500977
s-6.66699 4.16699 -8 7.5c-31.333 76 -70 176 -116 300l-7 -15c-14 -29.333 -22.667 -48.666 -26 -57.999l-42 -115c-19.333 -54.667 -34.666 -96.334 -45.999 -125.001c-1.33301 -3.33301 -4 -5.83301 -8 -7.5s-7.83301 -1.83398 -11.5 -0.500977s-6.33398 4 -8.00098 8
s-1.83398 8 -0.500977 12c12 28 27.5 69.167 46.5 123.5s32.833 92.5 41.5 114.5c5.33301 13.333 14.333 33.666 27 60.999c8.66699 18 15 32 19 42l-18 50l-33 84c-17.333 44.667 -30.833 81.5 -40.5 110.5s-18.167 58.5 -25.5 88.5
c-0.666992 4 0.166016 7.66699 2.49902 11s5.5 5.5 9.5 6.5s7.66699 0.333008 11 -2s5.66602 -5.5 6.99902 -9.5c6.66699 -28.667 14.834 -57.167 24.501 -85.5s23 -64.333 40 -108s27.833 -72.167 32.5 -85.5l7 -17l32 94l39 111c12 33.333 24 64.666 36 93.999
c4 9.33301 10.667 12 20 8s12 -10.667 8 -20z" />
    <glyph glyph-name="Y" unicode="Y" 
d="M366 695c2 -21.333 0.831055 -43.499 -3.50195 -66.499s-9.33301 -43 -15 -60s-15.5 -37.5 -29.5 -61.5s-24.833 -41.833 -32.5 -53.5s-20.5 -30.167 -38.5 -55.5l-35 -49c-1.33301 -2 -3 -3.33301 -5 -4c0 -36.667 -1.16699 -91.5 -3.5 -164.5
s-3.5 -128.167 -3.5 -165.5c0 -10 -5 -15 -15 -15s-15 5 -15 15c0 37.333 1.16699 92.333 3.5 165s3.5 126.667 3.5 162c-4 0.666992 -7.33301 2.66699 -10 6c-91.333 114 -128.333 229 -111 345c0.666992 4 2.66699 7.33301 6 10s7 3.66699 11 3s7.33301 -2.66699 10 -6
s3.66699 -7 3 -11c-16 -106.667 18.333 -213.667 103 -321c4.66699 7.33301 16.334 24 35.001 50s31.334 44 38.001 54s16.667 26.667 30 50s22.5 42.333 27.5 57s9.5 32.5 13.5 53.5s5 41.167 3 60.5c-0.666992 4 0.333008 7.5 3 10.5s6.16699 4.83301 10.5 5.5
s8 -0.333008 11 -3s4.83301 -6.33398 5.5 -11.001z" />
    <glyph glyph-name="Z" unicode="Z" horiz-adv-x="590" 
d="M50 655c18 2.66699 80.5029 3.00195 187.503 1.00195s169.5 -3 187.5 -3c10 0 15 -5 15 -15c0 -8.66699 -4.33301 -13.667 -13 -15c-19.333 -28.667 -43 -71 -71 -127c-32 -64 -56.333 -109 -73 -135l-24 -36c15.333 0 36.833 0.5 64.5 1.5s45.167 1.5 52.5 1.5
c4 0 7.5 -1.33301 10.5 -4s4.5 -6.16699 4.5 -10.5s-1.33301 -8 -4 -11s-6.33398 -4.5 -11.001 -4.5c-90.667 -2.66699 -136.334 -4 -137.001 -4l-63 -96c-13.333 -22 -29.5 -51.167 -48.5 -87.5s-33.167 -69.166 -42.5 -98.499c4 1.33301 27 1.5 69 0.5
s64.333 -1.5 67 -1.5h319c10 0 15 -5 15 -15s-5 -15 -15 -15h-319c-10.667 0 -28.167 0.333008 -52.5 1s-45.166 0.833984 -62.499 0.500977s-34 -1.83301 -50 -4.5c-4 -0.666992 -7.66699 0.166016 -11 2.49902s-5.33301 5.66602 -6 9.99902
s0.166016 8.16602 2.49902 11.499s5.83301 5.33301 10.5 6c8.66699 30 21.834 63 39.501 99s34.5 66.333 50.5 91l60 95c-54 -2.66699 -102.333 -5.33398 -145 -8.00098c-4 0 -7.66699 1.33301 -11 4s-5 6 -5 10s1.33301 7.66699 4 11s6 5 10 5c47.333 3.33301 103 6 167 8
l35 54c16 24.667 40 69 72 133c24.667 49.333 45.334 87 62.001 113c-22.667 0 -60.334 0.666992 -113.001 2s-90.334 2 -113.001 2s-60.334 -0.666992 -113.001 -2c-4.66699 0 -8.5 1.33301 -11.5 4s-4.5 6.16699 -4.5 10.5s1.33301 8 4 11s6 4.5 10 4.5z" />
    <glyph glyph-name="bracketleft" unicode="[" horiz-adv-x="350" 
d="M304 632c-8 -1.33301 -22.999 -2.33398 -44.999 -3.00098h-29h-31c-24 0 -42.333 -0.666992 -55 -2c-7.33301 -0.666992 -12.666 -1.66699 -15.999 -3h-1c-1.33301 -4 -2.33301 -10 -3 -18c-0.666992 -12 -0.666992 -27.333 0 -46
c0.666992 -32 3.33398 -75.667 8.00098 -131l8 -90c2.66699 -36.667 5 -66.167 7 -88.5s3 -38.5 3 -48.5c0.666992 -25.333 0.166992 -61.5 -1.5 -108.5s-2.5 -80.5 -2.5 -100.5c0 -2.66699 -0.333008 -15.667 -1 -39s-1 -43.333 -1 -60
c-0.666992 -23.333 -0.333984 -42.666 0.999023 -57.999c0.666992 -8.66699 1.33398 -15 2.00098 -19l1 -5c2.66699 -2.66699 7.66699 -4.66699 15 -6c8 -0.666992 18.333 -0.333984 31 0.999023c8.66699 0.666992 20 2.33398 34 5.00098
c15.333 2.66699 25.166 4.33398 29.499 5.00098s8 -0.333008 11 -3s4.83301 -6.16699 5.5 -10.5s-0.333008 -8 -3 -11s-6 -4.83301 -10 -5.5c-4 0 -13 -1.33301 -27 -4c-15.333 -2.66699 -27.666 -4.66699 -36.999 -6c-15.333 -1.33301 -28 -1.33301 -38 0
c-14.667 2 -25.667 7 -33 15c-4 4 -6.66699 10.333 -8 19c-1.33301 6 -2.33301 13.667 -3 23c-1.33301 15.333 -1.66602 35.333 -0.999023 60c0 16.667 0.333008 36.667 1 60s1 36.333 1 39c0 20 0.833008 53.5 2.5 100.5s2.16699 83.167 1.5 108.5
c0 9.33301 -1 25.333 -3 48l-7 88l-8 89c-4.66699 56 -7.33398 100 -8.00098 132c-0.666992 20 -0.666992 36 0 48c1.33301 15.333 3.66602 26.333 6.99902 33c2.66699 6 8.66699 10.333 18 13c6 1.33301 13.333 2.66602 22 3.99902c13.333 1.33301 32.666 2 57.999 2h31h29
c19.333 0.666992 31.666 1.66699 36.999 3c4 0.666992 7.83301 0 11.5 -2s6 -5 7 -9s0.5 -7.83301 -1.5 -11.5s-5 -6.16699 -9 -7.5z" />
    <glyph glyph-name="backslash" unicode="\" horiz-adv-x="392" 
d="M47 682c58 -101.333 111.168 -207.835 159.501 -319.502s98.166 -237.5 149.499 -377.5c1.33301 -4 1.16602 -7.83301 -0.500977 -11.5s-4.5 -6.16699 -8.5 -7.5s-7.83301 -1.16602 -11.5 0.500977s-6.16699 4.5 -7.5 8.5c-51.333 139.333 -101 264.5 -149 375.5
s-100.667 216.833 -158 317.5c-4.66699 8.66699 -2.66699 15.334 6 20.001s15.334 2.66699 20.001 -6z" />
    <glyph glyph-name="bracketright" unicode="]" horiz-adv-x="237" 
d="M172 -168h1h-1zM30 625c12.667 1.33301 39.667 3.33008 81 5.99707c20.667 1.33301 37 2 49 2c7.33301 0.666992 13 1 17 1c2.66699 0 4.66699 -0.333008 6 -1h3c3.33301 -0.666992 6 -2 8 -4s3.66699 -4.33301 5 -7c0 -1.33301 0.166992 -2.66602 0.5 -3.99902
s0.5 -2.66602 0.5 -3.99902c0 -2.66699 -0.333008 -6.66699 -1 -12c0 -6.66699 -0.666992 -17.667 -2 -33c-2 -36.667 -3 -58.334 -3 -65.001c0 -52.667 -1.83301 -129.667 -5.5 -231s-5.5 -157.666 -5.5 -168.999c0 -7.33301 -0.5 -25 -1.5 -53s-1.66699 -48.333 -2 -61
s0.166992 -29.334 1.5 -50.001s3.66602 -39 6.99902 -55c0 -0.666992 0.333008 -2.16699 1 -4.5s1.66699 -5.5 3 -9.5l4 -12c2.66699 -7.33301 4.33398 -13 5.00098 -17c0.666992 -3.33301 1.33398 -6.33301 2.00098 -9c0 -5.33301 -1.33301 -9.66602 -4 -12.999
c-2 -2.66699 -5 -5 -9 -7c-2 -0.666992 -4.66699 -1.33398 -8 -2.00098c-4.66699 -1.33301 -11.334 -2.66602 -20.001 -3.99902c-12.667 -2 -31 -4 -55 -6c-44 -4 -75.667 -6 -95 -6c-10 0 -15 5 -15 15s5 15 15 15c20 0 51 1.66699 93 5c22 2 39.667 4 53 6
c5.33301 1.33301 9.66602 2.33301 12.999 3c-0.666992 2.66699 -1.66699 6.33398 -3 11.001c-0.666992 2.66699 -2 6.33398 -4 11.001l-4 11c-0.666992 3.33301 -1.33398 5.66602 -2.00098 6.99902c-3.33301 16.667 -5.66602 36.167 -6.99902 58.5s-1.83301 40 -1.5 53
s1 33.667 2 62s1.5 45.5 1.5 51.5c0 12 1.83301 68.5 5.5 169.5s5.5 177.833 5.5 230.5c0 7.33301 1.33301 29.666 4 66.999c0.666992 14.667 1 25.334 1 32.001v1c-2 -0.666992 -4.66699 -1 -8 -1c-12 0 -28 -0.666992 -48 -2
c-41.333 -2.66699 -67.666 -4.66699 -78.999 -6c-4.66699 -0.666992 -8.5 0.333008 -11.5 3s-4.83301 6.16699 -5.5 10.5s0.333008 8 3 11s6 4.83301 10 5.5z" />
    <glyph glyph-name="asciicircum" unicode="^" horiz-adv-x="450" 
d="M53 278c0 0.666992 1.32617 8.83203 3.99316 24.499s5.33398 27.5 8.00098 35.5c2 6.66699 10 26.667 24 60l44 105l45 102l16 33c2 4.66699 3.66699 8 5 10l3 4c0.666992 1.33301 1.33398 2.33301 2.00098 3c2.66699 2 5.33398 3.33301 8.00098 4
c9.33301 2 19.666 -2.33301 30.999 -13c6.66699 -7.33301 14.667 -17.666 24 -30.999c14.667 -22 33.334 -54 56.001 -96l35 -68l34 -67l20 -35c6 -8 4.83301 -14.833 -3.5 -20.5s-15.166 -4.16699 -20.499 4.5c-5.33301 6.66699 -12.666 19 -21.999 37l-34 68l-36 67
c-21.333 41.333 -39 72.333 -53 93c-8.66699 12 -15.667 20.667 -21 26l-1 1v-1c-4 -7.33301 -9.33301 -18 -16 -32l-44 -101l-45 -105c-13.333 -32.667 -21 -52 -23 -58c-2 -6.66699 -4 -16.667 -6 -30s-3.33301 -22 -4 -26c-1.33301 -4 -3.66602 -7.16699 -6.99902 -9.5
s-7 -3 -11 -2s-7.16699 3.16699 -9.5 6.5s-3.16602 7 -2.49902 11z" />
    <glyph glyph-name="underscore" unicode="_" horiz-adv-x="603" 
d="M-6 -153c58 -5.33301 151.002 -7 279.002 -5c122.667 2 216.667 -0.666992 282 -8c4 -0.666992 7.33301 -2.66699 10 -6s3.66699 -7 3 -11s-2.66699 -7.33301 -6 -10s-7 -3.66699 -11 -3c-63.333 7.33301 -156 10 -278 8c-128.667 -2 -222.334 -0.333008 -281.001 5
c-4.66699 0.666992 -8.33398 2.5 -11.001 5.5s-3.66699 6.66699 -3 11s2.5 7.83301 5.5 10.5s6.5 3.66699 10.5 3z" />
    <glyph glyph-name="grave" unicode="`" horiz-adv-x="278" 
d="M88 677c12 -8.66699 23.498 -17.999 34.498 -27.999s22.833 -22.667 35.5 -38l26 -33c6 -7.33301 16.333 -21.333 31 -42l25 -34c6 -8 5 -15 -3 -21s-15 -5 -21 3c-2.66699 3.33301 -11.167 15.166 -25.5 35.499s-24.166 33.833 -29.499 40.5l-25 32
c-12 14 -23.167 25.667 -33.5 35s-21.166 18 -32.499 26c-8 6 -9 13 -3 21s13 9 21 3z" />
    <glyph glyph-name="a" unicode="a" horiz-adv-x="470" 
d="M264 403c3.33301 -1.33301 6.00195 -3.00195 8.00195 -5.00195c2 -1.33301 3.66699 -3.33301 5 -6l5 -12c2 -8 4.33301 -18.667 7 -32c4.66699 -27.333 7 -47.333 7 -60v-57c7.33301 -51.333 16.333 -92 27 -122c10.667 -32 23 -53 37 -63
c14.667 -10.667 32 -9.33398 52 3.99902c8 6 14.833 4.83301 20.5 -3.5s4.16699 -15.166 -4.5 -20.499c-31.333 -22 -60 -23.333 -86 -4c-18.667 14 -34.334 39.667 -47.001 77c-3.33301 8.66699 -6.33301 17.667 -9 27c-13.333 -64.667 -41 -107.334 -83 -128.001
c-29.333 -15.333 -54 -14.166 -74 3.50098s-35 49.834 -45 96.501c-8.66699 40.667 -12.834 86.667 -12.501 138s5.5 97.333 15.5 138c10.667 46 26 77.333 46 94c10 8.66699 21 13.667 33 15s22.667 -0.166992 32 -4.5s18.333 -10.166 27 -17.499
c19.333 -16.667 32.333 -36 39 -58zM238.002 379.998c0 8 -3.00195 17.6689 -9.00195 29.002s-13.667 21 -23 29c-20.667 18 -38.5 20.5 -53.5 7.5s-27.167 -39.167 -36.5 -78.5s-14 -83 -14 -131c-0.666992 -48.667 3.33301 -92.667 12 -132
c8.66699 -40 20.334 -66.667 35.001 -80c9.33301 -8.66699 22.666 -8.66699 39.999 0c35.333 18 58.333 56 69 114c4.66699 25.333 7.33398 55.666 8.00098 90.999c-0.666992 6 -1.66699 13.667 -3 23s-2.16602 15.333 -2.49902 18s-1.83301 12.167 -4.5 28.5
s-4.66699 29.166 -6 38.499c-2 12 -3.33301 22 -4 30c-5.33301 2.66699 -8 7 -8 13z" />
    <glyph glyph-name="b" unicode="b" horiz-adv-x="422" 
d="M109 85c1.33301 2.66699 3.33203 4.66992 5.99902 6.00293c4 1.33301 8 1.16602 12 -0.500977s6.66699 -4.16699 8 -7.5c6.66699 -17.333 19 -28.833 37 -34.5s38.333 -5.16699 61 1.5c22.667 6 43.834 15.833 63.501 29.5s32.834 28.167 39.501 43.5
c16 32.667 23.167 64.667 21.5 96s-8.83398 59.666 -21.501 84.999c-13.333 25.333 -30.333 45.666 -51 60.999c-32 24 -64.333 31 -97 21c-35.333 -11.333 -64 -42.666 -86 -93.999v-1c1.33301 -22.667 2.33301 -56.834 3 -102.501s2 -80.167 4 -103.5zM71.999 297.003
c-8 118 -12.0039 257.666 -12.0039 418.999c0 10 5 15 15 15s15 -5 15 -15c0 -140 2.66699 -262.333 8 -367c22.667 33.333 49.667 55 81 65c42 14 83.333 5.66699 124 -25c24.667 -18 44.5 -41.667 59.5 -71s23.333 -62 25 -98s-6.16602 -73 -23.499 -111
c-10 -19.333 -26.5 -37.166 -49.5 -53.499s-47.833 -27.833 -74.5 -34.5c-16.667 -4 -33 -6 -49 -6s-31.5 4.16699 -46.5 12.5s-26.167 20.5 -33.5 36.5c1.33301 -13.333 3 -25.666 5 -36.999c0.666992 -4.66699 -0.166016 -8.66699 -2.49902 -12
s-5.66602 -5.33301 -9.99902 -6s-8.16602 0.166016 -11.499 2.49902s-5.33301 5.5 -6 9.5c-6 35.333 -9.66699 86.333 -11 153c-1.33301 68 -2.33301 104 -3 108c-2.66699 4 -3 8.66699 -1 14z" />
    <glyph glyph-name="c" unicode="c" horiz-adv-x="340" 
d="M237 309c10 34.667 7.66406 66.499 -7.00293 95.499s-35 48.833 -61 59.5s-49.667 9.33398 -71 -3.99902c-25.333 -16 -42 -46.667 -50 -92c-5.33301 -35.333 -8 -71.833 -8 -109.5s6 -75.667 18 -114s29 -68.166 51 -89.499c20 -19.333 39.667 -29 59 -29
c16.667 0 32.667 7 48 21c15.333 13.333 28.333 31 39 53s17.334 44 20.001 66c0.666992 4 2.66699 7.33301 6 10s7 3.66699 11 3s7.33301 -2.66699 10 -6s3.66699 -7 3 -11c-3.33301 -24.667 -11.166 -49.834 -23.499 -75.501s-27.5 -46.167 -45.5 -61.5
c-21.333 -19.333 -44 -29 -68 -29c-27.333 0.666992 -53.666 13 -78.999 37c-20 18.667 -36.333 42.667 -49 72s-21 59.833 -25 91.5s-5.66699 62.5 -5 92.5s3.33398 58.333 8.00098 85c10 54 31.333 91.333 64 112c30 18.667 62.667 20.667 98 6
c33.333 -14 59 -38.833 77 -74.5s20.667 -74.5 8 -116.5c-0.666992 -4 -2.83398 -7 -6.50098 -9s-7.5 -2.5 -11.5 -1.5s-7 3.33301 -9 7s-2.33301 7.5 -1 11.5z" />
    <glyph glyph-name="d" unicode="d" horiz-adv-x="396" 
d="M310 45l-0.000976562 304.005c-18.667 27.333 -42 42.666 -70 45.999c-37.333 5.33301 -76 -9 -116 -43c-26 -21.333 -47.5 -47.333 -64.5 -78s-27 -63.334 -30 -98.001s3.83301 -68.334 20.5 -101.001c29.333 -54.667 81 -80.334 155 -77.001
c30 1.33301 64.333 16.666 103 45.999c0.666992 0.666992 1.33398 1 2.00098 1zM346.999 685.005c-4.66699 -24 -7.49609 -49.168 -8.49609 -75.501s-1 -60.666 0 -102.999s1.5 -68.833 1.5 -79.5v-69c7.33301 -12.667 14 -26.667 20 -42
c1.33301 -4 1.16602 -7.83301 -0.500977 -11.5s-4.33398 -6.16699 -8.00098 -7.5s-7.5 -1.33301 -11.5 0v-295c0 -10 -5 -15 -15 -15s-15 5 -15 15v6c-36 -25.333 -70.333 -38.666 -103 -39.999c-87.333 -3.33301 -148.333 27.667 -183 93c-20 38 -28.167 77 -24.5 117
s15.167 76.667 34.5 110c18.667 34 42.334 63 71.001 87c46.667 39.333 93 56 139 50c24.667 -3.33301 46.667 -13.333 66 -30v32c0 8.66699 -0.5 34.667 -1.5 78s-0.833008 78.833 0.5 106.5s4 54.167 8 79.5c0.666992 4 2.66699 7.16699 6 9.5
s7.16602 3.16602 11.499 2.49902s7.66602 -2.66699 9.99902 -6s3.16602 -7.33301 2.49902 -12z" />
    <glyph glyph-name="e" unicode="e" horiz-adv-x="350" 
d="M84 229c-1.33301 -36 2.8291 -68.9971 12.4961 -98.9971s23.5 -52 41.5 -66c14.667 -11.333 35.334 -19.333 62.001 -24c28 -4.66699 47 -2.33398 57 6.99902c6.66699 6 11.667 17.333 15 34c3.33301 14 5 28.667 5 44c0 10 5 15 15 15s15 -5 15 -15
c0 -18 -1.66699 -35 -5 -51c-5.33301 -22 -13.666 -38.333 -24.999 -49c-17.333 -16 -44.666 -21 -81.999 -15c-32 6 -57 16 -75 30c-26 20 -44.333 50 -55 90s-14 81.667 -10 125c4.66699 44 16.834 83.667 36.501 119s45.834 58.333 78.501 69
c25.333 8.66699 50.333 3.66699 75 -15c19.333 -15.333 35.666 -37.333 48.999 -66c13.333 -26.667 20.333 -52.334 21 -77.001c2 -30 -5.33301 -50.667 -22 -62c-4.66699 -3.33301 -11 -5.66602 -19 -6.99902c-6.66699 -0.666992 -14.667 -1.33398 -24 -2.00098
c-15.333 -0.666992 -35.333 -0.333984 -60 0.999023c-52.667 2.66699 -87 6.66699 -103 12c-1.33301 0 -2.33301 0.666992 -3 2zM96.9951 255.003c14 -4.66699 45.668 -8.00195 95.001 -10.002c22.667 -1.33301 41.667 -1.66602 57 -0.999023
c8 0.666992 14.667 1.33398 20 2.00098l6 1c8 5.33301 11.333 17.333 10 36c-0.666992 21.333 -6.66699 43.333 -18 66c-11.333 24.667 -24.833 43 -40.5 55s-31.167 15.667 -46.5 11c-25.333 -8.66699 -46.333 -27.667 -63 -57s-27.334 -64 -32.001 -104
c4 2 8 2.33301 12 1z" />
    <glyph glyph-name="f" unicode="f" horiz-adv-x="326" 
d="M262 634c-9.33301 28.667 -20.6699 49.3301 -34.0029 61.9971c-14 12.667 -27.667 18.334 -41 17.001c-13.333 -2 -26.333 -11 -39 -27c-12 -16 -21 -39.667 -27 -71c-7.33301 -38 -8 -111.667 -2 -221c12.667 -0.666992 30.334 -1.16699 53.001 -1.5
s38.667 -0.5 48 -0.5c10 0 15 -5 15 -15s-5 -15 -15 -15c-9.33301 0 -25.166 0.166992 -47.499 0.5s-39.5 0.833008 -51.5 1.5l2 -38c5.33301 -64 11.666 -120.333 18.999 -169c8 -52 16 -86.333 24 -103c4.66699 -9.33301 2.5 -16.166 -6.5 -20.499
s-15.5 -2.16602 -19.5 6.50098c-10 19.333 -19.333 57 -28 113c-7.33301 48.667 -13.333 105.667 -18 171c-1.33301 13.333 -2.33301 26.333 -3 39c-49.333 -0.666992 -85.666 -5.33398 -108.999 -14.001c-4 -1.33301 -7.83301 -1.16602 -11.5 0.500977
s-6.16699 4.5 -7.5 8.5s-1.16602 7.83301 0.500977 11.5s4.5 6.16699 8.5 7.5c26 10 65 15.333 117 16c-6 112 -5.33301 188 2 228c6.66699 35.333 18.334 63.833 35.001 85.5s36 33.5 58 35.5c22.667 2.66699 43.5 -5 62.5 -23s33.5 -43.667 43.5 -77
c1.33301 -3.33301 1 -6.83301 -1 -10.5s-4.83301 -6.16699 -8.5 -7.5s-7.33398 -1 -11.001 1s-6.16699 5 -7.5 9z" />
    <glyph glyph-name="g" unicode="g" horiz-adv-x="378" 
d="M283 407l-1 2.00098c-20 40 -43.667 60 -71 60c-24.667 -0.666992 -47.334 -15.334 -68.001 -44.001c-13.333 -19.333 -22.333 -40 -27 -62s-3 -44.167 5 -66.5s22.667 -40.166 44 -53.499c13.333 -8.66699 25 -9.33398 35 -2.00098c15.333 11.333 30.333 29.333 45 54
s24.667 48 30 70c0.666992 0.666992 1.33398 4 2.00098 10l3 18c0.666992 5.33301 1.66699 10 3 14zM288 312.001c-20.667 -44.667 -44.0029 -76.335 -70.0029 -95.002c-21.333 -15.333 -44.333 -15.333 -69 0c-28 18 -46.833 41.167 -56.5 69.5
s-11.834 55.833 -6.50098 82.5c6 26.667 17 51 33 73c26.667 37.333 57.334 56.333 92.001 57c37.333 0.666992 68.333 -22 93 -68c2 0 4 -0.666992 6 -2s3.66699 -2.66602 5 -3.99902l1 -1l2 -4v-2v-2v-1v-4v-9c11.333 -24 19.666 -45 24.999 -63
c0.666992 -4 0 -7.83301 -2 -11.5s-5 -6.16699 -9 -7.5c-5.33301 -0.666992 -10 0.333008 -14 3c-0.666992 -26.667 -2.33398 -53.667 -5.00098 -81c-1.33301 -8.66699 -4.66602 -48.667 -9.99902 -120s-11.666 -129.333 -18.999 -174s-17.666 -84.334 -30.999 -119.001
c-17.333 -42.667 -38.666 -65.334 -63.999 -68.001c-22 -2.66699 -43 10.333 -63 39c-16 22 -29.333 49.333 -40 82s-16 60.667 -16 84c0 10 5 15 15 15s15 -5 15 -15c0 -20 4.83301 -44.833 14.5 -74.5s21.5 -54.167 35.5 -73.5c13.333 -19.333 25.333 -28.333 36 -27
c13.333 1.33301 26.333 18 39 50c13.333 32.667 23.5 70.334 30.5 113.001s13 98.834 18 168.501s8.16699 110.834 9.5 123.501c2.66699 22 4.33398 44 5.00098 66z" />
    <glyph glyph-name="h" unicode="h" horiz-adv-x="429" 
d="M108 724c-0.666992 -25.333 0.666992 -57.668 4 -97.001c5.33301 -56 8.33301 -89 9 -99c1.33301 -30.667 2.5 -73.834 3.5 -129.501s1.83301 -92.5 2.5 -110.5c0.666992 -10 1 -21.333 1 -34c12 42 28 79 48 111c13.333 20.667 30.333 38 51 52s43 21.667 67 23
c36 2.66699 62.333 -17 79 -59c12 -29.333 19 -71.666 21 -126.999c0.666992 -26.667 -0.333008 -74 -3 -142c-2 -54 -2.33301 -87.667 -1 -101c0.666992 -4 -0.333008 -7.5 -3 -10.5s-6.16699 -4.83301 -10.5 -5.5s-8 0.333008 -11 3s-4.83301 6.33398 -5.5 11.001
c-1.33301 14 -1 48.667 1 104c2.66699 69.333 3.66699 116 3 140c-2 52 -8.33301 91 -19 117c-11.333 28 -27.666 41.333 -48.999 40c-18.667 -1.33301 -36.334 -7.5 -53.001 -18.5s-30.334 -25.167 -41.001 -42.5c-32 -50 -53.333 -114.333 -64 -193
c0 -0.666992 -0.333008 -6 -1 -16c-0.666992 -12.667 -1.33398 -23 -2.00098 -31c-1.33301 -12.667 -2.66602 -22.667 -3.99902 -30c-0.666992 -5.33301 -1.33398 -9.33301 -2.00098 -12c-1.33301 -2.66699 -2.33301 -5 -3 -7c-3.33301 -4.66699 -8 -7 -14 -7
c-5.33301 0 -9.33301 2 -12 6c-1.33301 1.33301 -2 2.66602 -2 3.99902c-0.666992 1.33301 -1 2.33301 -1 3v2v1v5v16c0.666992 26 1 44 1 54c0.666992 60 0.333984 108 -0.999023 144c-0.666992 18 -1.5 54.667 -2.5 110s-2.16699 98 -3.5 128
c-0.666992 9.33301 -3.66699 42 -9 98c-3.33301 40.667 -4.66602 74 -3.99902 100c0 4.66699 1.5 8.33398 4.5 11.001s6.66699 4 11 4s7.83301 -1.5 10.5 -4.5s4 -6.5 4 -10.5z" />
    <glyph glyph-name="i" unicode="i" horiz-adv-x="251" 
d="M91 519c-3.33301 0.666992 -5.99805 2.33105 -7.99805 4.99805l-13 18l-15 20l-13 20c-4.66699 8 -8.33398 15.333 -11.001 22c-5.33301 13.333 -7.33301 25 -6 35c1.33301 12.667 7 21.334 17 26.001c18 8 37.333 0.333008 58 -23c8 -9.33301 14.667 -22 20 -38
c12 12 24.667 22.667 38 32c7.33301 4.66699 14 8.33398 20 11.001c8 3.33301 15 4.33301 21 3c5.33301 -0.666992 9.33301 -3 12 -7c3.33301 -4 5 -8.66699 5 -14c0 -6 -2 -14.333 -6 -25c-4.66699 -10 -11.334 -20.167 -20.001 -30.5s-16.167 -18.333 -22.5 -24
s-16 -13.667 -29 -24s-20.5 -16.5 -22.5 -18.5c-8 -6 -15.333 -5.33301 -22 2c-2 2.66699 -3 6 -3 10zM133.002 573.997c2.66699 -4 3.66797 -8.00098 3.00098 -12.001c23.333 19.333 38.666 37 45.999 53c-2 -1.33301 -4.33301 -2.66602 -7 -3.99902
c-12 -8 -23.333 -17.667 -34 -29zM55.0029 637.996c-0.666992 -0.666992 -1 -1.33203 -1 -1.99902c0 -4.66699 1.66699 -11.334 5 -20.001c2.66699 -6 6 -12.5 10 -19.5s7.66699 -12.667 11 -17s8 -10.833 14 -19.5s10.333 -14.667 13 -18
c0.666992 -0.666992 1 -1.33398 1 -2.00098l13 10c-2 0 -4 0.333008 -6 1c-2.66699 -1.33301 -5.66699 -1.33301 -9 0c-4 0.666992 -7 2.83398 -9 6.50098s-2.33301 7.5 -1 11.5c0 2 0.666992 4.33301 2 7c-1.33301 2.66699 -3.33301 8.66699 -6 18
c-4 12.667 -8.66699 22 -14 28c-9.33301 10 -17 15.333 -23 16zM120.003 424.998c-4 -15.333 -6.16895 -31.6689 -6.50195 -49.002s0.5 -38.666 2.5 -63.999s3 -43.666 3 -54.999v-227c0 -10 -5 -15 -15 -15s-15 5 -15 15v227c0 8 -1 25.167 -3 51.5s-2.66699 49.333 -2 69
s3.33398 38.167 8.00098 55.5c0.666992 4 2.83398 7 6.50098 9s7.5 2.5 11.5 1.5s7 -3.33301 9 -7s2.33301 -7.5 1 -11.5z" />
    <glyph glyph-name="j" unicode="j" horiz-adv-x="227" 
d="M96 490c-16.667 18.667 -31.3311 37.334 -43.998 56.001c-13.333 18.667 -21.666 34.667 -24.999 48c-2.66699 9.33301 -2.66699 17.666 0 24.999c2.66699 9.33301 9 16 19 20s20 1 30 -9c6 -5.33301 12 -12.666 18 -21.999l6 -12c13.333 17.333 27.666 31 42.999 41
c0 0.666992 1 1.66699 3 3s3.66699 2.66602 5 3.99902c8 4.66699 15.667 5.66699 23 3c16 -6.66699 21.667 -21 17 -43c-3.33301 -12.667 -10.333 -28.334 -21 -47.001c-10.667 -17.333 -24 -36.666 -40 -57.999c4.66699 -6.66699 4.66699 -13 0 -19
c-6.66699 -7.33301 -14 -8 -22 -2c-0.666992 1.33301 -2.33398 3.33301 -5.00098 6c-0.666992 0 -1.33398 0.333008 -2.00098 1c-2 1.33301 -3.66699 3 -5 5zM119.003 410c2.66699 -14.667 4.16699 -36.499 4.5 -65.499s0.833008 -45.5 1.5 -49.5
c1.33301 -14.667 4 -46.167 8 -94.5s6.66699 -84.333 8 -108s1.66602 -54.5 0.999023 -92.5c0 -38 -2.33301 -73 -7 -105c-4 -28 -11.667 -51.667 -23 -71c-11.333 -21.333 -24.666 -34 -39.999 -38c-18.667 -6 -34.334 0.666992 -47.001 20
c-11.333 16 -18.666 41.333 -21.999 76c-0.666992 4 0.333008 7.5 3 10.5s6.16699 4.83301 10.5 5.5s8 -0.333008 11 -3s4.83301 -6.33398 5.5 -11.001c2.66699 -28.667 8.33398 -49.334 17.001 -62.001c4.66699 -6.66699 9.33398 -9.33398 14.001 -8.00098
c7.33301 2.66699 14.666 10.667 21.999 24c9.33301 16.667 15.666 37 18.999 61c4.66699 30.667 7.16699 64.5 7.5 101.5s-0.166992 67.167 -1.5 90.5s-4 59 -8 107l-8 95c-0.666992 8.66699 -1.16699 26 -1.5 52s-1.83301 45.667 -4.5 59
c-0.666992 4 0.166016 7.83301 2.49902 11.5s5.5 5.83398 9.5 6.50098s7.83301 -0.166016 11.5 -2.49902s5.83398 -5.5 6.50098 -9.5zM86.0029 557.001c-2.66699 8.66699 -8.66699 20.334 -18 35.001c-4.66699 7.33301 -8.66699 12.666 -12 15.999l-1 1
c0 -2 0.333008 -4.33301 1 -7c2.66699 -10 9.66699 -23 21 -39c8.66699 -13.333 19.334 -27.333 32.001 -42c14 18.667 25.667 35.667 35 51c9.33301 16 15 29 17 39c0.666992 1.33301 1 2.33301 1 3c-1.33301 -0.666992 -2.33301 -1 -3 -1c-15.333 -10.667 -30 -27 -44 -49
c2 -9.33301 -1.66699 -15 -11 -17c-4 -1.33301 -7.83301 -1 -11.5 1s-5.83398 5 -6.50098 9z" />
    <glyph glyph-name="k" unicode="k" horiz-adv-x="498" 
d="M349 499c-16 -36.667 -46.668 -80.999 -92.001 -132.999l-8 -8c-42.667 -48.667 -71.334 -87 -86.001 -115c0 -0.666992 -0.333008 -1.33398 -1 -2.00098c10 -2 20.333 -4.33301 31 -7s22.334 -6.33398 35.001 -11.001l34 -12c9.33301 -3.33301 21.333 -8.33301 36 -15
l33 -14c7.33301 -2.66699 19 -8 35 -16l32 -15l31 -15c16.667 -8 25.334 -12.333 26.001 -13c8.66699 -4 10.834 -10.5 6.50098 -19.5s-11.166 -11.167 -20.499 -6.5c-3.33301 1.33301 -8.66602 4 -15.999 8l-97 46c-24.667 11.333 -56.334 24 -95.001 38
s-70.334 22.333 -95.001 25v-102v-85c0 -10 -5 -15 -15 -15s-15 5 -15 15v93v103c0 17.333 -0.333008 47.833 -1 91.5s-1.66699 77.834 -3 102.501l-5 91c-2 36.667 -4.83301 70.5 -8.5 101.5s-7.83398 61.833 -12.501 92.5c-0.666992 4 0.333008 7.66699 3 11
s6 5.33301 10 6s7.66699 -0.333008 11 -3s5.33301 -6 6 -10c18.667 -117.333 28.667 -266.333 30 -447c2.66699 5.33301 5.5 10.5 8.5 15.5s6.5 10.333 10.5 16s7.16699 10.334 9.5 14.001s6 8.66699 11 15s8.5 10.5 10.5 12.5l12 14c6 7.33301 9.5 11.666 10.5 12.999
s5 6 12 14s10.833 12.333 11.5 13c43.333 49.333 72.333 91 87 125c4 9.33301 10.667 12 20 8s12 -10.667 8 -20z" />
    <glyph glyph-name="l" unicode="l" horiz-adv-x="232" 
d="M130 679c-2 -36 -2.33496 -86.667 -1.00195 -152c0.666992 -72.667 0.666992 -123.667 0 -153c0 -10 -1 -34.667 -3 -74l-6 -94c-1.33301 -38 -1.66602 -69 -0.999023 -93c0 -28.667 1.66699 -48 5 -58s7 -16 11 -18c1.33301 -1.33301 3.33301 -1.33301 6 0
c10.667 5.33301 19.667 17 27 35c1.33301 3.33301 4 5.83301 8 7.5s7.83301 1.83398 11.5 0.500977s6.33398 -4 8.00098 -8s1.83398 -8 0.500977 -12c-10 -24 -24 -40.667 -42 -50c-12 -6 -23.667 -5.66699 -35 1c-10 6 -17.667 17.333 -23 34
c-4.66699 13.333 -7 35.666 -7 66.999c-0.666992 24.667 -0.333984 56.334 0.999023 95.001l6 95c2 38.667 3 62.667 3 72c0.666992 30 0.666992 81 0 153c-1.33301 65.333 -1 116.666 1 153.999c0 4 1.66699 7.33301 5 10s7 4 11 4s7.33301 -1.66699 10 -5s4 -7 4 -11z" />
    <glyph glyph-name="m" unicode="m" horiz-adv-x="542" 
d="M255 243c-2.66699 38.667 -7.66992 68.332 -15.0029 88.999c-4.66699 16.667 -10.667 27.667 -18 33c-6.66699 4.66699 -15.334 4.33398 -26.001 -0.999023c-44 -24 -71.333 -64 -82 -120c-6.66699 -36 -7 -89.667 -1 -161l3 -36
c0.666992 -19.333 -1.66602 -33.666 -6.99902 -42.999l-2 -4c-3.33301 -2.66699 -6.66602 -4.33398 -9.99902 -5.00098c-6 -0.666992 -10.667 1.33301 -14 6c-1.33301 1.33301 -2.33301 3 -3 5c-0.666992 2.66699 -1 6 -1 10c0 2 -0.166992 4 -0.5 6s-0.5 3.66699 -0.5 5v3
c-2 12.667 -4.5 31.667 -7.5 57s-5.5 44.333 -7.5 57c-18 123.333 -27 231.333 -27 324c0 10 5 15 15 15s15 -5 15 -15c0 -70.667 5.33301 -149.334 16 -236.001c0.666992 6 1.33398 11.667 2.00098 17c12.667 66 45.334 113 98.001 141c22 12 41.333 11.667 58 -1
c12 -9.33301 21.667 -25 29 -47c2.66699 -8 5 -16.667 7 -26c2 6 4.66699 12 8 18c27.333 54.667 63.666 87 108.999 97c31.333 6.66699 56 -10 74 -50c13.333 -28 23.333 -68.333 30 -121c6.66699 -54 10 -130 10 -228c0 -10 -5 -15 -15 -15s-15 5 -15 15
c0 96 -3.33301 171 -10 225c-6 49.333 -15 86.333 -27 111c-12 25.333 -25.667 36.333 -41 33c-35.333 -7.33301 -65 -34.333 -89 -81c-12 -24.667 -20.333 -51 -25 -79v-2c2 -24.667 3 -43 3 -55c0 -6 -0.333008 -10.667 -1 -14c0 -3.33301 -0.333008 -6 -1 -8
c-2 -3.33301 -4.66699 -5.66602 -8 -6.99902c-5.33301 -3.33301 -10.666 -3 -15.999 1c-6.66699 5.33301 -10 13.333 -10 24v8v5c-0.666992 15.333 0.333008 32 3 50z" />
    <glyph glyph-name="n" unicode="n" horiz-adv-x="423" 
d="M91 430c-1.33301 -38.667 2.33008 -90.332 10.9971 -154.999c3.33301 14.667 7.33301 28.334 12 41.001c6 14.667 17.833 32.5 35.5 53.5s36.5 38.5 56.5 52.5c24.667 17.333 47.334 26.333 68.001 27c26.667 0.666992 46.667 -13 60 -41
c17.333 -36.667 29.333 -101.334 36 -194.001c1.33301 -12.667 2.66602 -30.5 3.99902 -53.5s2.5 -41.333 3.5 -55s2.33301 -29 4 -46s3.83398 -31.5 6.50098 -43.5c0.666992 -4 -0.166016 -7.83301 -2.49902 -11.5s-5.5 -5.83398 -9.5 -6.50098
s-7.83301 0.166016 -11.5 2.49902s-5.83398 5.5 -6.50098 9.5c-2 12.667 -4 27.834 -6 45.501s-3.5 33.5 -4.5 47.5s-2.16699 32.667 -3.5 56s-2.66602 41 -3.99902 53c-6.66699 89.333 -18 150.666 -34 183.999c-7.33301 15.333 -18 23 -32 23s-31 -7 -51 -21
c-18 -13.333 -34.833 -29.333 -50.5 -48s-25.834 -34 -30.501 -46c-4.66699 -10.667 -8.33398 -22 -11.001 -34s-4.33398 -25.333 -5.00098 -40s-1.16699 -26.667 -1.5 -36s-0.333008 -23.5 0 -42.5s0.5 -31.833 0.5 -38.5c0 -4 0.333008 -9 1 -15l1 -16
c1.33301 -15.333 0.333008 -28 -3 -38c0 -1.33301 -0.333008 -2.33301 -1 -3c-2.66699 -4 -6 -6.66699 -10 -8c-6.66699 -2 -12 0 -16 6c-1.33301 1.33301 -2.33301 3 -3 5s-1 5.33301 -1 10c0 1.33301 -0.166992 3.83301 -0.5 7.5s-0.5 6.16699 -0.5 7.5
c-1.33301 12 -2.66602 29 -3.99902 51c-0.666992 22.667 -1.66699 39 -3 49c-1.33301 16.667 -4.66602 43.5 -9.99902 80.5s-9.16602 69.833 -11.499 98.5s-3.16602 56 -2.49902 82c0 4.66699 1.5 8.33398 4.5 11.001s6.66699 4 11 4s7.83301 -1.5 10.5 -4.5s4 -6.5 4 -10.5
z" />
    <glyph glyph-name="o" unicode="o" horiz-adv-x="399" 
d="M214 427c-12.667 -4.66699 -24.667 -12.999 -36 -24.999c-28 -30 -48.333 -73.333 -61 -130c-13.333 -56.667 -15 -107.667 -5 -153c10.667 -46 31 -72.333 61 -79c45.333 -10.667 83.333 2.66602 114 39.999c28.667 36 44.334 82.667 47.001 140
c2 50.667 -7.33301 95.5 -28 134.5s-51.334 63.167 -92.001 72.5zM340 354.001c18 -40.667 26 -85.665 24 -134.998c-3.33301 -64.667 -21.333 -117.334 -54 -158.001c-38 -46.667 -85.667 -63.667 -143 -51c-42.667 10 -70.667 44.333 -84 103
c-11.333 49.333 -10 104.333 4 165c14.667 62.667 37.667 110.667 69 144c3.33301 4 6.66602 7.66699 9.99902 11c-5.33301 2.66699 -8 7 -8 13c0 4 1.33301 7.5 4 10.5s6.33398 4.5 11.001 4.5c14 0 27.333 -1 40 -3c22.667 5.33301 45.667 2 69 -10
c35.333 -18 61 -42.333 77 -73c4.66699 -8.66699 2.66699 -15.334 -6 -20.001c-4.66699 -2.66699 -9 -3 -13 -1z" />
    <glyph glyph-name="p" unicode="p" horiz-adv-x="358" 
d="M110 416c-8 -155.333 -13.332 -274.332 -15.999 -356.999c42 5.33301 77.667 15 107 29c48 22.667 77 54.667 87 96c9.33301 37.333 6.66602 74.333 -8.00098 111c-14 36.667 -36.667 66.167 -68 88.5s-65.333 33.166 -102 32.499zM56.001 -244.999
c6 24 9.50098 49.832 10.501 77.499s0.833008 64 -0.5 109s-2 73.167 -2 84.5c-8.66699 0.666992 -13.334 5.33398 -14.001 14.001c0 4 1.33301 7.66699 4 11s6 5 10 5v2c2 83.333 7.33301 201.666 16 354.999c-6.66699 -1.33301 -13 -3 -19 -5
c-4 -1.33301 -7.83301 -1.16602 -11.5 0.500977s-6.16699 4.5 -7.5 8.5s-1.16602 7.83301 0.500977 11.5s4.5 6.16699 8.5 7.5c10 3.33301 20 6 30 8c2.66699 8 8 11.667 16 11c6 0 10.333 -3 13 -9c43.333 1.33301 83.166 -11.334 119.499 -38.001
s62.666 -61.167 78.999 -103.5s19.5 -85.166 9.5 -128.499c-12.667 -50 -47.334 -88.333 -104.001 -115c-34 -16 -74 -26.667 -120 -32c0 -14 0.5 -36.5 1.5 -67.5s1.5 -56.333 1.5 -76s-0.833008 -42.5 -2.5 -68.5s-4.5 -48.667 -8.5 -68
c-1.33301 -4 -3.66602 -7.16699 -6.99902 -9.5s-7 -3 -11 -2s-7.16699 3.16699 -9.5 6.5s-3.16602 7 -2.49902 11z" />
    <glyph glyph-name="q" unicode="q" horiz-adv-x="396" 
d="M289 194c-1.33301 25.333 -1.66797 53.334 -1.00098 84.001c0 20 0.666992 36.333 2 49c0.666992 4 1.33398 7.33301 2.00098 10c-1.33301 20 -18.666 38 -51.999 54c-17.333 8 -35.333 13.833 -54 17.5s-34 4.16699 -46 1.5c-14.667 -2.66699 -28.167 -13 -40.5 -31
s-22.5 -40.667 -30.5 -68c-6.66699 -26 -10.5 -52 -11.5 -78s1.16699 -45.667 6.5 -59c11.333 -28 28.666 -48.333 51.999 -61s48.333 -16.334 75 -11.001c22 4 41.833 14 59.5 30s30.5 36.667 38.5 62zM314.998 364.001c0.666992 0 1.3291 -0.329102 1.99609 -0.996094
c3.33301 -0.666992 6.33301 -2.33398 9 -5.00098c1.33301 -2.66699 2.5 -5.83398 3.5 -9.50098s1.5 -8.83398 1.5 -15.501c0.666992 -10 0.333984 -24.333 -0.999023 -43c-1.33301 -23.333 -3 -45.333 -5 -66c-1.33301 -12 -3.33301 -23 -6 -33
c2.66699 -37.333 4.16699 -92.666 4.5 -165.999s1.16602 -124 2.49902 -152h20c10 0 15 -5 15 -15s-5 -15 -15 -15h-19c2.66699 -48.667 7.33398 -91 14.001 -127c0.666992 -4.66699 -0.166016 -8.66699 -2.49902 -12s-5.66602 -5.33301 -9.99902 -6
s-8.16602 0.166016 -11.499 2.49902s-5.33301 5.5 -6 9.5c-6.66699 37.333 -11.334 81.333 -14.001 132c-53.333 -2.66699 -103.666 -9.66699 -150.999 -21c-4 -0.666992 -7.66699 0.166016 -11 2.49902s-5.5 5.5 -6.5 9.5s-0.333008 7.66699 2 11s5.5 5.66602 9.5 6.99902
c48.667 10.667 100.667 17.667 156 21c-1.33301 31.333 -2.16602 76.5 -2.49902 135.5s-0.833008 100.833 -1.5 125.5c-24.667 -32.667 -56.334 -53 -95.001 -61c-33.333 -6 -65 -1.16699 -95 14.5s-52 41.5 -66 77.5c-6.66699 18 -9.5 41.167 -8.5 69.5
s5.16699 56.5 12.5 84.5c8.66699 31.333 20.834 58.333 36.501 81s34.834 36.334 57.501 41.001c15.333 2.66699 34.166 2 56.499 -2s43.166 -10.667 62.499 -20c31.333 -14.667 52 -32.667 62 -54z" />
    <glyph glyph-name="r" unicode="r" 
d="M100 425c0 -20 3 -49.1729 9 -87.5059s9.33301 -60.5 10 -66.5l1 -6c13.333 38 33.666 75.667 60.999 113c20 28 39.333 48.333 58 61c26 16.667 50 18.667 72 6c16.667 -10 29.334 -31.667 38.001 -65c2 -6.66699 5 -19 9 -37c2.66699 -13.333 5 -22.666 7 -27.999
c1.33301 -4 1.16602 -7.83301 -0.500977 -11.5s-4.5 -6.16699 -8.5 -7.5s-7.83301 -1.16602 -11.5 0.500977s-6.16699 4.5 -7.5 8.5c-2.66699 6.66699 -5.33398 17.334 -8.00098 32.001c-4 16.667 -7 28.334 -9 35.001c-6.66699 26 -15 41.667 -25 47
c-10.667 6.66699 -23.667 4.66699 -39 -6c-16 -10 -33 -27.333 -51 -52c-15.333 -22 -29 -45.167 -41 -69.5s-19 -42.166 -21 -53.499c-3.33301 -16 -5.66602 -34.167 -6.99902 -54.5s-1.83301 -36.666 -1.5 -48.999s0.833008 -32 1.5 -59s1 -44.5 1 -52.5
c0.666992 -4 1 -7 1 -9v-13v-3v-2v-1v-1v-1c-0.666992 -0.666992 -1 -1.33398 -1 -2.00098c-1.33301 -3.33301 -3.66602 -6 -6.99902 -8c-4 -2.66699 -8.66699 -3 -14 -1c-2 1.33301 -4 3.33301 -6 6l-2 4v2v3v18c0 2 -0.333008 5.16699 -1 9.5s-1 7.5 -1 9.5
c-0.666992 6.66699 -1.16699 16.5 -1.5 29.5s-0.833008 22.833 -1.5 29.5c-6 87.333 -10.667 145.333 -14 174c0 2.66699 -3.16699 24.334 -9.5 65.001s-9.5 71.667 -9.5 93c0 10 5 15 15 15s15 -5 15 -15z" />
    <glyph glyph-name="s" unicode="s" horiz-adv-x="406" 
d="M298 351c-6 18.667 -18.5 31.9961 -37.5 39.9961s-41.5 10.667 -67.5 8c-24.667 -2.66699 -46.667 -9 -66 -19c-18 -10 -28.667 -20 -32 -30c-2.66699 -10.667 6.33301 -22.667 27 -36c6.66699 -4 38 -20.333 94 -49c24 -12 42.333 -22 55 -30
c15.333 -9.33301 31.333 -21.166 48 -35.499s29.5 -30.666 38.5 -48.999s13.5 -38.166 13.5 -59.499c0 -28 -10 -50.333 -30 -67c-29.333 -24.667 -71.333 -36.667 -126 -36c-50.667 0.666992 -96 10.667 -136 30c-46 23.333 -68.333 52 -67 86
c1.33301 38 35 73.333 101 106c9.33301 4.66699 16.166 2.5 20.499 -6.5s2.16602 -15.5 -6.50098 -19.5c-56 -28 -84.333 -55 -85 -81c-1.33301 -21.333 15.667 -40.666 51 -57.999c36.667 -18 77.334 -27 122.001 -27c47.333 -0.666992 82.666 8.66602 105.999 27.999
c13.333 11.333 20 26.333 20 45c0 31.333 -12 58.333 -36 81s-58 45 -102 67c-57.333 28.667 -89.666 45.334 -96.999 50.001c-33.333 21.333 -46.333 44.333 -39 69c5.33301 18.667 20.666 34.667 45.999 48c22.667 12 48.334 19.667 77.001 23
c30.667 2.66699 58.834 -1.33301 84.501 -12s42.834 -30 51.501 -58c1.33301 -3.33301 1 -6.83301 -1 -10.5s-4.83301 -6.16699 -8.5 -7.5s-7.33398 -1 -11.001 1s-6.16699 5 -7.5 9z" />
    <glyph glyph-name="t" unicode="t" horiz-adv-x="320" 
d="M105 373c-42.667 -6 -71.002 -9.66797 -85.002 -11.001c-4.66699 -0.666992 -8.5 0.333008 -11.5 3s-4.83301 6.16699 -5.5 10.5s0.333008 8 3 11s6 4.83301 10 5.5c14 1.33301 43.667 5 89 11c0.666992 146.667 2.66699 245 6 295c0 4 1.66699 7.33301 5 10s7 4 11 4
s7.33301 -1.66699 10 -5s4 -7 4 -11c-3.33301 -49.333 -5.33301 -145.666 -6 -288.999c31.333 3.33301 58.333 5.66602 81 6.99902c4 0 7.66699 -1.33301 11 -4s5 -6 5 -10s-1.33301 -7.66699 -4 -11s-6 -5 -10 -5c-23.333 -1.33301 -51 -4 -83 -8v-16v-17
c0 -86 1 -156.333 3 -211c1.33301 -30 3 -54.667 5 -74s4 -31.333 6 -36c6 -15.333 13.167 -23.166 21.5 -23.499s18.833 5.16699 31.5 16.5c11.333 10.667 22.333 24 33 40s17.667 29.333 21 40c1.33301 3.33301 3.83301 6 7.5 8s7.33398 2.33301 11.001 1
s6.5 -3.83301 8.5 -7.5s2.33301 -7.5 1 -11.5c-4 -12.667 -12 -28.167 -24 -46.5s-24.667 -33.833 -38 -46.5c-18.667 -16 -36 -23.667 -52 -23c-21.333 0.666992 -37.666 14.334 -48.999 41.001c-3.33301 8 -6 23 -8 45c-2 19.333 -3.33301 44.666 -4 75.999
c-2.66699 55.333 -4 126 -4 212v30z" />
    <glyph glyph-name="u" unicode="u" horiz-adv-x="467" 
d="M99 486c-3.33301 -14.667 -4.66309 -45.0029 -3.99609 -91.0029c1.33301 -49.333 5.33301 -98.333 12 -147c8 -56.667 18.333 -101.334 31 -134.001c6.66699 -17.333 13.667 -30.333 21 -39c6.66699 -7.33301 13 -11 19 -11c18 0.666992 34.333 11.334 49 32.001
c14 20 26 48 36 84c6.66699 24.667 12 52.334 16 83.001c-0.666992 5.33301 -1.33398 11 -2.00098 17c-8.66699 92.667 -8.33398 162.334 0.999023 209.001c0 0.666992 0.166992 1.33398 0.5 2.00098s0.5 1.33398 0.5 2.00098c1.33301 2 2.66602 3.66699 3.99902 5
c4 3.33301 8.33301 4.66602 13 3.99902c4 -0.666992 7.33301 -3 10 -7c1.33301 -1.33301 2 -3 2 -5v-4v-4v-10l5 -58c2 -24.667 3 -44.667 3 -60c0 -26.667 -2.33301 -57.334 -7 -92.001c4 -35.333 9.33301 -66 16 -92c8 -34 17.333 -57 28 -69
c12.667 -14 35 -23.667 67 -29c4 -0.666992 7.16699 -2.66699 9.5 -6s3.16602 -7.16602 2.49902 -11.499s-2.66699 -7.66602 -6 -9.99902s-7.33301 -3.16602 -12 -2.49902c-38 6.66699 -65.667 19.667 -83 39c-14 15.333 -26 42.666 -36 81.999
c-0.666992 4 -1.66699 8.33301 -3 13v-4c-10.667 -39.333 -24 -70.333 -40 -93c-20.667 -29.333 -45.334 -44.333 -74.001 -45c-15.333 -0.666992 -29.333 6.33301 -42 21c-9.33301 11.333 -18 27.333 -26 48c-14 34.667 -25 81.667 -33 141
c-6.66699 49.333 -10.667 99.666 -12 150.999c-1.33301 48.667 0.666992 81.667 6 99c0.666992 4 2.83398 7 6.50098 9s7.5 2.5 11.5 1.5s7 -3.33301 9 -7s2.33301 -7.5 1 -11.5z" />
    <glyph glyph-name="v" unicode="v" horiz-adv-x="284" 
d="M82 499c0 -34 7.33301 -79.3311 22 -135.998c20 -77.333 31.333 -123.833 34 -139.5s9.66699 -46.834 21 -93.501l5 -18c2 16 4 33.333 6 52c12 109.333 28.333 234 49 374c0.666992 4 2.66699 7.33301 6 10s7 3.66699 11 3s7.33301 -2.66699 10 -6s3.66699 -7 3 -11
c-23.333 -156 -39.666 -280 -48.999 -372c-2.66699 -24.667 -5 -44.334 -7 -59.001c-2 -15.333 -4 -27.666 -6 -36.999c-0.666992 -5.33301 -1.66699 -9.66602 -3 -12.999c-0.666992 -2.66699 -1.33398 -4.66699 -2.00098 -6c-2 -4 -5 -7 -9 -9
c-6.66699 -2.66699 -12.334 -1.33398 -17.001 3.99902c-1.33301 1.33301 -2.5 2.66602 -3.5 3.99902s-1.83301 3.33301 -2.5 6l-6 18l-14 53c-11.333 46 -18.666 77.667 -21.999 95c-2.66699 15.333 -13.667 61.333 -33 138c-15.333 57.333 -23 105 -23 143c0 10 5 15 15 15
s15 -5 15 -15z" />
    <glyph glyph-name="w" unicode="w" horiz-adv-x="431" 
d="M112 466c-5.33301 -11.333 -9.66797 -32.667 -13.001 -64c-3.33301 -28.667 -5.33301 -62.667 -6 -102c-2 -83.333 0 -142.333 6 -177c3.33301 -19.333 7.33301 -38 12 -56c3.33301 -12.667 6.66602 -22.667 9.99902 -30l1 1c4 9.33301 8.66699 23 14 41
c8.66699 29.333 18.667 73.333 30 132l12 66l14 70c4.66699 20.667 8.33398 36 11.001 46c2 6.66699 3.66699 12 5 16c1.33301 2.66699 2.66602 4.66699 3.99902 6c2.66699 4 6 6.33301 10 7c10.667 3.33301 19.334 0.666016 26.001 -8.00098
c3.33301 -4.66699 5.66602 -11.334 6.99902 -20.001c0 -0.666992 1 -12.334 3 -35.001c0 -2 0.333008 -13.833 1 -35.5s2 -47.167 4 -76.5s4.33301 -56.666 7 -81.999c5.33301 -48.667 12.333 -85.334 21 -110.001c4.66699 -13.333 9.33398 -22.666 14.001 -27.999
c3.33301 -2.66699 6.16602 -3.5 8.49902 -2.5s5.5 5.83301 9.5 14.5c5.33301 11.333 10 27.333 14 48c8 35.333 14.333 84.666 19 147.999c6.66699 87.333 10 174.333 10 261c0 10 5 15 15 15s15 -5 15 -15c0 -89.333 -3.33301 -177.333 -10 -264
c-5.33301 -63.333 -11.666 -113.666 -18.999 -150.999c-4.66699 -22.667 -10 -40.667 -16 -54c-8 -17.333 -17.333 -27.666 -28 -30.999c-14.667 -4.66699 -27.667 -1 -39 11c-8 8 -15 20.667 -21 38c-10 27.333 -17.667 66.333 -23 117
c-2.66699 25.333 -5 52.666 -7 81.999s-3.33301 55 -4 77s-1 34 -1 36s-0.333008 5.33301 -1 10l-5 -26c-3.33301 -14 -8 -37.333 -14 -70l-12 -65c-12 -60.667 -22.333 -105.667 -31 -135c-5.33301 -20 -10.666 -35.333 -15.999 -46c-3.33301 -6.66699 -7 -12 -11 -16
c-5.33301 -6 -11.666 -8.66699 -18.999 -8c-6.66699 0.666992 -12.334 4 -17.001 10c-2.66699 3.33301 -5.33398 8 -8.00098 14c-4 8.66699 -8 20.334 -12 35.001c-5.33301 18 -9.66602 37.667 -12.999 59c-6 36.667 -8 97.334 -6 182.001c0.666992 41.333 2.66699 76 6 104
c3.33301 34.667 8.33301 59 15 73c4.66699 9.33301 11.5 11.833 20.5 7.5s11.5 -10.833 7.5 -19.5z" />
    <glyph glyph-name="x" unicode="x" horiz-adv-x="337" 
d="M54 1c10.667 17.333 20.002 37.002 28.002 59.002s16.333 47.333 25 76s15.667 50.667 21 66l32 87c-44.667 81.333 -89.667 149 -135 203c-6 8 -5.16699 15.167 2.5 21.5s14.834 5.83301 21.501 -1.5c41.333 -50.667 83 -112.667 125 -186l32 80
c2.66699 5.33301 5.66699 13.333 9 24l8 27c8 22 18.667 39 32 51c7.33301 6.66699 14.333 6.33398 21 -0.999023s6.33398 -14.333 -0.999023 -21c-9.33301 -8.66699 -17.333 -22 -24 -40l-8 -25c-3.33301 -11.333 -6.33301 -20.333 -9 -27l-41 -102
c47.333 -86.667 83.333 -167 108 -241c1.33301 -4 1.16602 -7.83301 -0.500977 -11.5s-4.5 -6.16699 -8.5 -7.5s-7.83301 -1.16602 -11.5 0.500977s-6.16699 4.5 -7.5 8.5c-22 65.333 -53.333 136.333 -94 213l-23 -62c-4.66699 -12.667 -11.334 -33.834 -20.001 -63.501
s-17.334 -56.334 -26.001 -80.001s-18.667 -44.834 -30 -63.501c-5.33301 -8.66699 -12.333 -10.334 -21 -5.00098s-10.334 12.333 -5.00098 21z" />
    <glyph glyph-name="y" unicode="y" horiz-adv-x="311" 
d="M274 461c10 -170 -7.33594 -352.002 -52.0029 -546.002c-6.66699 -28 -16.834 -53.667 -30.501 -77s-28.167 -39.333 -43.5 -48c-10 -5.33301 -19.667 -7 -29 -5c-10 2.66699 -18 9.33398 -24 20.001c-11.333 17.333 -17 47.666 -17 90.999c0 10 5 15 15 15s15 -5 15 -15
c0 -37.333 4 -62.666 12 -75.999c2 -3.33301 4 -5.16602 6 -5.49902s4.66699 0.5 8 2.5c10 5.33301 20.833 17.833 32.5 37.5s20.167 41.834 25.5 66.501c14.667 62.667 26.334 124.667 35.001 186l-1 -1c-6 -7.33301 -13 -7.66602 -21 -0.999023
c-17.333 14.667 -33 31.5 -47 50.5s-25.667 36.5 -35 52.5s-18.666 36.667 -27.999 62s-16.166 45.166 -20.499 59.499s-10.333 35.833 -18 64.5s-13.167 48.667 -16.5 60c-1.33301 4 -1 7.83301 1 11.5s5 6 9 7s7.83301 0.5 11.5 -1.5s5.83398 -5 6.50098 -9
c4 -12 10 -32.333 18 -61l18 -63c4 -14 10.5 -33 19.5 -57s17.667 -43.333 26 -58s19 -30.834 32 -48.501s27.5 -33.5 43.5 -47.5c2 -1.33301 3.33301 -3.33301 4 -6c16 119.333 21 232 15 338c0 4 1.33301 7.66699 4 11s6 5 10 5s7.66699 -1.33301 11 -4s5 -6 5 -10z" />
    <glyph glyph-name="z" unicode="z" horiz-adv-x="396" 
d="M49 462c12.667 7.33301 31.665 13.8369 56.998 19.5039s50.333 8.5 75 8.5c29.333 -0.666992 53.333 -5 72 -13c24.667 -10.667 38.334 -27.334 41.001 -50.001c3.33301 -32 -17 -61.667 -61 -89c-12 -7.33301 -28.667 -16 -50 -26l-28 -13c3.33301 -1.33301 11 -3 23 -5
l24 -6c5.33301 -0.666992 13.166 -2.5 23.499 -5.5s18.5 -5.83301 24.5 -8.5s13.167 -6.5 21.5 -11.5s16.166 -10.5 23.499 -16.5c28.667 -24 47.834 -59 57.501 -105s11.5 -95.333 5.5 -148c-6 -50.667 -18.5 -98.334 -37.5 -143.001s-41.833 -78.334 -68.5 -101.001
c-11.333 -8.66699 -21.333 -14.667 -30 -18s-21 -7 -37 -11c-51.333 -11.333 -92.333 1 -123 37c-26 30.667 -38 70.667 -36 120c1.33301 31.333 8.5 60.833 21.5 88.5s33.167 51.167 60.5 70.5s59.333 29 96 29c10 0 15 -5 15 -15s-5 -15 -15 -15
c-44 0 -79.167 -15.833 -105.5 -47.5s-40.5 -68.834 -42.5 -111.501c-1.33301 -42 8.33398 -75.333 29.001 -100c22.667 -26 54 -34.667 94 -26c14.667 2.66699 25.167 5.33398 31.5 8.00098s13.5 7.66699 21.5 15c23.333 18.667 43.666 48.667 60.999 90s29 86 35 134
c6 49.333 4.66699 94.5 -4 135.5s-25 71.5 -49 91.5c-9.33301 7.33301 -20 13.833 -32 19.5s-21.5 9.5 -28.5 11.5s-19.833 4.83301 -38.5 8.5s-31 6.16699 -37 7.5c-1.33301 0.666992 -3 1 -5 1c-4 0 -7 0.333008 -9 1c-11.333 1.33301 -18.666 6.66602 -21.999 15.999
c-2.66699 7.33301 -1.33398 14 3.99902 20c2.66699 2 6.33398 4 11.001 6c0.666992 0 3 0.666992 7 2l3 1c5.33301 3.33301 19.333 10.333 42 21c20.667 9.33301 36.667 17.666 48 24.999c32.667 20 48 39.667 46 59c-1.33301 11.333 -9 20.333 -23 27
c-14.667 6 -34.667 9.33301 -60 10c-22.667 0 -45.167 -2.5 -67.5 -7.5s-38.5 -10.5 -48.5 -16.5c-8.66699 -5.33301 -15.667 -3.66602 -21 5.00098s-3.66602 15.667 5.00098 21z" />
    <glyph glyph-name="braceleft" unicode="{" horiz-adv-x="418" 
d="M294 671l-28 0.00390625c-13.333 0.666992 -22.666 1 -27.999 1c-20 -0.666992 -34.833 -4.16699 -44.5 -10.5s-16.834 -22.5 -21.501 -48.5c-4.66699 -22.667 -7 -53 -7 -91c0 -9.33301 1 -43 3 -101c1.33301 -38.667 1.66602 -64.667 0.999023 -78
c-2.66699 -36.667 -28.667 -67.334 -78 -92.001c32 -14.667 55 -39.334 69 -74.001c6 -15.333 10.833 -33.166 14.5 -53.499s5.83398 -36.333 6.50098 -48s1.33398 -29.5 2.00098 -53.5c2.66699 -66 10.667 -114.333 24 -145c6.66699 -16 17.5 -29.5 32.5 -40.5
s30.5 -17.833 46.5 -20.5c36 -5.33301 58.333 10.667 67 48c1.33301 4 3.66602 7.16699 6.99902 9.5s7 3 11 2s7.16699 -3.16699 9.5 -6.5s3.16602 -7 2.49902 -11c-6.66699 -28 -19.334 -47.833 -38.001 -59.5s-39.667 -15.834 -63 -12.501
c-21.333 3.33301 -41.5 12.166 -60.5 26.499s-33.167 31.833 -42.5 52.5c-14.667 34 -23.334 86 -26.001 156c-0.666992 23.333 -1.33398 40.833 -2.00098 52.5s-2.66699 26.5 -6 44.5s-7.66602 33.667 -12.999 47c-11.333 28.667 -29.666 48.667 -54.999 60
c-8 3.33301 -16.333 6 -25 8c-2.66699 0 -5 0.333008 -7 1h-2h-1h-1h-2c-0.666992 0.666992 -1.33398 1 -2.00098 1c-2.66699 1.33301 -4.66699 3.33301 -6 6c-2.66699 3.33301 -3.66699 6.66602 -3 9.99902c0.666992 4 2.33398 7.33301 5.00098 10c2 2 4.33301 3.33301 7 4
c1.33301 0.666992 4.33301 1.66699 9 3c10 2 18.333 4.66699 25 8c42 20.667 63.667 43.667 65 69c0.666992 12 0.333984 37 -0.999023 75c-2 57.333 -3 91.333 -3 102c0 40 2.33301 72.333 7 97c6.66699 34 18.334 56.333 35.001 67c14.667 10 34.667 15.333 60 16
c6.66699 0 16.667 -0.333008 30 -1h25c4.66699 0 8.5 -1.33301 11.5 -4s4.5 -6.16699 4.5 -10.5s-1.33301 -8 -4 -11s-6 -4.5 -10 -4.5z" />
    <glyph glyph-name="bar" unicode="|" horiz-adv-x="187" 
d="M146 663c-5.33301 -44 -5.66797 -105.669 -1.00098 -185.002c5.33301 -96 7.66602 -159.333 6.99902 -190c-0.666992 -28 -3.33398 -72.833 -8.00098 -134.5s-6.83398 -115.5 -6.50098 -161.5s4.5 -89 12.5 -129c0.666992 -4 -0.166016 -7.66699 -2.49902 -11
s-5.5 -5.5 -9.5 -6.5s-7.66699 -0.333008 -11 2s-5.66602 5.5 -6.99902 9.5c-8 41.333 -12.167 86 -12.5 134s1.83398 103.333 6.50098 166s7.33398 106.334 8.00098 131.001c0.666992 30 -1.66602 92.667 -6.99902 188c-4.66699 80.667 -4.33398 144.334 0.999023 191.001
c0.666992 4 2.5 7.33301 5.5 10s6.66699 3.66699 11 3s7.83301 -2.5 10.5 -5.5s3.66699 -6.83301 3 -11.5z" />
    <glyph glyph-name="braceright" unicode="}" horiz-adv-x="307" 
d="M21 687c11.333 6.66699 23.498 10.3369 36.498 11.0039s24.5 -0.333008 34.5 -3c30 -4 50.667 -20 62 -48c8 -19.333 11 -46.666 9 -81.999c-0.666992 -8.66699 -3.66699 -38 -9 -88c-4 -32 -4.66699 -54.333 -2 -67c6.66699 -34.667 27.667 -59.334 63 -74.001
c4.66699 -2 11.334 -4.66699 20.001 -8c8 -2.66699 14 -5 18 -7c6.66699 -3.33301 11.667 -7.33301 15 -12c5.33301 -6.66699 6.33301 -14.667 3 -24c-2 -4 -6 -9 -12 -15l-16 -13c-15.333 -12 -23.666 -19 -24.999 -21c-16 -18.667 -26.167 -40.334 -30.5 -65.001
s-5.83301 -55 -4.5 -91c0 -7.33301 0.666992 -19.333 2 -36s2.33301 -33.334 3 -50.001s1 -32.334 1 -47.001c-0.666992 -63.333 -9.66699 -107.666 -27 -132.999c-2 -4 -4.5 -7.33301 -7.5 -10s-6.16699 -4.83398 -9.5 -6.50098s-6.33301 -3 -9 -4s-6.16699 -2 -10.5 -3
s-7.33301 -1.66699 -9 -2s-4.83398 -0.5 -9.50098 -0.5l-7 -1c-4.66699 -0.666992 -8.5 0.333008 -11.5 3s-4.83301 6.16699 -5.5 10.5s0.333008 8 3 11s6 4.83301 10 5.5h4c20.667 2 33.334 6.33301 38.001 13c13.333 20.667 20.333 59.667 21 117c0 20 -1 47 -3 81l-3 50
c-0.666992 25.333 -0.666992 46.166 0 62.499s4.5 35.666 11.5 57.999s17.5 41.5 31.5 57.5c2.66699 2.66699 12 10.667 28 24c6.66699 4.66699 11.334 8.66699 14.001 12l2 2c-2.66699 1.33301 -7.66699 3.33301 -15 6l-22 8c-45.333 18.667 -72.333 50.667 -81 96
c-2.66699 14.667 -2 40 2 76c5.33301 50 8.33301 78.667 9 86c1.33301 31.333 -1 54.666 -7 69.999c-6.66699 16.667 -19.334 26.334 -38.001 29.001c-12 2 -21.833 2.83301 -29.5 2.5s-14.834 -2.5 -21.501 -6.5c-8.66699 -5.33301 -15.667 -3.66602 -21 5.00098
s-3.66602 15.667 5.00098 21z" />
    <glyph glyph-name="asciitilde" unicode="~" horiz-adv-x="540" 
d="M58 283c1.33301 17.333 6.32812 30.999 14.9951 40.999c6.66699 8.66699 18.334 17 35.001 25c32 14.667 70 17.334 114 8.00098c14.667 -3.33301 33 -8.33301 55 -15c31.333 -10 48.333 -15.667 51 -17c36.667 -10.667 65 -13 85 -7c26 8.66699 47 33 63 73
c1.33301 3.33301 4 5.83301 8 7.5s7.83301 1.83398 11.5 0.500977s6.33398 -4 8.00098 -8s1.83398 -8 0.500977 -12c-19.333 -48.667 -46.666 -78.334 -81.999 -89.001c-25.333 -8 -59.333 -5.66699 -102 7c-3.33301 0.666992 -20.666 6 -51.999 16
c-21.333 6.66699 -38.666 11.667 -51.999 15c-38 8 -70 5.66699 -96 -7c-12 -5.33301 -20 -10.666 -24 -15.999c-4.66699 -5.33301 -7.33398 -13.333 -8.00098 -24c-0.666992 -4 -2.5 -7.33301 -5.5 -10s-6.5 -3.83398 -10.5 -3.50098s-7.33301 2 -10 5s-4 6.5 -4 10.5z" />
    <glyph glyph-name="exclamdown" unicode="&#xa1;" horiz-adv-x="258" 
d="M146 281c0 -88.667 0.333008 -141.331 1 -157.998c0 -2 1.66699 -23.333 5 -64c4 -38.667 6.33301 -71.667 7 -99c0.666992 -40 -1.33301 -72 -6 -96c-6.66699 -34.667 -20 -54.667 -40 -60c-17.333 -5.33301 -32 -1.33301 -44 12
c-8.66699 9.33301 -15.334 23 -20.001 41c-6.66699 27.333 -9 53.666 -7 78.999c1.33301 17.333 4 35.166 8 53.499s9 39.5 15 63.5s10 40.5 12 49.5s8.33301 41.167 19 96.5c8 40 16 73 24 99c1.33301 3.33301 3.83301 6 7.5 8s7.33398 2.33301 11.001 1
s6.5 -3.83301 8.5 -7.5s2.33301 -7.5 1 -11.5zM116 143.003c-3.33301 -18.667 -6.33301 -34.333 -9 -47l-13 -52c-6 -23.333 -10.667 -43.333 -14 -60c-4 -17.333 -6.66699 -34 -8 -50c-2 -22.667 0 -46 6 -70c4 -12.667 8.33301 -22 13 -28c4 -4 8.66699 -5.33301 14 -4
c8 2.66699 14 15.334 18 38.001c4.66699 21.333 6.66699 51 6 89c-0.666992 26.667 -2.66699 59 -6 97c-4 42 -6 63.667 -6 65c0 7.33301 -0.333008 14.666 -1 21.999zM84 403.004c-11.333 15.333 -20.665 30.667 -27.998 46c-8 17.333 -12.667 33 -14 47
c-2.66699 18.667 0.666016 33.667 9.99902 45c4.66699 6 10.667 8.33301 18 7c3.33301 -0.666992 6.66602 -2.33398 9.99902 -5.00098l4 -4l2 -1c20 -12.667 35.667 -29 47 -49c12.667 11.333 26 20.333 40 27c8.66699 4 15 6.33301 19 7c6 0.666992 11.667 -0.333008 17 -3
c5.33301 -3.33301 9.33301 -8.66602 12 -15.999c4.66699 -13.333 0.666992 -28 -12 -44c-8 -10.667 -20.333 -22.334 -37 -35.001c-12 -9.33301 -26.667 -19.333 -44 -30c3.33301 -6.66699 2.66602 -12.667 -2.00098 -18c-7.33301 -6.66699 -14.666 -6.66699 -21.999 0l-1 2
l-3 -2c-8.66699 -5.33301 -15.667 -3.66602 -21 5.00098c-4.66699 8.66699 -3 15.667 5 21zM71.001 511.005c0 -3.33301 0.332031 -7.33105 0.999023 -11.998c0.666992 -10.667 4.33398 -23 11.001 -37c7.33301 -14.667 16 -29.334 26 -44.001
c17.333 10.667 32.333 21 45 31c14.667 11.333 25.334 21.333 32.001 30c4 5.33301 6.33301 9.66602 7 12.999c-0.666992 0 -1.83398 -0.5 -3.50098 -1.5s-3.16699 -1.83301 -4.5 -2.5c-14 -6.66699 -28 -16.667 -42 -30c0 -8.66699 -4.33301 -13.667 -13 -15h-2
c-6.66699 -6 -13.334 -6 -20.001 0c-7.33301 6.66699 -7.66602 13.667 -0.999023 21l3 3c-7.33301 18 -20.333 32.667 -39 44z" />
    <glyph glyph-name="periodcentered" unicode="&#xb7;" horiz-adv-x="407" 
d="M247 382c1.33301 5.33301 4.33105 9.83496 8.99805 13.502s11 5.5 19 5.5c10.667 0.666992 22.334 -5 35.001 -17c6 8 11.667 15 17 21c4 4.66699 7.33301 8 10 10c6 4.66699 11.333 7 16 7c5.33301 0.666992 10 -1 14 -5
c2.66699 -2.66699 4.33398 -6.33398 5.00098 -11.001s0.333984 -11 -0.999023 -19c-2.66699 -10.667 -10 -23.667 -22 -39s-19 -25.333 -21 -30c-0.666992 -0.666992 -1 -1.33398 -1 -2.00098c0 -3.33301 -1 -6.66602 -3 -9.99902c-6.66699 -7.33301 -14 -8 -22 -2l-2 2
c-2.66699 0.666992 -5 2 -7 4c-6.66699 5.33301 -14 12.333 -22 21l-2 2l-18 16l-6 6c-1.33301 1.33301 -2.33301 2.66602 -3 3.99902c-0.666992 0.666992 -1.33398 1.66699 -2.00098 3c-2 6 -1 11.333 3 16z" />
    <glyph glyph-name="questiondown" unicode="&#xbf;" horiz-adv-x="446" 
d="M245 571c-19.333 0.666992 -35.668 2.33203 -49.001 4.99902c-16 4.66699 -33 13.334 -51 26.001c-12 8.66699 -19.667 17.334 -23 26.001c-2.66699 7.33301 -2.66699 14.333 0 21c2.66699 6 7.66699 11.333 15 16c18 10.667 38.667 7.33398 62 -9.99902
c9.33301 -6.66699 17 -14.667 23 -24c2.66699 7.33301 6.66699 14.666 12 21.999c12.667 18.667 29.334 33.667 50.001 45c9.33301 6 18 9.66699 26 11c12.667 2.66699 22.167 0.166992 28.5 -7.5s7.5 -18.167 3.5 -31.5c-3.33301 -10.667 -10 -24 -20 -40
c-12.667 -19.333 -22 -33 -28 -41v-3c0 -10 -5 -15 -15 -15h-1l-8 -8c-7.33301 -6.66699 -14.333 -6.33398 -21 0.999023c-2 2 -3.33301 4.33301 -4 7zM247.998 600.998l17 -0.000976562c7.33301 8.66699 17.666 23.667 30.999 45c8.66699 13.333 14.334 24 17.001 32v1
c-4 -1.33301 -8.66699 -3.66602 -14 -6.99902c-16.667 -9.33301 -30.334 -21.333 -41.001 -36c-9.33301 -14 -12.666 -25.667 -9.99902 -35zM150.998 637.997c1.33301 -3.33301 5.00098 -7.33301 11.001 -12c12 -8 25 -14.667 39 -20
c-2.66699 8.66699 -9.33398 17 -20.001 25c-12.667 9.33301 -22 12 -28 8zM396.999 -171.003c-2.66699 0 -12.832 -0.496094 -30.499 -1.49609s-30.167 -1.5 -37.5 -1.5s-17.666 0.166992 -30.999 0.5s-25 1.16602 -35 2.49902c-68 10 -115 36.667 -141 80
c-28 44.667 -27.667 98.667 1 162c9.33301 20 26.333 49 51 87c29.333 44.667 48 75 56 91c38.667 71.333 46 131 22 179c-4.66699 9.33301 -2.5 16.166 6.5 20.499s15.5 2.16602 19.5 -6.50098c29.333 -58 22.333 -127 -21 -207c-10 -18.667 -29.333 -49.667 -58 -93
c-24 -36.667 -40 -64.334 -48 -83.001c-24.667 -54 -26 -99 -4 -135c22 -34.667 62 -56.334 120 -65.001c9.33301 -1.33301 20.166 -2.16602 32.499 -2.49902s21.833 -0.5 28.5 -0.5s18.667 0.5 36 1.5s27.666 1.5 30.999 1.5c4.66699 0 8.5 -1.33301 11.5 -4
s4.5 -6.16699 4.5 -10.5s-1.33301 -8 -4 -11s-6 -4.5 -10 -4.5z" />
    <glyph glyph-name="Aacute" unicode="&#xc1;" horiz-adv-x="309" 
d="M106 333c20.667 2.66699 52.668 4.00293 96.001 4.00293l-22 193c0 3.33301 -0.5 10.666 -1.5 21.999s-2.16699 23.666 -3.5 36.999s-3 25.666 -5 36.999c-2.66699 21.333 -6.33398 38.333 -11.001 51c-3.33301 8.66699 -6.33301 14.667 -9 18
c-1.33301 -2 -3 -4.33301 -5 -7c-4.66699 -8.66699 -9.33398 -21.667 -14.001 -39c-8.66699 -30.667 -13.667 -55.667 -15 -75c-5.33301 -74.667 -8.66602 -155 -9.99902 -241zM75.001 50.0029l-0.000976562 64.001v68v64c0 30 0.166992 52.833 0.5 68.5
s0.833008 36.834 1.5 63.501s1.33398 49.5 2.00098 68.5s1.66699 40.167 3 63.5l4 66c1.33301 21.333 6.66602 48.333 15.999 81c5.33301 20 11 35.333 17 46c4.66699 7.33301 9.33398 13 14.001 17c8 6 16.333 7.33301 25 4c12 -4 21.667 -16.333 29 -37
c5.33301 -14.667 9.66602 -33.334 12.999 -56.001c2 -12 3.66699 -24.667 5 -38s2.33301 -25.833 3 -37.5s1.33398 -18.834 2.00098 -21.501c14.667 -136.667 36 -312.667 64 -528c0.666992 -4 -0.333008 -7.66699 -3 -11s-6 -5.33301 -10 -6s-7.66699 0.333008 -11 3
s-5.33301 6 -6 10l-38 305c-46.667 0 -80 -1.33301 -100 -4c-0.666992 -34.667 -1 -119 -1 -253c0 -10 -5 -15 -15 -15s-15 5 -15 15zM167 752.004c2 13.333 5.49902 25.666 10.499 36.999s12.833 24.833 23.5 40.5s16.667 25.167 18 28.5
c5.33301 8.66699 12.333 10.334 21 5.00098s10.334 -12.333 5.00098 -21l-20 -30c-9.33301 -14 -16 -25.5 -20 -34.5s-6.66699 -18.833 -8 -29.5c-0.666992 -4 -2.66699 -7.33301 -6 -10s-7 -3.66699 -11 -3s-7.33301 2.66699 -10 6s-3.66699 7 -3 11z" />
    <glyph glyph-name="Eacute" unicode="&#xc9;" horiz-adv-x="517" 
d="M81 641l-17.001 -1.99805c-4.66699 -0.666992 -8.5 0.333008 -11.5 3s-4.83301 6.16699 -5.5 10.5s0.333008 8 3 11s6 4.83301 10 5.5l19 2c0 3.33301 -0.333008 6.66602 -1 9.99902c-0.666992 4 0.333008 7.66699 3 11s6 5.33301 10 6s7.66699 -0.333008 11 -3
s5.33301 -6 6 -10c0.666992 -3.33301 1 -7 1 -11c122 13.333 214 20 276 20c10 0 15 -5 15 -15s-5 -15 -15 -15c-60.667 0 -152 -6.66699 -274 -20c0 -17.333 -1.16699 -41.833 -3.5 -73.5s-3.5 -52.834 -3.5 -63.501
c-1.33301 -66.667 -1.66602 -123.334 -0.999023 -170.001c18.667 0.666992 67.334 5 146.001 13c4 0.666992 7.5 -0.333008 10.5 -3s4.83301 -6.16699 5.5 -10.5s-0.333008 -8 -3 -11s-6.33398 -4.83301 -11.001 -5.5c-78.667 -8 -128 -12.333 -148 -13
c0.666992 -48 2.33398 -93 5.00098 -135c3.33301 -52 6.66602 -86.333 9.99902 -103c8 -39.333 22.667 -65 44 -77c18 -10.667 47.333 -12.334 88 -5.00098c14 2 31.667 6 53 12c28 7.33301 43.667 11.333 47 12c34 7.33301 70.333 22.333 109 45
c8.66699 4.66699 15.5 2.83398 20.5 -5.49902s3.5 -15.166 -4.5 -20.499c-41.333 -24 -81 -40.333 -119 -49l-45 -11c-22 -6 -40.333 -10.333 -55 -13c-48.667 -8 -85.334 -5 -110.001 9c-28 16.667 -47 49 -57 97c-4 18 -7.66699 53.667 -11 107
c-5.33301 88 -6.66602 200.333 -3.99902 337c0 14 1.16699 36 3.5 66s3.5 52.667 3.5 68zM220.999 759.002c14 10 31.332 30.001 51.999 60.001c22.667 34 42 57 58 69c8 6 15 5 21 -3s5 -15 -3 -21c-13.333 -10 -30.666 -30.667 -51.999 -62
c-22.667 -32.667 -42.667 -55 -60 -67c-8 -6 -14.833 -4.83301 -20.5 3.5s-4.16699 15.166 4.5 20.499z" />
    <glyph glyph-name="Iacute" unicode="&#xcd;" horiz-adv-x="281" 
d="M45 694c8 0 23.1699 -0.164062 45.5029 -0.49707s38.833 -0.333008 49.5 0s24.5 1.16602 41.5 2.49902s32.5 3.66602 46.5 6.99902c4 0.666992 7.66699 -0.166016 11 -2.49902s5.5 -5.5 6.5 -9.5s0.333008 -7.66699 -2 -11s-5.5 -5.66602 -9.5 -6.99902
c-26 -6 -57.667 -9.33301 -95 -10c2.66699 -29.333 5 -62.5 7 -99.5s3.33301 -67.167 4 -90.5s1.33398 -58.333 2.00098 -105c1.33301 -38.667 2.33301 -69.667 3 -93c0.666992 -18.667 0.5 -44.5 -0.5 -77.5s-1.16699 -62.667 -0.5 -89s3 -50.833 7 -73.5
c0.666992 -3.33301 0 -6.66602 -2 -9.99902c7.33301 0 13.666 0.333008 18.999 1c4 0 7.66699 -1.33301 11 -4s5 -6 5 -10s-1.33301 -7.66699 -4 -11s-6 -5 -10 -5c-10.667 -0.666992 -26.334 -1.33398 -47.001 -2.00098s-39 -1.5 -55 -2.5s-30.667 -3.16699 -44 -6.5
c-4 -0.666992 -7.66699 0.166016 -11 2.49902s-5.5 5.5 -6.5 9.5s-0.333008 7.66699 2 11s5.5 5.66602 9.5 6.99902c22.667 4.66699 57.667 7.66699 105 9c-0.666992 2 -1.33398 3.66699 -2.00098 5c-4 24 -6.33301 50 -7 78s-0.5 58.667 0.5 92s1.16699 58.666 0.5 75.999
c-0.666992 18.667 -1.33398 49.667 -2.00098 93c-0.666992 46.667 -1.5 81.667 -2.5 105s-2.5 53.333 -4.5 90s-4.33301 70 -7 100c-5.33301 0 -15.333 0.166992 -30 0.5s-26 0.5 -34 0.5c-10 0 -15 5 -15 15s5 15 15 15zM133.003 761.003
c14 20.667 35.3311 43.998 63.998 69.998c7.33301 6.66699 14.333 6.33398 21 -0.999023s6.33398 -14.333 -0.999023 -21c-26.667 -24.667 -46.667 -46.667 -60 -66c-5.33301 -8 -12.166 -9.16699 -20.499 -3.5s-9.5 12.834 -3.5 21.501z" />
    <glyph glyph-name="Ntilde" unicode="&#xd1;" horiz-adv-x="483" 
d="M85 0c-2.66699 11.333 -3.66504 27.666 -2.99805 48.999s1.5 37.5 2.5 48.5s2.66699 27 5 48s3.83301 36.5 4.5 46.5c6.66699 81.333 13 179.666 19 294.999v36c0 20.667 0.333008 37.334 1 50.001c0.666992 22 1.66699 39 3 51c0.666992 8 1.66699 14.333 3 19
c1.33301 3.33301 2.66602 6 3.99902 8c2 4.66699 5.33301 7.66699 10 9c7.33301 2.66699 14.666 1 21.999 -5c4 -3.33301 8 -8 12 -14c5.33301 -9.33301 12 -22.333 20 -39c8 -18.667 16.667 -41 26 -67c62.667 -175.333 115 -306.666 157 -393.999l15 -37
c8.66699 -20 15.667 -35.333 21 -46c4 -8 7.66699 -15 11 -21c0 9.33301 -0.666992 24 -2 44l-2 38l-3 39c-0.666992 10 -1 17.333 -1 22c0 8 -0.833008 39.5 -2.5 94.5s-2.5 92.167 -2.5 111.5v92c0 42 1 79 3 111s4.66699 64 8 96c0.666992 4 2.5 7.33301 5.5 10
s6.66699 3.66699 11 3s7.83301 -2.5 10.5 -5.5s3.66699 -6.83301 3 -11.5c-3.33301 -30.667 -6 -61.834 -8 -93.501s-3 -68.5 -3 -110.5v-91c0 -18.667 0.833008 -55.5 2.5 -110.5s2.5 -86.833 2.5 -95.5c0 -4.66699 0.333008 -12 1 -22l3 -38l2 -37
c1.33301 -23.333 2 -41 2 -53v-19c-0.666992 -2.66699 -1 -5 -1 -7c-1.33301 -6 -4.33301 -10 -9 -12c-8 -4 -15.667 -3.33301 -23 2c-4.66699 2.66699 -9 7 -13 13c-6.66699 8.66699 -14 21.667 -22 39c-5.33301 10 -12.166 25 -20.499 45s-13.833 32.667 -16.5 38
c-35.333 75.333 -87.666 207.333 -156.999 396c-9.33301 25.333 -18 47 -26 65c-4.66699 11.333 -9.33398 20.666 -14.001 27.999c-0.666992 -11.333 -1.33398 -26.333 -2.00098 -45c-0.666992 -13.333 -1 -30.333 -1 -51v-37c-6 -115.333 -12.333 -213.666 -19 -294.999
c-0.666992 -11.333 -2.16699 -27.333 -4.5 -48s-4 -36.167 -5 -46.5s-1.83301 -25.666 -2.5 -45.999s0.333008 -35.5 3 -45.5c0.666992 -4 -0.333008 -7.66699 -3 -11s-6 -5.33301 -10 -6s-7.66699 0.333008 -11 3s-5.33301 6 -6 10zM80.002 692
c18.667 36.667 40.0039 59.6689 64.0039 69.002c19.333 7.33301 41.666 6.33301 66.999 -3c6.66699 -2 16.667 -6 30 -12c12 -6 21.333 -10 28 -12c18.667 -6.66699 35 -7.33398 49 -2.00098c4.66699 2 9.16699 4.33301 13.5 7s9.16602 6.33398 14.499 11.001l12 12
c2 2 6.5 6.83301 13.5 14.5s11.167 12.167 12.5 13.5c6.66699 7.33301 13.667 7.66602 21 0.999023s7.66602 -13.667 0.999023 -21c-0.666992 -0.666992 -4.5 -5 -11.5 -13s-12 -13.5 -15 -16.5s-7.66699 -7.33301 -14 -13s-12.5 -10.334 -18.5 -14.001
s-12.333 -6.83398 -19 -9.50098c-20 -8 -43 -7.33301 -69 2c-7.33301 2.66699 -17.333 6.66699 -30 12c-12.667 6 -22 10 -28 12c-18.667 6.66699 -34 7.66699 -46 3c-16.667 -6.66699 -33 -25 -49 -55c-4.66699 -8.66699 -11.334 -10.667 -20.001 -6
s-10.667 11.334 -6 20.001z" />
    <glyph glyph-name="Oacute" unicode="&#xd3;" horiz-adv-x="440" 
d="M372 558c-5.33301 27.333 -17.999 51.8301 -37.999 73.4971s-43.333 37.167 -70 46.5c-26 10 -52.667 12 -80 6s-50.333 -20.667 -69 -44c-32 -40 -54.667 -108.667 -68 -206c-12.667 -92 -11.667 -165.333 3 -220c12.667 -51.333 40.334 -90.666 83.001 -117.999
c36 -23.333 76.333 -37.666 121 -42.999c52 -6 85.667 6.33301 101 37c7.33301 14 12.666 42 15.999 84c3.33301 37.333 4.66602 82 3.99902 134c-0.666992 101.333 -5.33398 179 -14.001 233c-1.33301 8.66699 2.33398 14.334 11.001 17.001zM391.001 544.997
c8.66699 -54.667 13.3311 -133.668 13.998 -237.001c0.666992 -54.667 -0.666016 -100 -3.99902 -136c-4 -45.333 -10.667 -77.333 -20 -96c-21.333 -43.333 -64.666 -61 -129.999 -53c-50 6 -94.667 21.667 -134 47c-49.333 32 -81.666 77.333 -96.999 136
c-15.333 59.333 -16.333 136.666 -3 231.999c14 102 38.667 175.333 74 220c23.333 29.333 52.166 47.833 86.499 55.5s66.5 5.16699 96.5 -7.5c31.333 -11.333 58.833 -29.666 82.5 -54.999s38.834 -54.666 45.501 -87.999c1.33301 -9.33301 -2.33398 -15.333 -11.001 -18z
M177.998 766.996c12 15.333 30.334 37 55.001 65l56 62c6 7.33301 12.833 7.83301 20.5 1.5s8.16699 -13.5 1.5 -21.5l-56 -62c-22.667 -25.333 -40.334 -46.333 -53.001 -63c-6 -8 -13 -9 -21 -3s-9 13 -3 21z" />
    <glyph glyph-name="Uacute" unicode="&#xda;" horiz-adv-x="426" 
d="M103 703c6.66699 -16.667 9 -41.002 7 -73.002l-4 -36c-1.33301 -14 -2 -24.333 -2 -31c-2 -103.333 -1.33301 -190 2 -260c2.66699 -59.333 7 -107.666 13 -144.999c7.33301 -42.667 16.333 -70.334 27 -83.001c16.667 -18.667 35 -32.334 55 -41.001
s39.5 -11.834 58.5 -9.50098s36 10.333 51 24s26.5 32.834 34.5 57.501c12 38.667 16.667 98.334 14 179.001c-0.666992 14 -1.83398 36.167 -3.50098 66.5s-2.5 51.833 -2.5 64.5v59c0.666992 12 2.33398 37 5.00098 75s3.83398 69.333 3.50098 94s-2.5 48.667 -6.5 72
c-0.666992 4.66699 0.166016 8.66699 2.49902 12s5.66602 5.33301 9.99902 6s8.16602 -0.166016 11.499 -2.49902s5.33301 -5.5 6 -9.5c4 -25.333 6.16699 -51 6.5 -77s-0.833984 -58.667 -3.50098 -98l-5 -74v-57c0 -12.667 0.833008 -34 2.5 -64s2.83398 -52 3.50098 -66
c2.66699 -84 -2.66602 -146.667 -15.999 -188c-9.33301 -30 -23.666 -53.833 -42.999 -71.5s-41.666 -28.167 -66.999 -31.5c-24 -3.33301 -48.333 0.333984 -73 11.001s-46.667 27 -66 49c-14.667 16 -26 49 -34 99c-6.66699 39.333 -11.334 88.333 -14.001 147
c-3.33301 70.667 -4 158 -2 262c0 8 1 19.333 3 34c1.33301 18 2.33301 29.667 3 35c2 27.333 0.333008 47 -5 59c-4 9.33301 -1.33301 16 8 20s16 1.33301 20 -8zM182 669.998c11.333 13.333 27.332 36.333 47.999 69c21.333 34 38 58.667 50 74
c6.66699 7.33301 13.834 7.83301 21.501 1.5s8.5 -13.5 2.5 -21.5c-11.333 -13.333 -27.333 -36.5 -48 -69.5s-38 -57.5 -52 -73.5c-6 -7.33301 -12.833 -7.83301 -20.5 -1.5s-8.16699 13.5 -1.5 21.5z" />
    <glyph glyph-name="aacute" unicode="&#xe1;" horiz-adv-x="471" 
d="M257 347c-13.333 22 -30 40.335 -50 55.002c-35.333 26 -64.666 28.667 -87.999 8c-16 -14 -29.667 -38 -41 -72s-19 -71.833 -23 -113.5s-3.33301 -80 2 -115s14.666 -60.5 27.999 -76.5c8.66699 -10.667 20.5 -18.5 35.5 -23.5s30.167 -6.16699 45.5 -3.5
c45.333 7.33301 74 41.666 86 102.999c2 12.667 3.66699 27 5 43s2 29.5 2 40.5s-0.166992 25.333 -0.5 43s-0.5 29.5 -0.5 35.5c0 0.666992 -0.333008 6.33398 -1 17.001s-1 19.667 -1 27c-0.666992 11.333 -0.666992 20.666 0 27.999
c0 1.33301 0.333008 2.66602 1 3.99902zM288 241.002c1.33301 -60.667 -1.00586 -106.668 -7.00586 -138.001c-14 -74.667 -51 -117 -111 -127c-20 -3.33301 -39.833 -1.66602 -59.5 5.00098s-36.167 18 -49.5 34c-16 20 -27 49.5 -33 88.5s-7 80.5 -3 124.5
s12.333 84.667 25 122s29 64.666 49 81.999c12.667 11.333 26.834 18 42.501 20s30.167 0.5 43.5 -4.5s26.666 -12.167 39.999 -21.5c19.333 -14 36.333 -31.667 51 -53c4.66699 0.666992 8.66699 -0.333008 12 -3c4 -2.66699 7 -6.66699 9 -12s4.33301 -14 7 -26
c0.666992 -5.33301 2.33398 -16.666 5.00098 -33.999s5 -30.666 7 -39.999c1.33301 -6.66699 3.83301 -21 7.5 -43s7.33398 -41.5 11.001 -58.5s7.83398 -33.167 12.501 -48.5c18.667 -57.333 45 -92 79 -104c4 -1.33301 6.83301 -3.83301 8.5 -7.5
s1.83398 -7.5 0.500977 -11.5s-3.83301 -6.83301 -7.5 -8.5s-7.5 -1.83398 -11.5 -0.500977c-43.333 15.333 -75.666 56.333 -96.999 123c-7.33301 22.667 -17.666 70 -30.999 142zM162.994 563.001c13.333 19.333 34.332 44.668 62.999 76.001
c6.66699 7.33301 13.667 7.66602 21 0.999023s7.66602 -13.667 0.999023 -21c-27.333 -30.667 -47.666 -55.334 -60.999 -74.001c-5.33301 -8 -12.166 -9.16699 -20.499 -3.5s-9.5 12.834 -3.5 21.501z" />
    <glyph glyph-name="eacute" unicode="&#xe9;" horiz-adv-x="303" 
d="M71 220l-1.00098 -2.99707c-8.66699 -53.333 -8 -95 2 -125c11.333 -31.333 33.666 -45.333 66.999 -42c17.333 1.33301 32.333 5.66602 45 12.999s26 18.333 40 33c6.66699 7.33301 13.667 7.66602 21 0.999023s7.66602 -13.667 0.999023 -21
c-16.667 -17.333 -32.667 -30.5 -48 -39.5s-34.333 -14.5 -57 -16.5c-48.667 -4 -81 17 -97 63c-12 34.667 -13.333 81 -4 139c8.66699 49.333 22.667 96.333 42 141c8.66699 20.667 17.334 37.667 26.001 51c10.667 15.333 21 24.333 31 27
c19.333 5.33301 38.666 -3.33398 57.999 -26.001c13.333 -16 26.333 -38.667 39 -68c10.667 -24.667 19.334 -49 26.001 -73c2.66699 -11.333 4.66699 -20.666 6 -27.999c1.33301 -10 1 -17.667 -1 -23c-1.33301 -3.33301 -3.66602 -6 -6.99902 -8
c-1.33301 -0.666992 -3 -1.33398 -5 -2.00098c-2 0 -4.33301 -0.333008 -7 -1c-4 -0.666992 -10 -1 -18 -1c-12 -0.666992 -29.333 -1 -52 -1c-13.333 0.666992 -31.166 1.16699 -53.499 1.5s-35.833 0.5 -40.5 0.5c-6 0 -10.333 2.66699 -13 8zM83.999 242.003
c4.66699 0 18.1689 -0.168945 40.502 -0.501953s40.5 -0.833008 54.5 -1.5c21.333 0 38 0.333008 50 1h9l-5 25c-6.66699 23.333 -14.667 46.333 -24 69c-12 26.667 -23.667 47 -35 61c-10.667 12.667 -19.667 18.334 -27 17.001
c-2.66699 -1.33301 -7.33398 -6.66602 -14.001 -15.999c-8 -11.333 -16 -26.333 -24 -45c-14.667 -35.333 -26.334 -73.333 -35.001 -114c2.66699 2.66699 6 4 10 4zM95.001 537.001c14.667 38 30.6689 76.334 48.002 115.001c4.66699 9.33301 11.5 11.833 20.5 7.5
s11.5 -10.833 7.5 -19.5c-17.333 -38 -33.333 -75.667 -48 -113c-1.33301 -4 -4 -6.83301 -8 -8.5s-7.83301 -1.83398 -11.5 -0.500977s-6.33398 4 -8.00098 8s-1.83398 7.66699 -0.500977 11z" />
    <glyph glyph-name="iacute" unicode="&#xed;" horiz-adv-x="226" 
d="M105 432c-6.66699 -120.667 2.33008 -250.332 26.9971 -388.999c0.666992 -4.66699 -0.166016 -8.66699 -2.49902 -12s-5.66602 -5.33301 -9.99902 -6s-8.16602 0.166016 -11.499 2.49902s-5.33301 5.5 -6 9.5c-24.667 144 -33.667 276.333 -27 397
c0 4 1.66699 7.33301 5 10s7 4 11 4s7.33301 -1.66699 10 -5s4 -7 4 -11zM78.9971 555.002c9.33301 14 23.668 31.334 43.001 52.001c20.667 20.667 34.667 36 42 46c6 8 13 9 21 3s9 -13 3 -21c-8 -10 -22.667 -26.333 -44 -49c-18.667 -19.333 -31.667 -35 -39 -47
c-5.33301 -8.66699 -12.333 -10.334 -21 -5.00098s-10.334 12.333 -5.00098 21z" />
    <glyph glyph-name="ntilde" unicode="&#xf1;" 
d="M85 25v-1v1zM68 469c-5.33301 -25.333 -3.66113 -72.6699 5.00586 -142.003l2 -19c5.33301 14.667 11.666 28.334 18.999 41.001c12.667 21.333 29 39.5 49 54.5s41.333 24.833 64 29.5c24 5.33301 47.167 3.16602 69.5 -6.50098s41.166 -27.167 56.499 -52.5
c27.333 -45.333 37.666 -107 30.999 -185c-0.666992 -8.66699 -4.33398 -40 -11.001 -94c-4.66699 -36.667 -7 -65.667 -7 -87c0 -10 -5 -15 -15 -15s-15 5 -15 15c0 22.667 2.33301 53 7 91c6.66699 50 10.334 81 11.001 93c6 70.667 -3 126 -27 166
c-23.333 38.667 -54.666 54 -93.999 46c-18 -4 -35.333 -12.167 -52 -24.5s-30.334 -27.833 -41.001 -46.5c-18 -30 -29.333 -67.333 -34 -112c2 -21.333 3.33301 -38.333 4 -51c2 -41.333 2.33301 -71 1 -89c-0.666992 -11.333 -2 -25 -4 -41
c-0.666992 -5.33301 -1 -10 -1 -14c-0.666992 -1.33301 -1 -2.66602 -1 -3.99902s-0.333008 -2.66602 -1 -3.99902c0 -0.666992 -0.333008 -1.33398 -1 -2.00098c-1.33301 -2 -3.33301 -3.66699 -6 -5c-6.66699 -4 -12.667 -3 -18 3c-1.33301 1.33301 -2.33301 3.33301 -3 6
l-1 4c0 12.667 -0.5 32.334 -1.5 59.001s-1.5 51.334 -1.5 74.001s1 44 3 64c-0.666992 10.667 -2.33398 27.667 -5.00098 51c-3.33301 22.667 -5.66602 39.667 -6.99902 51c-8.66699 73.333 -10.334 124 -5.00098 152c1.33301 4 3.66602 7.16699 6.99902 9.5s7 3 11 2
s7.16699 -3.16699 9.5 -6.5s3.16602 -7 2.49902 -11zM11.0049 561.996c6 36.667 20.666 59.333 43.999 68c18 6.66699 41.333 4.33398 70 -6.99902c0.666992 0 23.334 -11 68.001 -33c23.333 -11.333 39.666 -17 48.999 -17c15.333 0 30.666 7 45.999 21
c4.66699 4 18.334 19.333 41.001 46c6 7.33301 12.833 7.83301 20.5 1.5s8.16699 -13.5 1.5 -21.5c-22.667 -27.333 -37 -43.333 -43 -48c-21.333 -19.333 -43.333 -29 -66 -29c-14 0 -34.667 7 -62 21c-37.333 18 -59.333 28.333 -66 31
c-21.333 8 -37.666 10.333 -48.999 7c-12 -4.66699 -20 -19.334 -24 -44.001c-0.666992 -4 -2.66699 -7.33301 -6 -10s-7 -3.66699 -11 -3s-7.33301 2.66699 -10 6s-3.66699 7 -3 11z" />
    <glyph glyph-name="oacute" unicode="&#xf3;" horiz-adv-x="367" 
d="M269 381c-8 26 -19.833 46.999 -35.5 62.999s-32.5 25.667 -50.5 29c-18.667 4 -37.167 0.666992 -55.5 -10s-34.833 -29.667 -49.5 -57c-22 -42 -34 -92.833 -36 -152.5s5.33301 -111.5 22 -155.5c8 -22.667 20.333 -43.5 37 -62.5s34.667 -32.833 54 -41.5
c44 -19.333 82 -7 114 37c27.333 38.667 38 92.334 32 161.001c-6 60 -21.667 115.667 -47 167c-4.66699 9.33301 -2.66699 16 6 20c2.66699 1.33301 5.66699 2 9 2zM283 366.999c26 -53.333 41.6641 -110.667 46.9971 -172c7.33301 -77.333 -5 -138 -37 -182
c-20.667 -28.667 -44.834 -46.667 -72.501 -54s-53.5 -4.66602 -77.5 8.00098c-23.333 10.667 -44.666 27 -63.999 49s-33.666 46 -42.999 72c-18 47.333 -25.833 103 -23.5 167s15.5 119 39.5 165c16.667 32 37.167 55.167 61.5 69.5s49.5 18.833 75.5 13.5
c24.667 -5.33301 46.834 -18.333 66.501 -39s33.834 -46.667 42.501 -78c1.33301 -4 1 -7.83301 -1 -11.5s-5 -5.83398 -9 -6.50098c-1.33301 -0.666992 -3 -1 -5 -1zM129.997 544.998c0.666992 15.333 4.3291 32.166 10.9961 50.499s12.834 32.833 18.501 43.5
s13.834 25 24.501 43c2 3.33301 3.33301 6 4 8c5.33301 8.66699 12.333 10.334 21 5.00098s10.334 -12.333 5.00098 -21l-26 -45c-5.33301 -9.33301 -11.166 -22.5 -17.499 -39.5s-9.83301 -32.5 -10.5 -46.5c0 -4 -1.66699 -7.33301 -5 -10s-7 -4 -11 -4
s-7.33301 1.66699 -10 5s-4 7 -4 11z" />
    <glyph glyph-name="uacute" unicode="&#xfa;" horiz-adv-x="423" 
d="M115 456c0 -2 -0.667969 -35.6738 -2.00098 -101.007c-1.33301 -62 -0.666016 -112.667 2.00098 -152c4.66699 -57.333 13.334 -99.333 26.001 -126c6.66699 -14 14 -23.333 22 -28c8 -4 18 -4 30 0c14 5.33301 26 18 36 38c9.33301 18.667 16.666 43.334 21.999 74.001
c6.66699 38.667 10 87.667 10 147c0 35.333 1.66699 71.333 5 108v2v3v5c0 3.33301 0.166992 5.83301 0.5 7.5s0.833008 3.5 1.5 5.5c3.33301 4.66699 8 7 14 7c4 -0.666992 7.66699 -2.33398 11 -5.00098l2 -4c6 -10 9.66699 -26.333 11 -49
c0.666992 -5.33301 1.16699 -13.166 1.5 -23.499s0.5 -17.166 0.5 -20.499c0.666992 -7.33301 2 -35.666 4 -84.999c2 -34 4.66699 -62 8 -84c9.33301 -61.333 30.666 -108.666 63.999 -141.999c6.66699 -7.33301 6.5 -14.5 -0.5 -21.5s-14.167 -7.16699 -21.5 -0.5
c-38 38 -62 91 -72 159c-1.33301 9.33301 -2.66602 19.333 -3.99902 30c-1.33301 -16 -3.33301 -30.667 -6 -44c-5.33301 -33.333 -13.333 -60.666 -24 -81.999c-14 -27.333 -31.667 -45 -53 -53c-20 -7.33301 -38 -6.66602 -54 2.00098c-14 8 -25.667 21.667 -35 41
c-14.667 30.667 -24 76.334 -28 137.001c-3.33301 40.667 -4.33301 92 -3 154c1.33301 65.333 2 98.333 2 99c0 4.66699 1.33301 8.5 4 11.5s6.16699 4.5 10.5 4.5s8 -1.33301 11 -4s4.5 -6 4.5 -10zM179.999 517.993c3.33301 18 9.66699 36.666 19 55.999
s17.333 33.666 24 42.999l33 47c6 8 13 9 21 3s9 -13 3 -21l-32 -45c-6 -9.33301 -13.167 -22.5 -21.5 -39.5s-13.833 -33.5 -16.5 -49.5c-0.666992 -4 -2.83398 -7.16699 -6.50098 -9.5s-7.5 -3.16602 -11.5 -2.49902s-7.16699 2.83398 -9.5 6.50098
s-3.16602 7.5 -2.49902 11.5z" />
    <glyph glyph-name="quoteleft" unicode="&#x2018;" horiz-adv-x="207" 
d="M102 531c20 7.33301 36.667 3.66602 50 -11.001c7.33301 -8 9.66602 -17.333 6.99902 -28c-2 -10 -8.66699 -18.667 -20 -26c-13.333 -8 -25.666 -11 -36.999 -9s-20.333 8.66699 -27 20c-10 18 -10.667 38.333 -2 61c1.33301 4 3 8 5 12l6 10
c1.33301 3.33301 3.33301 7 6 11l8 9c1.33301 2.66699 4 6 8 10l8 8l8 8l8 8c1.33301 1.33301 4.66602 4 9.99902 8l7 7c7.33301 6.66699 14.333 6.33398 21 -0.999023s6.33398 -14.333 -0.999023 -21l-27 -25c-5.33301 -5.33301 -12 -13 -20 -23s-14 -19.333 -18 -28z
M99 501c0.666992 -4 1.66699 -7.33398 3 -10.001s3 -4 5 -4c4 -1.33301 9.33301 0.333984 16 5.00098c4 2.66699 6.33301 5 7 7l-1 1c-4 5.33301 -10 6 -18 2c-4 -2 -8 -2.33301 -12 -1z" />
    <glyph glyph-name="quoteright" unicode="&#x2019;" horiz-adv-x="173" 
d="M106 581c-18.667 -15.333 -38 -19.3359 -58 -12.0029c-14.667 5.33301 -22.667 15 -24 29c-0.666992 10.667 2.66602 21.334 9.99902 32.001c6.66699 10 15.167 18.333 25.5 25s20.5 9.66699 30.5 9c15.333 -1.33301 26 -6.33301 32 -15c21.333 -30 22 -64 2 -102
c-15.333 -30.667 -37.333 -54.667 -66 -72c-8.66699 -5.33301 -15.667 -3.66602 -21 5.00098s-3.66602 15.667 5.00098 21c24 14 42.667 34 56 60c3.33301 6.66699 6 13.334 8 20.001zM101 626.997c-1.33301 1.33301 -2.33398 2.66504 -3.00098 3.99805
c-1.33301 1.33301 -4.66602 2.33301 -9.99902 3c-3.33301 0.666992 -8 -1 -14 -5s-11 -9 -15 -15c-3.33301 -5.33301 -5 -9.66602 -5 -12.999c0 -1.33301 1.33301 -2.66602 4 -3.99902c7.33301 -2.66699 15 -1.5 23 3.5s12.667 10.833 14 17.5
c0.666992 3.33301 2.66699 6.33301 6 9z" />
    <glyph glyph-name="quotedblleft" unicode="&#x201c;" horiz-adv-x="400" 
d="M80 517c0 2.66699 1 5.33105 3 7.99805c6 8 13 9 21 3c3.33301 -2.66699 6.33301 -5.33398 9 -8.00098c4.66699 0 8.33398 -0.666992 11.001 -2c9.33301 -2 15.333 -6.66699 18 -14c3.33301 -7.33301 2.33301 -14.666 -3 -21.999c-6 -9.33301 -16.333 -16.333 -31 -21
c-16 -5.33301 -30.667 -6 -44 -2c-17.333 4.66699 -29 16.334 -35 35.001c-7.33301 22 -7 50.333 1 85c8 35.333 19.667 61.333 35 78c8 8.66699 18.333 15 31 19s21.834 6.16699 27.501 6.5s15.834 0.5 30.501 0.5c10 0 15 -5 15 -15s-5 -15 -15 -15
c-13.333 0 -22.833 -0.166992 -28.5 -0.5s-12.334 -1.66602 -20.001 -3.99902s-13.834 -6.16602 -18.501 -11.499c-12 -12.667 -21.333 -34 -28 -64c-6 -28.667 -6.66699 -51.334 -2 -68.001l2 2c4 4 9.66699 7 17 9c1.33301 0.666992 2.66602 1 3.99902 1zM349 517.997
c6 -1.33301 9.66797 -4.99902 11.001 -10.999c0.666992 -4 -0.166016 -7.83301 -2.49902 -11.5s-5.5 -5.83398 -9.5 -6.50098c-6 -0.666992 -11.333 -1.66699 -16 -3c-15.333 -11.333 -35.333 -15 -60 -11c-24.667 4.66699 -42.5 17.5 -53.5 38.5s-13.167 43.167 -6.5 66.5
c7.33301 24.667 22.833 45 46.5 61s54.167 24 91.5 24c10 0 15 -5 15 -15s-5 -15 -15 -15c-31.333 0 -56 -6.16699 -74 -18.5s-29.667 -27.5 -35 -45.5c-6.66699 -22.667 -2.33398 -41 12.999 -55c1.33301 2 2.66602 3.66699 3.99902 5
c7.33301 7.33301 18.666 13.666 33.999 18.999c16.667 6 30 7 40 3c10.667 -5.33301 16.334 -13.666 17.001 -24.999zM304.001 512.998l14 2v1c-3.33301 0 -8 -1 -14 -3z" />
    <glyph glyph-name="quotedblright" unicode="&#x201d;" horiz-adv-x="409" 
d="M79 676l3 2.99902c10 8 21.333 8.66699 34 2c13.333 -7.33301 22 -21 26 -41c3.33301 -15.333 3.33301 -33.333 0 -54c-2 -19.333 -6.33301 -37.333 -13 -54c-7.33301 -18 -15.666 -31 -24.999 -39c-8 -6.66699 -24.667 -13.334 -50 -20.001
c-4 -0.666992 -7.83301 0 -11.5 2s-6 5 -7 9s-0.5 7.83301 1.5 11.5s5 6.16699 9 7.5c21.333 4.66699 34.666 9.33398 39.999 14.001c4.66699 4 9.66699 12.667 15 26c5.33301 14 9.33301 29.667 12 47c0.666992 4.66699 1 9.66699 1 15c-6 -11.333 -15.667 -17.333 -29 -18
c-12 0 -21 4.33301 -27 13s-9.5 18.167 -10.5 28.5s0.5 19.5 4.5 27.5c5.33301 10.667 13.333 17.334 24 20.001h3zM275 592.999c-2 3.33301 -3.33008 7.00195 -3.99707 11.002c-0.666992 2.66699 -1.33398 5.66699 -2.00098 9c-6.66699 3.33301 -11 8.33301 -13 15
c-1.33301 6 -0.666016 12.667 2.00098 20c4.66699 11.333 12.667 20.666 24 27.999c14.667 10 27.667 10.667 39 2c2 -1.33301 3.66699 -3 5 -5c11.333 0 21 -3.33301 29 -10c10 -9.33301 16.333 -23.666 19 -42.999c3.33301 -30 -0.666992 -60 -12 -90
c-2 -5.33301 -4.5 -10.666 -7.5 -15.999l-10.5 -18l-10 -14l-12.5 -15c-5.66699 -6.66699 -8.83398 -10.334 -9.50098 -11.001c-6.66699 -8 -13.834 -8.83301 -21.501 -2.5s-8.5 13.166 -2.5 20.499c1.33301 2 4.83301 6.33301 10.5 13s9.5 11.334 11.5 14.001l9 12
c4 5.33301 7.16699 10.166 9.5 14.499s4.16602 8.5 5.49902 12.5c9.33301 26 12.666 51.333 9.99902 76c0 2 -0.333008 3.66699 -1 5c0.666992 -12 -0.666016 -22.333 -3.99902 -31c-5.33301 -12.667 -14.333 -20.334 -27 -23.001c-14 -2.66699 -24.667 2 -32 14
c-2 3.33301 -3.66699 7.33301 -5 12z" />
    <glyph glyph-name="uni3000" unicode="&#x3000;" horiz-adv-x="1000" 
 />
    <glyph glyph-name=".null" horiz-adv-x="0" 
 />
    <glyph glyph-name="nonmarkingreturn" horiz-adv-x="333" 
 />
  </font>
</defs>
</svg>
